(0 "test mesh")
(2 3)
(10 (0 1 372 0 3))
(12 (0 1 190 0))
(13 (0 1 668 0))
(10 (1 1 372 1 3)(
0 0 0
0.0050000000000000001 0 0
0.01 0 0
0.014999999999999999 0 0
0.02 0 0
0.025000000000000001 0 0
0.029999999999999999 0 0
0.035000000000000003 0 0
0.040000000000000001 0 0
0.044999999999999998 0 0
0.050000000000000003 0 0
0.055 0 0
0.059999999999999998 0 0
0.065000000000000002 0 0
0.070000000000000007 0 0
0.074999999999999997 0 0
0.080000000000000002 0 0
0.085000000000000006 0 0
0.089999999999999997 0 0
0.095000000000000001 0 0
0.10000000000000001 0 0
0 0.0050000000000000001 0
0.0050000000000000001 0.0050000000000000001 0
0.01 0.0050000000000000001 0
0.014999999999999999 0.0050000000000000001 0
0.02 0.0050000000000000001 0
0.025000000000000001 0.0050000000000000001 0
0.029999999999999999 0.0050000000000000001 0
0.035000000000000003 0.0050000000000000001 0
0.040000000000000001 0.0050000000000000001 0
0.044999999999999998 0.0050000000000000001 0
0.050000000000000003 0.0050000000000000001 0
0.055 0.0050000000000000001 0
0.059999999999999998 0.0050000000000000001 0
0.065000000000000002 0.0050000000000000001 0
0.070000000000000007 0.0050000000000000001 0
0.074999999999999997 0.0050000000000000001 0
0.080000000000000002 0.0050000000000000001 0
0.085000000000000006 0.0050000000000000001 0
0.089999999999999997 0.0050000000000000001 0
0.095000000000000001 0.0050000000000000001 0
0.10000000000000001 0.0050000000000000001 0
0 0.01 0
0.0050000000000000001 0.01 0
0.01 0.01 0
0.014999999999999999 0.01 0
0.02 0.01 0
0.025000000000000001 0.01 0
0.029999999999999999 0.01 0
0.035000000000000003 0.01 0
0.040000000000000001 0.01 0
0.044999999999999998 0.01 0
0.050000000000000003 0.01 0
0.055 0.01 0
0.059999999999999998 0.01 0
0.065000000000000002 0.01 0
0.070000000000000007 0.01 0
0.074999999999999997 0.01 0
0.080000000000000002 0.01 0
0.085000000000000006 0.01 0
0.089999999999999997 0.01 0
0.095000000000000001 0.01 0
0.10000000000000001 0.01 0
0 0.014999999999999999 0
0.0050000000000000001 0.014999999999999999 0
0.01 0.014999999999999999 0
0.014999999999999999 0.014999999999999999 0
0.02 0.014999999999999999 0
0.025000000000000001 0.014999999999999999 0
0.029999999999999999 0.014999999999999999 0
0.035000000000000003 0.014999999999999999 0
0.040000000000000001 0.014999999999999999 0
0.044999999999999998 0.014999999999999999 0
0.050000000000000003 0.014999999999999999 0
0.055 0.014999999999999999 0
0.059999999999999998 0.014999999999999999 0
0.065000000000000002 0.014999999999999999 0
0.070000000000000007 0.014999999999999999 0
0.074999999999999997 0.014999999999999999 0
0.080000000000000002 0.014999999999999999 0
0.085000000000000006 0.014999999999999999 0
0.089999999999999997 0.014999999999999999 0
0.095000000000000001 0.014999999999999999 0
0.10000000000000001 0.014999999999999999 0
0 0.02 0
0.0050000000000000001 0.02 0
0.01 0.02 0
0.014999999999999999 0.02 0
0.02 0.02 0
0.025000000000000001 0.02 0
0.029999999999999999 0.02 0
0.035000000000000003 0.02 0
0.040000000000000001 0.02 0
0.044999999999999998 0.02 0
0.050000000000000003 0.02 0
0.055 0.02 0
0.059999999999999998 0.02 0
0.065000000000000002 0.02 0
0.070000000000000007 0.02 0
0.074999999999999997 0.02 0
0.080000000000000002 0.02 0
0.085000000000000006 0.02 0
0.089999999999999997 0.02 0
0.095000000000000001 0.02 0
0.10000000000000001 0.02 0
0 0.025000000000000001 0
0.0050000000000000001 0.025000000000000001 0
0.01 0.025000000000000001 0
0.014999999999999999 0.025000000000000001 0
0.02 0.025000000000000001 0
0.025000000000000001 0.025000000000000001 0
0.029999999999999999 0.025000000000000001 0
0.035000000000000003 0.025000000000000001 0
0.040000000000000001 0.025000000000000001 0
0.044999999999999998 0.025000000000000001 0
0.050000000000000003 0.025000000000000001 0
0.055 0.025000000000000001 0
0.059999999999999998 0.025000000000000001 0
0.065000000000000002 0.025000000000000001 0
0.070000000000000007 0.025000000000000001 0
0.074999999999999997 0.025000000000000001 0
0.080000000000000002 0.025000000000000001 0
0.085000000000000006 0.025000000000000001 0
0.089999999999999997 0.025000000000000001 0
0.095000000000000001 0.025000000000000001 0
0.10000000000000001 0.025000000000000001 0
0 0.029999999999999999 0
0.0050000000000000001 0.029999999999999999 0
0.01 0.029999999999999999 0
0.014999999999999999 0.029999999999999999 0
0.02 0.029999999999999999 0
0.025000000000000001 0.029999999999999999 0
0.029999999999999999 0.029999999999999999 0
0.035000000000000003 0.029999999999999999 0
0.040000000000000001 0.029999999999999999 0
0.044999999999999998 0.029999999999999999 0
0.050000000000000003 0.029999999999999999 0
0.055 0.029999999999999999 0
0.059999999999999998 0.029999999999999999 0
0.065000000000000002 0.029999999999999999 0
0.070000000000000007 0.029999999999999999 0
0.074999999999999997 0.029999999999999999 0
0.080000000000000002 0.029999999999999999 0
0.085000000000000006 0.029999999999999999 0
0.089999999999999997 0.029999999999999999 0
0.095000000000000001 0.029999999999999999 0
0.10000000000000001 0.029999999999999999 0
0 0.035000000000000003 0
0.0050000000000000001 0.035000000000000003 0
0.01 0.035000000000000003 0
0.014999999999999999 0.035000000000000003 0
0.02 0.035000000000000003 0
0.025000000000000001 0.035000000000000003 0
0.029999999999999999 0.035000000000000003 0
0.035000000000000003 0.035000000000000003 0
0.040000000000000001 0.035000000000000003 0
0.044999999999999998 0.035000000000000003 0
0.050000000000000003 0.035000000000000003 0
0.055 0.035000000000000003 0
0.059999999999999998 0.035000000000000003 0
0.065000000000000002 0.035000000000000003 0
0.070000000000000007 0.035000000000000003 0
0.074999999999999997 0.035000000000000003 0
0.080000000000000002 0.035000000000000003 0
0.085000000000000006 0.035000000000000003 0
0.089999999999999997 0.035000000000000003 0
0.095000000000000001 0.035000000000000003 0
0.10000000000000001 0.035000000000000003 0
0 0.040000000000000001 0
0.0050000000000000001 0.040000000000000001 0
0.01 0.040000000000000001 0
0.014999999999999999 0.040000000000000001 0
0.02 0.040000000000000001 0
0.025000000000000001 0.040000000000000001 0
0.029999999999999999 0.040000000000000001 0
0.035000000000000003 0.040000000000000001 0
0.040000000000000001 0.040000000000000001 0
0.044999999999999998 0.040000000000000001 0
0.050000000000000003 0.040000000000000001 0
0.055 0.040000000000000001 0
0.059999999999999998 0.040000000000000001 0
0.065000000000000002 0.040000000000000001 0
0.070000000000000007 0.040000000000000001 0
0.074999999999999997 0.040000000000000001 0
0.080000000000000002 0.040000000000000001 0
0.085000000000000006 0.040000000000000001 0
0.089999999999999997 0.040000000000000001 0
0.095000000000000001 0.040000000000000001 0
0.10000000000000001 0.040000000000000001 0
0 0.044999999999999998 0
0.0050000000000000001 0.044999999999999998 0
0.01 0.044999999999999998 0
0.014999999999999999 0.044999999999999998 0
0.02 0.044999999999999998 0
0.025000000000000001 0.044999999999999998 0
0.029999999999999999 0.044999999999999998 0
0.035000000000000003 0.044999999999999998 0
0.040000000000000001 0.044999999999999998 0
0.044999999999999998 0.044999999999999998 0
0.050000000000000003 0.044999999999999998 0
0.055 0.044999999999999998 0
0.059999999999999998 0.044999999999999998 0
0.065000000000000002 0.044999999999999998 0
0.070000000000000007 0.044999999999999998 0
0.074999999999999997 0.044999999999999998 0
0.080000000000000002 0.044999999999999998 0
0.085000000000000006 0.044999999999999998 0
0.089999999999999997 0.044999999999999998 0
0.095000000000000001 0.044999999999999998 0
0.10000000000000001 0.044999999999999998 0
0 0.050000000000000003 0
0.0050000000000000001 0.050000000000000003 0
0.01 0.050000000000000003 0
0.014999999999999999 0.050000000000000003 0
0.02 0.050000000000000003 0
0.025000000000000001 0.050000000000000003 0
0.029999999999999999 0.050000000000000003 0
0.035000000000000003 0.050000000000000003 0
0.040000000000000001 0.050000000000000003 0
0.044999999999999998 0.050000000000000003 0
0.050000000000000003 0.050000000000000003 0
0.055 0.050000000000000003 0
0.059999999999999998 0.050000000000000003 0
0.065000000000000002 0.050000000000000003 0
0.070000000000000007 0.050000000000000003 0
0.074999999999999997 0.050000000000000003 0
0.080000000000000002 0.050000000000000003 0
0.085000000000000006 0.050000000000000003 0
0.089999999999999997 0.050000000000000003 0
0.095000000000000001 0.050000000000000003 0
0.10000000000000001 0.050000000000000003 0
0 0.055 0
0.0050000000000000001 0.055 0
0.01 0.055 0
0.014999999999999999 0.055 0
0.02 0.055 0
0.025000000000000001 0.055 0
0.029999999999999999 0.055 0
0.035000000000000003 0.055 0
0.040000000000000001 0.055 0
0.044999999999999998 0.055 0
0.050000000000000003 0.055 0
0.055 0.055 0
0.059999999999999998 0.055 0
0.065000000000000002 0.055 0
0.070000000000000007 0.055 0
0.074999999999999997 0.055 0
0.080000000000000002 0.055 0
0.085000000000000006 0.055 0
0.089999999999999997 0.055 0
0.095000000000000001 0.055 0
0.10000000000000001 0.055 0
0 0.059999999999999998 0
0.0050000000000000001 0.059999999999999998 0
0.01 0.059999999999999998 0
0.014999999999999999 0.059999999999999998 0
0.02 0.059999999999999998 0
0.025000000000000001 0.059999999999999998 0
0.029999999999999999 0.059999999999999998 0
0.035000000000000003 0.059999999999999998 0
0.040000000000000001 0.059999999999999998 0
0.044999999999999998 0.059999999999999998 0
0.050000000000000003 0.059999999999999998 0
0.055 0.059999999999999998 0
0.059999999999999998 0.059999999999999998 0
0.065000000000000002 0.059999999999999998 0
0.070000000000000007 0.059999999999999998 0
0.074999999999999997 0.059999999999999998 0
0.080000000000000002 0.059999999999999998 0
0.085000000000000006 0.059999999999999998 0
0.089999999999999997 0.059999999999999998 0
0.095000000000000001 0.059999999999999998 0
0.10000000000000001 0.059999999999999998 0
0 0.065000000000000002 0
0.0050000000000000001 0.065000000000000002 0
0.01 0.065000000000000002 0
0.014999999999999999 0.065000000000000002 0
0.02 0.065000000000000002 0
0.025000000000000001 0.065000000000000002 0
0.029999999999999999 0.065000000000000002 0
0.035000000000000003 0.065000000000000002 0
0.040000000000000001 0.065000000000000002 0
0.044999999999999998 0.065000000000000002 0
0.050000000000000003 0.065000000000000002 0
0.055 0.065000000000000002 0
0.059999999999999998 0.065000000000000002 0
0.065000000000000002 0.065000000000000002 0
0.070000000000000007 0.065000000000000002 0
0.074999999999999997 0.065000000000000002 0
0.080000000000000002 0.065000000000000002 0
0.085000000000000006 0.065000000000000002 0
0.089999999999999997 0.065000000000000002 0
0.095000000000000001 0.065000000000000002 0
0.10000000000000001 0.065000000000000002 0
0 0.070000000000000007 0
0.0050000000000000001 0.070000000000000007 0
0.01 0.070000000000000007 0
0.014999999999999999 0.070000000000000007 0
0.02 0.070000000000000007 0
0.025000000000000001 0.070000000000000007 0
0.029999999999999999 0.070000000000000007 0
0.035000000000000003 0.070000000000000007 0
0.040000000000000001 0.070000000000000007 0
0.044999999999999998 0.070000000000000007 0
0.050000000000000003 0.070000000000000007 0
0.055 0.070000000000000007 0
0.059999999999999998 0.070000000000000007 0
0.065000000000000002 0.070000000000000007 0
0.070000000000000007 0.070000000000000007 0
0.074999999999999997 0.070000000000000007 0
0.080000000000000002 0.070000000000000007 0
0.085000000000000006 0.070000000000000007 0
0.089999999999999997 0.070000000000000007 0
0.095000000000000001 0.070000000000000007 0
0.10000000000000001 0.070000000000000007 0
0 0.074999999999999997 0
0.0050000000000000001 0.074999999999999997 0
0.01 0.074999999999999997 0
0.014999999999999999 0.074999999999999997 0
0.02 0.074999999999999997 0
0.025000000000000001 0.074999999999999997 0
0.029999999999999999 0.074999999999999997 0
0.035000000000000003 0.074999999999999997 0
0.040000000000000001 0.074999999999999997 0
0.044999999999999998 0.074999999999999997 0
0.050000000000000003 0.074999999999999997 0
0.055 0.074999999999999997 0
0.059999999999999998 0.074999999999999997 0
0.065000000000000002 0.074999999999999997 0
0.070000000000000007 0.074999999999999997 0
0.074999999999999997 0.074999999999999997 0
0.080000000000000002 0.074999999999999997 0
0.085000000000000006 0.074999999999999997 0
0.089999999999999997 0.074999999999999997 0
0.095000000000000001 0.074999999999999997 0
0.10000000000000001 0.074999999999999997 0
0 0.080000000000000002 0
0.0050000000000000001 0.080000000000000002 0
0.01 0.080000000000000002 0
0.014999999999999999 0.080000000000000002 0
0.02 0.080000000000000002 0
0.025000000000000001 0.080000000000000002 0
0.029999999999999999 0.080000000000000002 0
0.035000000000000003 0.080000000000000002 0
0.040000000000000001 0.080000000000000002 0
0.044999999999999998 0.080000000000000002 0
0.050000000000000003 0.080000000000000002 0
0.055 0.080000000000000002 0
0.059999999999999998 0.080000000000000002 0
0.065000000000000002 0.080000000000000002 0
0.070000000000000007 0.080000000000000002 0
0.074999999999999997 0.080000000000000002 0
0.080000000000000002 0.080000000000000002 0
0.085000000000000006 0.080000000000000002 0
0.089999999999999997 0.080000000000000002 0
0.095000000000000001 0.080000000000000002 0
0.10000000000000001 0.080000000000000002 0
0 0.085000000000000006 0
0.0050000000000000001 0.085000000000000006 0
0.01 0.085000000000000006 0
0.014999999999999999 0.085000000000000006 0
0.02 0.085000000000000006 0
0.025000000000000001 0.085000000000000006 0
0.029999999999999999 0.085000000000000006 0
0.035000000000000003 0.085000000000000006 0
0.040000000000000001 0.085000000000000006 0
0.044999999999999998 0.085000000000000006 0
0.050000000000000003 0.085000000000000006 0
0.055 0.085000000000000006 0
0.059999999999999998 0.085000000000000006 0
0.065000000000000002 0.085000000000000006 0
0.070000000000000007 0.085000000000000006 0
0.074999999999999997 0.085000000000000006 0
0.080000000000000002 0.085000000000000006 0
0.085000000000000006 0.085000000000000006 0
0.089999999999999997 0.085000000000000006 0
0.095000000000000001 0.085000000000000006 0
0.10000000000000001 0.085000000000000006 0
0 0.089999999999999997 0
0.0050000000000000001 0.089999999999999997 0
0.01 0.089999999999999997 0
0.014999999999999999 0.089999999999999997 0
0.02 0.089999999999999997 0
0.025000000000000001 0.089999999999999997 0
0.029999999999999999 0.089999999999999997 0
0.035000000000000003 0.089999999999999997 0
0.040000000000000001 0.089999999999999997 0
0.044999999999999998 0.089999999999999997 0
0.050000000000000003 0.089999999999999997 0
0.055 0.089999999999999997 0
0.059999999999999998 0.089999999999999997 0
0.065000000000000002 0.089999999999999997 0
0.070000000000000007 0.089999999999999997 0
0.074999999999999997 0.089999999999999997 0
0.080000000000000002 0.089999999999999997 0
0.085000000000000006 0.089999999999999997 0
0.089999999999999997 0.089999999999999997 0
0.095000000000000001 0.089999999999999997 0
0.10000000000000001 0.089999999999999997 0
0 0.095000000000000001 0
0.0050000000000000001 0.095000000000000001 0
0.01 0.095000000000000001 0
0.014999999999999999 0.095000000000000001 0
0.02 0.095000000000000001 0
0.025000000000000001 0.095000000000000001 0
0.029999999999999999 0.095000000000000001 0
0.035000000000000003 0.095000000000000001 0
0.040000000000000001 0.095000000000000001 0
0.044999999999999998 0.095000000000000001 0
0.050000000000000003 0.095000000000000001 0
0.055 0.095000000000000001 0
0.059999999999999998 0.095000000000000001 0
0.065000000000000002 0.095000000000000001 0
0.070000000000000007 0.095000000000000001 0
0.074999999999999997 0.095000000000000001 0
0.080000000000000002 0.095000000000000001 0
0.085000000000000006 0.095000000000000001 0
0.089999999999999997 0.095000000000000001 0
0.095000000000000001 0.095000000000000001 0
0.10000000000000001 0.095000000000000001 0
0 0.10000000000000001 0
0.0050000000000000001 0.10000000000000001 0
0.01 0.10000000000000001 0
0.014999999999999999 0.10000000000000001 0
0.02 0.10000000000000001 0
0.025000000000000001 0.10000000000000001 0
0.029999999999999999 0.10000000000000001 0
0.035000000000000003 0.10000000000000001 0
0.040000000000000001 0.10000000000000001 0
0.044999999999999998 0.10000000000000001 0
0.050000000000000003 0.10000000000000001 0
0.055 0.10000000000000001 0
0.059999999999999998 0.10000000000000001 0
0.065000000000000002 0.10000000000000001 0
0.070000000000000007 0.10000000000000001 0
0.074999999999999997 0.10000000000000001 0
0.080000000000000002 0.10000000000000001 0
0.085000000000000006 0.10000000000000001 0
0.089999999999999997 0.10000000000000001 0
0.095000000000000001 0.10000000000000001 0
0.10000000000000001 0.10000000000000001 0
0 0 0.01
0.0050000000000000001 0 0.01
0.01 0 0.01
0.014999999999999999 0 0.01
0.02 0 0.01
0.025000000000000001 0 0.01
0.029999999999999999 0 0.01
0.035000000000000003 0 0.01
0.040000000000000001 0 0.01
0.044999999999999998 0 0.01
0.050000000000000003 0 0.01
0.055 0 0.01
0.059999999999999998 0 0.01
0.065000000000000002 0 0.01
0.070000000000000007 0 0.01
0.074999999999999997 0 0.01
0.080000000000000002 0 0.01
0.085000000000000006 0 0.01
0.089999999999999997 0 0.01
0.095000000000000001 0 0.01
0.10000000000000001 0 0.01
0 0.0050000000000000001 0.01
0.0050000000000000001 0.0050000000000000001 0.01
0.01 0.0050000000000000001 0.01
0.014999999999999999 0.0050000000000000001 0.01
0.02 0.0050000000000000001 0.01
0.025000000000000001 0.0050000000000000001 0.01
0.029999999999999999 0.0050000000000000001 0.01
0.035000000000000003 0.0050000000000000001 0.01
0.040000000000000001 0.0050000000000000001 0.01
0.044999999999999998 0.0050000000000000001 0.01
0.050000000000000003 0.0050000000000000001 0.01
0.055 0.0050000000000000001 0.01
0.059999999999999998 0.0050000000000000001 0.01
0.065000000000000002 0.0050000000000000001 0.01
0.070000000000000007 0.0050000000000000001 0.01
0.074999999999999997 0.0050000000000000001 0.01
0.080000000000000002 0.0050000000000000001 0.01
0.085000000000000006 0.0050000000000000001 0.01
0.089999999999999997 0.0050000000000000001 0.01
0.095000000000000001 0.0050000000000000001 0.01
0.10000000000000001 0.0050000000000000001 0.01
0 0.01 0.01
0.0050000000000000001 0.01 0.01
0.01 0.01 0.01
0.014999999999999999 0.01 0.01
0.02 0.01 0.01
0.025000000000000001 0.01 0.01
0.029999999999999999 0.01 0.01
0.035000000000000003 0.01 0.01
0.040000000000000001 0.01 0.01
0.044999999999999998 0.01 0.01
0.050000000000000003 0.01 0.01
0.055 0.01 0.01
0.059999999999999998 0.01 0.01
0.065000000000000002 0.01 0.01
0.070000000000000007 0.01 0.01
0.074999999999999997 0.01 0.01
0.080000000000000002 0.01 0.01
0.085000000000000006 0.01 0.01
0.089999999999999997 0.01 0.01
0.095000000000000001 0.01 0.01
0.10000000000000001 0.01 0.01
0 0.014999999999999999 0.01
0.0050000000000000001 0.014999999999999999 0.01
0.01 0.014999999999999999 0.01
0.014999999999999999 0.014999999999999999 0.01
0.02 0.014999999999999999 0.01
0.025000000000000001 0.014999999999999999 0.01
0.029999999999999999 0.014999999999999999 0.01
0.035000000000000003 0.014999999999999999 0.01
0.040000000000000001 0.014999999999999999 0.01
0.044999999999999998 0.014999999999999999 0.01
0.050000000000000003 0.014999999999999999 0.01
0.055 0.014999999999999999 0.01
0.059999999999999998 0.014999999999999999 0.01
0.065000000000000002 0.014999999999999999 0.01
0.070000000000000007 0.014999999999999999 0.01
0.074999999999999997 0.014999999999999999 0.01
0.080000000000000002 0.014999999999999999 0.01
0.085000000000000006 0.014999999999999999 0.01
0.089999999999999997 0.014999999999999999 0.01
0.095000000000000001 0.014999999999999999 0.01
0.10000000000000001 0.014999999999999999 0.01
0 0.02 0.01
0.0050000000000000001 0.02 0.01
0.01 0.02 0.01
0.014999999999999999 0.02 0.01
0.02 0.02 0.01
0.025000000000000001 0.02 0.01
0.029999999999999999 0.02 0.01
0.035000000000000003 0.02 0.01
0.040000000000000001 0.02 0.01
0.044999999999999998 0.02 0.01
0.050000000000000003 0.02 0.01
0.055 0.02 0.01
0.059999999999999998 0.02 0.01
0.065000000000000002 0.02 0.01
0.070000000000000007 0.02 0.01
0.074999999999999997 0.02 0.01
0.080000000000000002 0.02 0.01
0.085000000000000006 0.02 0.01
0.089999999999999997 0.02 0.01
0.095000000000000001 0.02 0.01
0.10000000000000001 0.02 0.01
0 0.025000000000000001 0.01
0.0050000000000000001 0.025000000000000001 0.01
0.01 0.025000000000000001 0.01
0.014999999999999999 0.025000000000000001 0.01
0.02 0.025000000000000001 0.01
0.025000000000000001 0.025000000000000001 0.01
0.029999999999999999 0.025000000000000001 0.01
0.035000000000000003 0.025000000000000001 0.01
0.040000000000000001 0.025000000000000001 0.01
0.044999999999999998 0.025000000000000001 0.01
0.050000000000000003 0.025000000000000001 0.01
0.055 0.025000000000000001 0.01
0.059999999999999998 0.025000000000000001 0.01
0.065000000000000002 0.025000000000000001 0.01
0.070000000000000007 0.025000000000000001 0.01
0.074999999999999997 0.025000000000000001 0.01
0.080000000000000002 0.025000000000000001 0.01
0.085000000000000006 0.025000000000000001 0.01
0.089999999999999997 0.025000000000000001 0.01
0.095000000000000001 0.025000000000000001 0.01
0.10000000000000001 0.025000000000000001 0.01
0 0.029999999999999999 0.01
0.0050000000000000001 0.029999999999999999 0.01
0.01 0.029999999999999999 0.01
0.014999999999999999 0.029999999999999999 0.01
0.02 0.029999999999999999 0.01
0.025000000000000001 0.029999999999999999 0.01
0.029999999999999999 0.029999999999999999 0.01
0.035000000000000003 0.029999999999999999 0.01
0.040000000000000001 0.029999999999999999 0.01
0.044999999999999998 0.029999999999999999 0.01
0.050000000000000003 0.029999999999999999 0.01
0.055 0.029999999999999999 0.01
0.059999999999999998 0.029999999999999999 0.01
0.065000000000000002 0.029999999999999999 0.01
0.070000000000000007 0.029999999999999999 0.01
0.074999999999999997 0.029999999999999999 0.01
0.080000000000000002 0.029999999999999999 0.01
0.085000000000000006 0.029999999999999999 0.01
0.089999999999999997 0.029999999999999999 0.01
0.095000000000000001 0.029999999999999999 0.01
0.10000000000000001 0.029999999999999999 0.01
0 0.035000000000000003 0.01
0.0050000000000000001 0.035000000000000003 0.01
0.01 0.035000000000000003 0.01
0.014999999999999999 0.035000000000000003 0.01
0.02 0.035000000000000003 0.01
0.025000000000000001 0.035000000000000003 0.01
0.029999999999999999 0.035000000000000003 0.01
0.035000000000000003 0.035000000000000003 0.01
0.040000000000000001 0.035000000000000003 0.01
0.044999999999999998 0.035000000000000003 0.01
0.050000000000000003 0.035000000000000003 0.01
0.055 0.035000000000000003 0.01
0.059999999999999998 0.035000000000000003 0.01
0.065000000000000002 0.035000000000000003 0.01
0.070000000000000007 0.035000000000000003 0.01
0.074999999999999997 0.035000000000000003 0.01
0.080000000000000002 0.035000000000000003 0.01
0.085000000000000006 0.035000000000000003 0.01
0.089999999999999997 0.035000000000000003 0.01
0.095000000000000001 0.035000000000000003 0.01
0.10000000000000001 0.035000000000000003 0.01
0 0.040000000000000001 0.01
0.0050000000000000001 0.040000000000000001 0.01
0.01 0.040000000000000001 0.01
0.014999999999999999 0.040000000000000001 0.01
0.02 0.040000000000000001 0.01
0.025000000000000001 0.040000000000000001 0.01
0.029999999999999999 0.040000000000000001 0.01
0.035000000000000003 0.040000000000000001 0.01
0.040000000000000001 0.040000000000000001 0.01
0.044999999999999998 0.040000000000000001 0.01
0.050000000000000003 0.040000000000000001 0.01
0.055 0.040000000000000001 0.01
0.059999999999999998 0.040000000000000001 0.01
0.065000000000000002 0.040000000000000001 0.01
0.070000000000000007 0.040000000000000001 0.01
0.074999999999999997 0.040000000000000001 0.01
0.080000000000000002 0.040000000000000001 0.01
0.085000000000000006 0.040000000000000001 0.01
0.089999999999999997 0.040000000000000001 0.01
0.095000000000000001 0.040000000000000001 0.01
0.10000000000000001 0.040000000000000001 0.01
0 0.044999999999999998 0.01
0.0050000000000000001 0.044999999999999998 0.01
0.01 0.044999999999999998 0.01
0.014999999999999999 0.044999999999999998 0.01
0.02 0.044999999999999998 0.01
0.025000000000000001 0.044999999999999998 0.01
0.029999999999999999 0.044999999999999998 0.01
0.035000000000000003 0.044999999999999998 0.01
0.040000000000000001 0.044999999999999998 0.01
0.044999999999999998 0.044999999999999998 0.01
0.050000000000000003 0.044999999999999998 0.01
0.055 0.044999999999999998 0.01
0.059999999999999998 0.044999999999999998 0.01
0.065000000000000002 0.044999999999999998 0.01
0.070000000000000007 0.044999999999999998 0.01
0.074999999999999997 0.044999999999999998 0.01
0.080000000000000002 0.044999999999999998 0.01
0.085000000000000006 0.044999999999999998 0.01
0.089999999999999997 0.044999999999999998 0.01
0.095000000000000001 0.044999999999999998 0.01
0.10000000000000001 0.044999999999999998 0.01
0 0.050000000000000003 0.01
0.0050000000000000001 0.050000000000000003 0.01
0.01 0.050000000000000003 0.01
0.014999999999999999 0.050000000000000003 0.01
0.02 0.050000000000000003 0.01
0.025000000000000001 0.050000000000000003 0.01
0.029999999999999999 0.050000000000000003 0.01
0.035000000000000003 0.050000000000000003 0.01
0.040000000000000001 0.050000000000000003 0.01
0.044999999999999998 0.050000000000000003 0.01
0.050000000000000003 0.050000000000000003 0.01
0.055 0.050000000000000003 0.01
0.059999999999999998 0.050000000000000003 0.01
0.065000000000000002 0.050000000000000003 0.01
0.070000000000000007 0.050000000000000003 0.01
0.074999999999999997 0.050000000000000003 0.01
0.080000000000000002 0.050000000000000003 0.01
0.085000000000000006 0.050000000000000003 0.01
0.089999999999999997 0.050000000000000003 0.01
0.095000000000000001 0.050000000000000003 0.01
0.10000000000000001 0.050000000000000003 0.01
0 0.055 0.01
0.0050000000000000001 0.055 0.01
0.01 0.055 0.01
0.014999999999999999 0.055 0.01
0.02 0.055 0.01
0.025000000000000001 0.055 0.01
0.029999999999999999 0.055 0.01
0.035000000000000003 0.055 0.01
0.040000000000000001 0.055 0.01
0.044999999999999998 0.055 0.01
0.050000000000000003 0.055 0.01
0.055 0.055 0.01
0.059999999999999998 0.055 0.01
0.065000000000000002 0.055 0.01
0.070000000000000007 0.055 0.01
0.074999999999999997 0.055 0.01
0.080000000000000002 0.055 0.01
0.085000000000000006 0.055 0.01
0.089999999999999997 0.055 0.01
0.095000000000000001 0.055 0.01
0.10000000000000001 0.055 0.01
0 0.059999999999999998 0.01
0.0050000000000000001 0.059999999999999998 0.01
0.01 0.059999999999999998 0.01
0.014999999999999999 0.059999999999999998 0.01
0.02 0.059999999999999998 0.01
0.025000000000000001 0.059999999999999998 0.01
0.029999999999999999 0.059999999999999998 0.01
0.035000000000000003 0.059999999999999998 0.01
0.040000000000000001 0.059999999999999998 0.01
0.044999999999999998 0.059999999999999998 0.01
0.050000000000000003 0.059999999999999998 0.01
0.055 0.059999999999999998 0.01
0.059999999999999998 0.059999999999999998 0.01
0.065000000000000002 0.059999999999999998 0.01
0.070000000000000007 0.059999999999999998 0.01
0.074999999999999997 0.059999999999999998 0.01
0.080000000000000002 0.059999999999999998 0.01
0.085000000000000006 0.059999999999999998 0.01
0.089999999999999997 0.059999999999999998 0.01
0.095000000000000001 0.059999999999999998 0.01
0.10000000000000001 0.059999999999999998 0.01
0 0.065000000000000002 0.01
0.0050000000000000001 0.065000000000000002 0.01
0.01 0.065000000000000002 0.01
0.014999999999999999 0.065000000000000002 0.01
0.02 0.065000000000000002 0.01
0.025000000000000001 0.065000000000000002 0.01
0.029999999999999999 0.065000000000000002 0.01
0.035000000000000003 0.065000000000000002 0.01
0.040000000000000001 0.065000000000000002 0.01
0.044999999999999998 0.065000000000000002 0.01
0.050000000000000003 0.065000000000000002 0.01
0.055 0.065000000000000002 0.01
0.059999999999999998 0.065000000000000002 0.01
0.065000000000000002 0.065000000000000002 0.01
0.070000000000000007 0.065000000000000002 0.01
0.074999999999999997 0.065000000000000002 0.01
0.080000000000000002 0.065000000000000002 0.01
0.085000000000000006 0.065000000000000002 0.01
0.089999999999999997 0.065000000000000002 0.01
0.095000000000000001 0.065000000000000002 0.01
0.10000000000000001 0.065000000000000002 0.01
0 0.070000000000000007 0.01
0.0050000000000000001 0.070000000000000007 0.01
0.01 0.070000000000000007 0.01
0.014999999999999999 0.070000000000000007 0.01
0.02 0.070000000000000007 0.01
0.025000000000000001 0.070000000000000007 0.01
0.029999999999999999 0.070000000000000007 0.01
0.035000000000000003 0.070000000000000007 0.01
0.040000000000000001 0.070000000000000007 0.01
0.044999999999999998 0.070000000000000007 0.01
0.050000000000000003 0.070000000000000007 0.01
0.055 0.070000000000000007 0.01
0.059999999999999998 0.070000000000000007 0.01
0.065000000000000002 0.070000000000000007 0.01
0.070000000000000007 0.070000000000000007 0.01
0.074999999999999997 0.070000000000000007 0.01
0.080000000000000002 0.070000000000000007 0.01
0.085000000000000006 0.070000000000000007 0.01
0.089999999999999997 0.070000000000000007 0.01
0.095000000000000001 0.070000000000000007 0.01
0.10000000000000001 0.070000000000000007 0.01
0 0.074999999999999997 0.01
0.0050000000000000001 0.074999999999999997 0.01
0.01 0.074999999999999997 0.01
0.014999999999999999 0.074999999999999997 0.01
0.02 0.074999999999999997 0.01
0.025000000000000001 0.074999999999999997 0.01
0.029999999999999999 0.074999999999999997 0.01
0.035000000000000003 0.074999999999999997 0.01
0.040000000000000001 0.074999999999999997 0.01
0.044999999999999998 0.074999999999999997 0.01
0.050000000000000003 0.074999999999999997 0.01
0.055 0.074999999999999997 0.01
0.059999999999999998 0.074999999999999997 0.01
0.065000000000000002 0.074999999999999997 0.01
0.070000000000000007 0.074999999999999997 0.01
0.074999999999999997 0.074999999999999997 0.01
0.080000000000000002 0.074999999999999997 0.01
0.085000000000000006 0.074999999999999997 0.01
0.089999999999999997 0.074999999999999997 0.01
0.095000000000000001 0.074999999999999997 0.01
0.10000000000000001 0.074999999999999997 0.01
0 0.080000000000000002 0.01
0.0050000000000000001 0.080000000000000002 0.01
0.01 0.080000000000000002 0.01
0.014999999999999999 0.080000000000000002 0.01
0.02 0.080000000000000002 0.01
0.025000000000000001 0.080000000000000002 0.01
0.029999999999999999 0.080000000000000002 0.01
0.035000000000000003 0.080000000000000002 0.01
0.040000000000000001 0.080000000000000002 0.01
0.044999999999999998 0.080000000000000002 0.01
0.050000000000000003 0.080000000000000002 0.01
0.055 0.080000000000000002 0.01
0.059999999999999998 0.080000000000000002 0.01
0.065000000000000002 0.080000000000000002 0.01
0.070000000000000007 0.080000000000000002 0.01
0.074999999999999997 0.080000000000000002 0.01
0.080000000000000002 0.080000000000000002 0.01
0.085000000000000006 0.080000000000000002 0.01
0.089999999999999997 0.080000000000000002 0.01
0.095000000000000001 0.080000000000000002 0.01
0.10000000000000001 0.080000000000000002 0.01
0 0.085000000000000006 0.01
0.0050000000000000001 0.085000000000000006 0.01
0.01 0.085000000000000006 0.01
0.014999999999999999 0.085000000000000006 0.01
0.02 0.085000000000000006 0.01
0.025000000000000001 0.085000000000000006 0.01
0.029999999999999999 0.085000000000000006 0.01
0.035000000000000003 0.085000000000000006 0.01
0.040000000000000001 0.085000000000000006 0.01
0.044999999999999998 0.085000000000000006 0.01
0.050000000000000003 0.085000000000000006 0.01
0.055 0.085000000000000006 0.01
0.059999999999999998 0.085000000000000006 0.01
0.065000000000000002 0.085000000000000006 0.01
0.070000000000000007 0.085000000000000006 0.01
0.074999999999999997 0.085000000000000006 0.01
0.080000000000000002 0.085000000000000006 0.01
0.085000000000000006 0.085000000000000006 0.01
0.089999999999999997 0.085000000000000006 0.01
0.095000000000000001 0.085000000000000006 0.01
0.10000000000000001 0.085000000000000006 0.01
0 0.089999999999999997 0.01
0.0050000000000000001 0.089999999999999997 0.01
0.01 0.089999999999999997 0.01
0.014999999999999999 0.089999999999999997 0.01
0.02 0.089999999999999997 0.01
0.025000000000000001 0.089999999999999997 0.01
0.029999999999999999 0.089999999999999997 0.01
0.035000000000000003 0.089999999999999997 0.01
0.040000000000000001 0.089999999999999997 0.01
0.044999999999999998 0.089999999999999997 0.01
0.050000000000000003 0.089999999999999997 0.01
0.055 0.089999999999999997 0.01
0.059999999999999998 0.089999999999999997 0.01
0.065000000000000002 0.089999999999999997 0.01
0.070000000000000007 0.089999999999999997 0.01
0.074999999999999997 0.089999999999999997 0.01
0.080000000000000002 0.089999999999999997 0.01
0.085000000000000006 0.089999999999999997 0.01
0.089999999999999997 0.089999999999999997 0.01
0.095000000000000001 0.089999999999999997 0.01
0.10000000000000001 0.089999999999999997 0.01
0 0.095000000000000001 0.01
0.0050000000000000001 0.095000000000000001 0.01
0.01 0.095000000000000001 0.01
0.014999999999999999 0.095000000000000001 0.01
0.02 0.095000000000000001 0.01
0.025000000000000001 0.095000000000000001 0.01
0.029999999999999999 0.095000000000000001 0.01
0.035000000000000003 0.095000000000000001 0.01
0.040000000000000001 0.095000000000000001 0.01
0.044999999999999998 0.095000000000000001 0.01
0.050000000000000003 0.095000000000000001 0.01
0.055 0.095000000000000001 0.01
0.059999999999999998 0.095000000000000001 0.01
0.065000000000000002 0.095000000000000001 0.01
0.070000000000000007 0.095000000000000001 0.01
0.074999999999999997 0.095000000000000001 0.01
0.080000000000000002 0.095000000000000001 0.01
0.085000000000000006 0.095000000000000001 0.01
0.089999999999999997 0.095000000000000001 0.01
0.095000000000000001 0.095000000000000001 0.01
0.10000000000000001 0.095000000000000001 0.01
0 0.10000000000000001 0.01
0.0050000000000000001 0.10000000000000001 0.01
0.01 0.10000000000000001 0.01
0.014999999999999999 0.10000000000000001 0.01
0.02 0.10000000000000001 0.01
0.025000000000000001 0.10000000000000001 0.01
0.029999999999999999 0.10000000000000001 0.01
0.035000000000000003 0.10000000000000001 0.01
0.040000000000000001 0.10000000000000001 0.01
0.044999999999999998 0.10000000000000001 0.01
0.050000000000000003 0.10000000000000001 0.01
0.055 0.10000000000000001 0.01
0.059999999999999998 0.10000000000000001 0.01
0.065000000000000002 0.10000000000000001 0.01
0.070000000000000007 0.10000000000000001 0.01
0.074999999999999997 0.10000000000000001 0.01
0.080000000000000002 0.10000000000000001 0.01
0.085000000000000006 0.10000000000000001 0.01
0.089999999999999997 0.10000000000000001 0.01
0.095000000000000001 0.10000000000000001 0.01
0.10000000000000001 0.10000000000000001 0.01
))
(12 (2 1 190 1 0))
(13 (3 1 2f8 2 0)(
4 1bb 1d0 17 2 2 1
4 17 1d0 1cf 16 15 1
4 1bc 1d1 18 3 3 2
4 18 1d1 1d0 17 16 2
4 1bd 1d2 19 4 4 3
4 19 1d2 1d1 18 17 3
4 1be 1d3 1a 5 5 4
4 1a 1d3 1d2 19 18 4
4 1bf 1d4 1b 6 6 5
4 1b 1d4 1d3 1a 19 5
4 1c0 1d5 1c 7 7 6
4 1c 1d5 1d4 1b 1a 6
4 1c1 1d6 1d 8 8 7
4 1d 1d6 1d5 1c 1b 7
4 1c2 1d7 1e 9 9 8
4 1e 1d7 1d6 1d 1c 8
4 1c3 1d8 1f a a 9
4 1f 1d8 1d7 1e 1d 9
4 1c4 1d9 20 b b a
4 20 1d9 1d8 1f 1e a
4 1c5 1da 21 c c b
4 21 1da 1d9 20 1f b
4 1c6 1db 22 d d c
4 22 1db 1da 21 20 c
4 1c7 1dc 23 e e d
4 23 1dc 1db 22 21 d
4 1c8 1dd 24 f f e
4 24 1dd 1dc 23 22 e
4 1c9 1de 25 10 10 f
4 25 1de 1dd 24 23 f
4 1ca 1df 26 11 11 10
4 26 1df 1de 25 24 10
4 1cb 1e0 27 12 12 11
4 27 1e0 1df 26 25 11
4 1cc 1e1 28 13 13 12
4 28 1e1 1e0 27 26 12
4 1cd 1e2 29 14 14 13
4 29 1e2 1e1 28 27 13
4 2a 1e3 1e2 29 28 14
4 1d0 1e5 2c 17 16 15
4 2c 1e5 1e4 2b 29 15
4 1d1 1e6 2d 18 17 16
4 2d 1e6 1e5 2c 2a 16
4 1d2 1e7 2e 19 18 17
4 2e 1e7 1e6 2d 2b 17
4 1d3 1e8 2f 1a 19 18
4 2f 1e8 1e7 2e 2c 18
4 1d4 1e9 30 1b 1a 19
4 30 1e9 1e8 2f 2d 19
4 1d5 1ea 31 1c 1b 1a
4 31 1ea 1e9 30 2e 1a
4 1d6 1eb 32 1d 1c 1b
4 32 1eb 1ea 31 2f 1b
4 1d7 1ec 33 1e 1d 1c
4 33 1ec 1eb 32 30 1c
4 1d8 1ed 34 1f 1e 1d
4 34 1ed 1ec 33 31 1d
4 1d9 1ee 35 20 1f 1e
4 35 1ee 1ed 34 32 1e
4 1da 1ef 36 21 20 1f
4 36 1ef 1ee 35 33 1f
4 1db 1f0 37 22 21 20
4 37 1f0 1ef 36 34 20
4 1dc 1f1 38 23 22 21
4 38 1f1 1f0 37 35 21
4 1dd 1f2 39 24 23 22
4 39 1f2 1f1 38 36 22
4 1de 1f3 3a 25 24 23
4 3a 1f3 1f2 39 37 23
4 1df 1f4 3b 26 25 24
4 3b 1f4 1f3 3a 38 24
4 1e0 1f5 3c 27 26 25
4 3c 1f5 1f4 3b 39 25
4 1e1 1f6 3d 28 27 26
4 3d 1f6 1f5 3c 3a 26
4 1e2 1f7 3e 29 28 27
4 3e 1f7 1f6 3d 3b 27
4 3f 1f8 1f7 3e 3c 28
4 1e5 1fa 41 2c 2a 29
4 41 1fa 1f9 40 3d 29
4 1e6 1fb 42 2d 2b 2a
4 42 1fb 1fa 41 3e 2a
4 1e7 1fc 43 2e 2c 2b
4 43 1fc 1fb 42 3f 2b
4 1e8 1fd 44 2f 2d 2c
4 44 1fd 1fc 43 40 2c
4 1e9 1fe 45 30 2e 2d
4 45 1fe 1fd 44 41 2d
4 1ea 1ff 46 31 2f 2e
4 46 1ff 1fe 45 42 2e
4 1eb 200 47 32 30 2f
4 47 200 1ff 46 43 2f
4 1ec 201 48 33 31 30
4 48 201 200 47 44 30
4 1ed 202 49 34 32 31
4 49 202 201 48 45 31
4 1ee 203 4a 35 33 32
4 4a 203 202 49 46 32
4 1ef 204 4b 36 34 33
4 4b 204 203 4a 47 33
4 1f0 205 4c 37 35 34
4 4c 205 204 4b 48 34
4 1f1 206 4d 38 36 35
4 4d 206 205 4c 49 35
4 1f2 207 4e 39 37 36
4 4e 207 206 4d 4a 36
4 1f3 208 4f 3a 38 37
4 4f 208 207 4e 4b 37
4 1f4 209 50 3b 39 38
4 50 209 208 4f 4c 38
4 1f5 20a 51 3c 3a 39
4 51 20a 209 50 4d 39
4 1f6 20b 52 3d 3b 3a
4 52 20b 20a 51 4e 3a
4 1f7 20c 53 3e 3c 3b
4 53 20c 20b 52 4f 3b
4 54 20d 20c 53 50 3c
4 1fa 20f 56 41 3e 3d
4 56 20f 20e 55 51 3d
4 1fb 210 57 42 3f 3e
4 57 210 20f 56 52 3e
4 1fc 211 58 43 40 3f
4 58 211 210 57 53 3f
4 1fd 212 59 44 41 40
4 59 212 211 58 54 40
4 1fe 213 5a 45 42 41
4 5a 213 212 59 55 41
4 1ff 214 5b 46 43 42
4 5b 214 213 5a 56 42
4 200 215 5c 47 44 43
4 5c 215 214 5b 57 43
4 201 216 5d 48 45 44
4 5d 216 215 5c 58 44
4 202 217 5e 49 46 45
4 5e 217 216 5d 59 45
4 203 218 5f 4a 47 46
4 5f 218 217 5e 5a 46
4 204 219 60 4b 48 47
4 60 219 218 5f 5b 47
4 205 21a 61 4c 49 48
4 61 21a 219 60 5c 48
4 206 21b 62 4d 4a 49
4 62 21b 21a 61 5d 49
4 207 21c 63 4e 4b 4a
4 63 21c 21b 62 5e 4a
4 208 21d 64 4f 4c 4b
4 64 21d 21c 63 5f 4b
4 209 21e 65 50 4d 4c
4 65 21e 21d 64 60 4c
4 20a 21f 66 51 4e 4d
4 66 21f 21e 65 61 4d
4 20b 220 67 52 4f 4e
4 67 220 21f 66 62 4e
4 20c 221 68 53 50 4f
4 68 221 220 67 63 4f
4 69 222 221 68 64 50
4 20f 224 6b 56 52 51
4 6b 224 223 6a 65 51
4 210 225 6c 57 53 52
4 6c 225 224 6b 66 52
4 211 226 6d 58 54 53
4 6d 226 225 6c 67 53
4 212 227 6e 59 55 54
4 6e 227 226 6d 68 54
4 213 228 6f 5a 56 55
4 6f 228 227 6e 69 55
4 214 229 70 5b 57 56
4 70 229 228 6f 6a 56
4 215 22a 71 5c 58 57
4 71 22a 229 70 6b 57
4 216 22b 72 5d 59 58
4 72 22b 22a 71 6c 58
4 217 22c 73 5e 5a 59
4 73 22c 22b 72 6d 59
4 218 22d 74 5f 5b 5a
4 74 22d 22c 73 6e 5a
4 219 22e 75 60 5c 5b
4 75 22e 22d 74 6f 5b
4 21a 22f 76 61 5d 5c
4 76 22f 22e 75 70 5c
4 21b 230 77 62 5e 5d
4 77 230 22f 76 71 5d
4 21c 231 78 63 5f 5e
4 78 231 230 77 72 5e
4 21d 232 79 64 60 5f
4 79 232 231 78 73 5f
4 21e 233 7a 65 61 60
4 7a 233 232 79 74 60
4 21f 234 7b 66 62 61
4 7b 234 233 7a 75 61
4 220 235 7c 67 63 62
4 7c 235 234 7b 76 62
4 221 236 7d 68 64 63
4 7d 236 235 7c 77 63
4 7e 237 236 7d 78 64
4 224 239 80 6b 66 65
4 80 239 238 7f 79 65
4 225 23a 81 6c 67 66
4 81 23a 239 80 7a 66
4 226 23b 82 6d 68 67
4 82 23b 23a 81 7b 67
4 227 23c 83 6e 69 68
4 83 23c 23b 82 7c 68
4 228 23d 84 6f 6a 69
4 84 23d 23c 83 7d 69
4 229 23e 85 70 6b 6a
4 85 23e 23d 84 7e 6a
4 22a 23f 86 71 6c 6b
4 86 23f 23e 85 7f 6b
4 22b 240 87 72 6d 6c
4 87 240 23f 86 80 6c
4 22c 241 88 73 6e 6d
4 88 241 240 87 81 6d
4 22d 242 89 74 6f 6e
4 89 242 241 88 82 6e
4 22e 243 8a 75 70 6f
4 8a 243 242 89 83 6f
4 22f 244 8b 76 71 70
4 8b 244 243 8a 84 70
4 230 245 8c 77 72 71
4 8c 245 244 8b 85 71
4 231 246 8d 78 73 72
4 8d 246 245 8c 86 72
4 232 247 8e 79 74 73
4 8e 247 246 8d 87 73
4 233 248 8f 7a 75 74
4 8f 248 247 8e 88 74
4 234 249 90 7b 76 75
4 90 249 248 8f 89 75
4 235 24a 91 7c 77 76
4 91 24a 249 90 8a 76
4 236 24b 92 7d 78 77
4 92 24b 24a 91 8b 77
4 93 24c 24b 92 8c 78
4 239 24e 95 80 7a 79
4 95 24e 24d 94 8d 79
4 23a 24f 96 81 7b 7a
4 96 24f 24e 95 8e 7a
4 23b 250 97 82 7c 7b
4 97 250 24f 96 8f 7b
4 23c 251 98 83 7d 7c
4 98 251 250 97 90 7c
4 23d 252 99 84 7e 7d
4 99 252 251 98 91 7d
4 23e 253 9a 85 7f 7e
4 9a 253 252 99 92 7e
4 23f 254 9b 86 80 7f
4 9b 254 253 9a 93 7f
4 240 255 9c 87 81 80
4 9c 255 254 9b 94 80
4 241 256 9d 88 82 81
4 9d 256 255 9c 95 81
4 242 257 9e 89 83 82
4 9e 257 256 9d 96 82
4 243 258 9f 8a 84 83
4 9f 258 257 9e 97 83
4 244 259 a0 8b 85 84
4 a0 259 258 9f 98 84
4 245 25a a1 8c 86 85
4 a1 25a 259 a0 99 85
4 246 25b a2 8d 87 86
4 a2 25b 25a a1 9a 86
4 247 25c a3 8e 88 87
4 a3 25c 25b a2 9b 87
4 248 25d a4 8f 89 88
4 a4 25d 25c a3 9c 88
4 249 25e a5 90 8a 89
4 a5 25e 25d a4 9d 89
4 24a 25f a6 91 8b 8a
4 a6 25f 25e a5 9e 8a
4 24b 260 a7 92 8c 8b
4 a7 260 25f a6 9f 8b
4 a8 261 260 a7 a0 8c
4 24e 263 aa 95 8e 8d
4 aa 263 262 a9 a1 8d
4 24f 264 ab 96 8f 8e
4 ab 264 263 aa a2 8e
4 250 265 ac 97 90 8f
4 ac 265 264 ab a3 8f
4 251 266 ad 98 91 90
4 ad 266 265 ac a4 90
4 252 267 ae 99 92 91
4 ae 267 266 ad a5 91
4 253 268 af 9a 93 92
4 af 268 267 ae a6 92
4 254 269 b0 9b 94 93
4 b0 269 268 af a7 93
4 255 26a b1 9c 95 94
4 b1 26a 269 b0 a8 94
4 256 26b b2 9d 96 95
4 b2 26b 26a b1 a9 95
4 257 26c b3 9e 97 96
4 b3 26c 26b b2 aa 96
4 258 26d b4 9f 98 97
4 b4 26d 26c b3 ab 97
4 259 26e b5 a0 99 98
4 b5 26e 26d b4 ac 98
4 25a 26f b6 a1 9a 99
4 b6 26f 26e b5 ad 99
4 25b 270 b7 a2 9b 9a
4 b7 270 26f b6 ae 9a
4 25c 271 b8 a3 9c 9b
4 b8 271 270 b7 af 9b
4 25d 272 b9 a4 9d 9c
4 b9 272 271 b8 b0 9c
4 25e 273 ba a5 9e 9d
4 ba 273 272 b9 b1 9d
4 25f 274 bb a6 9f 9e
4 bb 274 273 ba b2 9e
4 260 275 bc a7 a0 9f
4 bc 275 274 bb b3 9f
4 bd 276 275 bc b4 a0
4 263 278 bf aa a2 a1
4 bf 278 277 be b5 a1
4 264 279 c0 ab a3 a2
4 c0 279 278 bf b6 a2
4 265 27a c1 ac a4 a3
4 c1 27a 279 c0 b7 a3
4 266 27b c2 ad a5 a4
4 c2 27b 27a c1 b8 a4
4 267 27c c3 ae a6 a5
4 c3 27c 27b c2 b9 a5
4 268 27d c4 af a7 a6
4 c4 27d 27c c3 ba a6
4 269 27e c5 b0 a8 a7
4 c5 27e 27d c4 bb a7
4 26a 27f c6 b1 a9 a8
4 c6 27f 27e c5 bc a8
4 26b 280 c7 b2 aa a9
4 c7 280 27f c6 bd a9
4 26c 281 c8 b3 ab aa
4 c8 281 280 c7 be aa
4 26d 282 c9 b4 ac ab
4 c9 282 281 c8 bf ab
4 26e 283 ca b5 ad ac
4 ca 283 282 c9 c0 ac
4 26f 284 cb b6 ae ad
4 cb 284 283 ca c1 ad
4 270 285 cc b7 af ae
4 cc 285 284 cb c2 ae
4 271 286 cd b8 b0 af
4 cd 286 285 cc c3 af
4 272 287 ce b9 b1 b0
4 ce 287 286 cd c4 b0
4 273 288 cf ba b2 b1
4 cf 288 287 ce c5 b1
4 274 289 d0 bb b3 b2
4 d0 289 288 cf c6 b2
4 275 28a d1 bc b4 b3
4 d1 28a 289 d0 c7 b3
4 d2 28b 28a d1 c8 b4
4 278 28d d4 bf b6 b5
4 d4 28d 28c d3 c9 b5
4 279 28e d5 c0 b7 b6
4 d5 28e 28d d4 ca b6
4 27a 28f d6 c1 b8 b7
4 d6 28f 28e d5 cb b7
4 27b 290 d7 c2 b9 b8
4 d7 290 28f d6 cc b8
4 27c 291 d8 c3 ba b9
4 d8 291 290 d7 cd b9
4 27d 292 d9 c4 bb ba
4 d9 292 291 d8 ce ba
4 27e 293 da c5 bc bb
4 da 293 292 d9 cf bb
4 27f 294 db c6 bd bc
4 db 294 293 da d0 bc
4 280 295 dc c7 be bd
4 dc 295 294 db d1 bd
4 281 296 dd c8 bf be
4 dd 296 295 dc d2 be
4 282 297 de c9 c0 bf
4 de 297 296 dd d3 bf
4 283 298 df ca c1 c0
4 df 298 297 de d4 c0
4 284 299 e0 cb c2 c1
4 e0 299 298 df d5 c1
4 285 29a e1 cc c3 c2
4 e1 29a 299 e0 d6 c2
4 286 29b e2 cd c4 c3
4 e2 29b 29a e1 d7 c3
4 287 29c e3 ce c5 c4
4 e3 29c 29b e2 d8 c4
4 288 29d e4 cf c6 c5
4 e4 29d 29c e3 d9 c5
4 289 29e e5 d0 c7 c6
4 e5 29e 29d e4 da c6
4 28a 29f e6 d1 c8 c7
4 e6 29f 29e e5 db c7
4 e7 2a0 29f e6 dc c8
4 28d 2a2 e9 d4 ca c9
4 e9 2a2 2a1 e8 dd c9
4 28e 2a3 ea d5 cb ca
4 ea 2a3 2a2 e9 de ca
4 28f 2a4 eb d6 cc cb
4 eb 2a4 2a3 ea df cb
4 290 2a5 ec d7 cd cc
4 ec 2a5 2a4 eb e0 cc
4 291 2a6 ed d8 ce cd
4 ed 2a6 2a5 ec e1 cd
4 292 2a7 ee d9 cf ce
4 ee 2a7 2a6 ed e2 ce
4 293 2a8 ef da d0 cf
4 ef 2a8 2a7 ee e3 cf
4 294 2a9 f0 db d1 d0
4 f0 2a9 2a8 ef e4 d0
4 295 2aa f1 dc d2 d1
4 f1 2aa 2a9 f0 e5 d1
4 296 2ab f2 dd d3 d2
4 f2 2ab 2aa f1 e6 d2
4 297 2ac f3 de d4 d3
4 f3 2ac 2ab f2 e7 d3
4 298 2ad f4 df d5 d4
4 f4 2ad 2ac f3 e8 d4
4 299 2ae f5 e0 d6 d5
4 f5 2ae 2ad f4 e9 d5
4 29a 2af f6 e1 d7 d6
4 f6 2af 2ae f5 ea d6
4 29b 2b0 f7 e2 d8 d7
4 f7 2b0 2af f6 eb d7
4 29c 2b1 f8 e3 d9 d8
4 f8 2b1 2b0 f7 ec d8
4 29d 2b2 f9 e4 da d9
4 f9 2b2 2b1 f8 ed d9
4 29e 2b3 fa e5 db da
4 fa 2b3 2b2 f9 ee da
4 29f 2b4 fb e6 dc db
4 fb 2b4 2b3 fa ef db
4 fc 2b5 2b4 fb f0 dc
4 2a2 2b7 fe e9 de dd
4 fe 2b7 2b6 fd f1 dd
4 2a3 2b8 ff ea df de
4 ff 2b8 2b7 fe f2 de
4 2a4 2b9 100 eb e0 df
4 100 2b9 2b8 ff f3 df
4 2a5 2ba 101 ec e1 e0
4 101 2ba 2b9 100 f4 e0
4 2a6 2bb 102 ed e2 e1
4 102 2bb 2ba 101 f5 e1
4 2a7 2bc 103 ee e3 e2
4 103 2bc 2bb 102 f6 e2
4 2a8 2bd 104 ef e4 e3
4 104 2bd 2bc 103 f7 e3
4 2a9 2be 105 f0 e5 e4
4 105 2be 2bd 104 f8 e4
4 2aa 2bf 106 f1 e6 e5
4 106 2bf 2be 105 f9 e5
4 2ab 2c0 107 f2 e7 e6
4 107 2c0 2bf 106 fa e6
4 2ac 2c1 108 f3 e8 e7
4 108 2c1 2c0 107 fb e7
4 2ad 2c2 109 f4 e9 e8
4 109 2c2 2c1 108 fc e8
4 2ae 2c3 10a f5 ea e9
4 10a 2c3 2c2 109 fd e9
4 2af 2c4 10b f6 eb ea
4 10b 2c4 2c3 10a fe ea
4 2b0 2c5 10c f7 ec eb
4 10c 2c5 2c4 10b ff eb
4 2b1 2c6 10d f8 ed ec
4 10d 2c6 2c5 10c 100 ec
4 2b2 2c7 10e f9 ee ed
4 10e 2c7 2c6 10d 101 ed
4 2b3 2c8 10f fa ef ee
4 10f 2c8 2c7 10e 102 ee
4 2b4 2c9 110 fb f0 ef
4 110 2c9 2c8 10f 103 ef
4 111 2ca 2c9 110 104 f0
4 2b7 2cc 113 fe f2 f1
4 113 2cc 2cb 112 105 f1
4 2b8 2cd 114 ff f3 f2
4 114 2cd 2cc 113 106 f2
4 2b9 2ce 115 100 f4 f3
4 115 2ce 2cd 114 107 f3
4 2ba 2cf 116 101 f5 f4
4 116 2cf 2ce 115 108 f4
4 2bb 2d0 117 102 f6 f5
4 117 2d0 2cf 116 109 f5
4 2bc 2d1 118 103 f7 f6
4 118 2d1 2d0 117 10a f6
4 2bd 2d2 119 104 f8 f7
4 119 2d2 2d1 118 10b f7
4 2be 2d3 11a 105 f9 f8
4 11a 2d3 2d2 119 10c f8
4 2bf 2d4 11b 106 fa f9
4 11b 2d4 2d3 11a 10d f9
4 2c0 2d5 11c 107 fb fa
4 11c 2d5 2d4 11b 10e fa
4 2c1 2d6 11d 108 fc fb
4 11d 2d6 2d5 11c 10f fb
4 2c2 2d7 11e 109 fd fc
4 11e 2d7 2d6 11d 110 fc
4 2c3 2d8 11f 10a fe fd
4 11f 2d8 2d7 11e 111 fd
4 2c4 2d9 120 10b ff fe
4 120 2d9 2d8 11f 112 fe
4 2c5 2da 121 10c 100 ff
4 121 2da 2d9 120 113 ff
4 2c6 2db 122 10d 101 100
4 122 2db 2da 121 114 100
4 2c7 2dc 123 10e 102 101
4 123 2dc 2db 122 115 101
4 2c8 2dd 124 10f 103 102
4 124 2dd 2dc 123 116 102
4 2c9 2de 125 110 104 103
4 125 2de 2dd 124 117 103
4 126 2df 2de 125 118 104
4 2cc 2e1 128 113 106 105
4 128 2e1 2e0 127 119 105
4 2cd 2e2 129 114 107 106
4 129 2e2 2e1 128 11a 106
4 2ce 2e3 12a 115 108 107
4 12a 2e3 2e2 129 11b 107
4 2cf 2e4 12b 116 109 108
4 12b 2e4 2e3 12a 11c 108
4 2d0 2e5 12c 117 10a 109
4 12c 2e5 2e4 12b 11d 109
4 2d1 2e6 12d 118 10b 10a
4 12d 2e6 2e5 12c 11e 10a
4 2d2 2e7 12e 119 10c 10b
4 12e 2e7 2e6 12d 11f 10b
4 2d3 2e8 12f 11a 10d 10c
4 12f 2e8 2e7 12e 120 10c
4 2d4 2e9 130 11b 10e 10d
4 130 2e9 2e8 12f 121 10d
4 2d5 2ea 131 11c 10f 10e
4 131 2ea 2e9 130 122 10e
4 2d6 2eb 132 11d 110 10f
4 132 2eb 2ea 131 123 10f
4 2d7 2ec 133 11e 111 110
4 133 2ec 2eb 132 124 110
4 2d8 2ed 134 11f 112 111
4 134 2ed 2ec 133 125 111
4 2d9 2ee 135 120 113 112
4 135 2ee 2ed 134 126 112
4 2da 2ef 136 121 114 113
4 136 2ef 2ee 135 127 113
4 2db 2f0 137 122 115 114
4 137 2f0 2ef 136 128 114
4 2dc 2f1 138 123 116 115
4 138 2f1 2f0 137 129 115
4 2dd 2f2 139 124 117 116
4 139 2f2 2f1 138 12a 116
4 2de 2f3 13a 125 118 117
4 13a 2f3 2f2 139 12b 117
4 13b 2f4 2f3 13a 12c 118
4 2e1 2f6 13d 128 11a 119
4 13d 2f6 2f5 13c 12d 119
4 2e2 2f7 13e 129 11b 11a
4 13e 2f7 2f6 13d 12e 11a
4 2e3 2f8 13f 12a 11c 11b
4 13f 2f8 2f7 13e 12f 11b
4 2e4 2f9 140 12b 11d 11c
4 140 2f9 2f8 13f 130 11c
4 2e5 2fa 141 12c 11e 11d
4 141 2fa 2f9 140 131 11d
4 2e6 2fb 142 12d 11f 11e
4 142 2fb 2fa 141 132 11e
4 2e7 2fc 143 12e 120 11f
4 143 2fc 2fb 142 133 11f
4 2e8 2fd 144 12f 121 120
4 144 2fd 2fc 143 134 120
4 2e9 2fe 145 130 122 121
4 145 2fe 2fd 144 135 121
4 2ea 2ff 146 131 123 122
4 146 2ff 2fe 145 136 122
4 2eb 300 147 132 124 123
4 147 300 2ff 146 137 123
4 2ec 301 148 133 125 124
4 148 301 300 147 138 124
4 2ed 302 149 134 126 125
4 149 302 301 148 139 125
4 2ee 303 14a 135 127 126
4 14a 303 302 149 13a 126
4 2ef 304 14b 136 128 127
4 14b 304 303 14a 13b 127
4 2f0 305 14c 137 129 128
4 14c 305 304 14b 13c 128
4 2f1 306 14d 138 12a 129
4 14d 306 305 14c 13d 129
4 2f2 307 14e 139 12b 12a
4 14e 307 306 14d 13e 12a
4 2f3 308 14f 13a 12c 12b
4 14f 308 307 14e 13f 12b
4 150 309 308 14f 140 12c
4 2f6 30b 152 13d 12e 12d
4 152 30b 30a 151 141 12d
4 2f7 30c 153 13e 12f 12e
4 153 30c 30b 152 142 12e
4 2f8 30d 154 13f 130 12f
4 154 30d 30c 153 143 12f
4 2f9 30e 155 140 131 130
4 155 30e 30d 154 144 130
4 2fa 30f 156 141 132 131
4 156 30f 30e 155 145 131
4 2fb 310 157 142 133 132
4 157 310 30f 156 146 132
4 2fc 311 158 143 134 133
4 158 311 310 157 147 133
4 2fd 312 159 144 135 134
4 159 312 311 158 148 134
4 2fe 313 15a 145 136 135
4 15a 313 312 159 149 135
4 2ff 314 15b 146 137 136
4 15b 314 313 15a 14a 136
4 300 315 15c 147 138 137
4 15c 315 314 15b 14b 137
4 301 316 15d 148 139 138
4 15d 316 315 15c 14c 138
4 302 317 15e 149 13a 139
4 15e 317 316 15d 14d 139
4 303 318 15f 14a 13b 13a
4 15f 318 317 15e 14e 13a
4 304 319 160 14b 13c 13b
4 160 319 318 15f 14f 13b
4 305 31a 161 14c 13d 13c
4 161 31a 319 160 150 13c
4 306 31b 162 14d 13e 13d
4 162 31b 31a 161 151 13d
4 307 31c 163 14e 13f 13e
4 163 31c 31b 162 152 13e
4 308 31d 164 14f 140 13f
4 164 31d 31c 163 153 13f
4 165 31e 31d 164 154 140
4 30b 320 167 152 142 141
4 167 320 31f 166 155 141
4 30c 321 168 153 143 142
4 168 321 320 167 156 142
4 30d 322 169 154 144 143
4 169 322 321 168 157 143
4 30e 323 16a 155 145 144
4 16a 323 322 169 158 144
4 30f 324 16b 156 146 145
4 16b 324 323 16a 159 145
4 310 325 16c 157 147 146
4 16c 325 324 16b 15a 146
4 311 326 16d 158 148 147
4 16d 326 325 16c 15b 147
4 312 327 16e 159 149 148
4 16e 327 326 16d 15c 148
4 313 328 16f 15a 14a 149
4 16f 328 327 16e 15d 149
4 314 329 170 15b 14b 14a
4 170 329 328 16f 15e 14a
4 315 32a 171 15c 14c 14b
4 171 32a 329 170 15f 14b
4 316 32b 172 15d 14d 14c
4 172 32b 32a 171 160 14c
4 317 32c 173 15e 14e 14d
4 173 32c 32b 172 161 14d
4 318 32d 174 15f 14f 14e
4 174 32d 32c 173 162 14e
4 319 32e 175 160 150 14f
4 175 32e 32d 174 163 14f
4 31a 32f 176 161 151 150
4 176 32f 32e 175 164 150
4 31b 330 177 162 152 151
4 177 330 32f 176 165 151
4 31c 331 178 163 153 152
4 178 331 330 177 166 152
4 31d 332 179 164 154 153
4 179 332 331 178 167 153
4 17a 333 332 179 168 154
4 320 335 17c 167 156 155
4 17c 335 334 17b 169 155
4 321 336 17d 168 157 156
4 17d 336 335 17c 16a 156
4 322 337 17e 169 158 157
4 17e 337 336 17d 16b 157
4 323 338 17f 16a 159 158
4 17f 338 337 17e 16c 158
4 324 339 180 16b 15a 159
4 180 339 338 17f 16d 159
4 325 33a 181 16c 15b 15a
4 181 33a 339 180 16e 15a
4 326 33b 182 16d 15c 15b
4 182 33b 33a 181 16f 15b
4 327 33c 183 16e 15d 15c
4 183 33c 33b 182 170 15c
4 328 33d 184 16f 15e 15d
4 184 33d 33c 183 171 15d
4 329 33e 185 170 15f 15e
4 185 33e 33d 184 172 15e
4 32a 33f 186 171 160 15f
4 186 33f 33e 185 173 15f
4 32b 340 187 172 161 160
4 187 340 33f 186 174 160
4 32c 341 188 173 162 161
4 188 341 340 187 175 161
4 32d 342 189 174 163 162
4 189 342 341 188 176 162
4 32e 343 18a 175 164 163
4 18a 343 342 189 177 163
4 32f 344 18b 176 165 164
4 18b 344 343 18a 178 164
4 330 345 18c 177 166 165
4 18c 345 344 18b 179 165
4 331 346 18d 178 167 166
4 18d 346 345 18c 17a 166
4 332 347 18e 179 168 167
4 18e 347 346 18d 17b 167
4 18f 348 347 18e 17c 168
4 335 34a 191 17c 16a 169
4 191 34a 349 190 17d 169
4 336 34b 192 17d 16b 16a
4 192 34b 34a 191 17e 16a
4 337 34c 193 17e 16c 16b
4 193 34c 34b 192 17f 16b
4 338 34d 194 17f 16d 16c
4 194 34d 34c 193 180 16c
4 339 34e 195 180 16e 16d
4 195 34e 34d 194 181 16d
4 33a 34f 196 181 16f 16e
4 196 34f 34e 195 182 16e
4 33b 350 197 182 170 16f
4 197 350 34f 196 183 16f
4 33c 351 198 183 171 170
4 198 351 350 197 184 170
4 33d 352 199 184 172 171
4 199 352 351 198 185 171
4 33e 353 19a 185 173 172
4 19a 353 352 199 186 172
4 33f 354 19b 186 174 173
4 19b 354 353 19a 187 173
4 340 355 19c 187 175 174
4 19c 355 354 19b 188 174
4 341 356 19d 188 176 175
4 19d 356 355 19c 189 175
4 342 357 19e 189 177 176
4 19e 357 356 19d 18a 176
4 343 358 19f 18a 178 177
4 19f 358 357 19e 18b 177
4 344 359 1a0 18b 179 178
4 1a0 359 358 19f 18c 178
4 345 35a 1a1 18c 17a 179
4 1a1 35a 359 1a0 18d 179
4 346 35b 1a2 18d 17b 17a
4 1a2 35b 35a 1a1 18e 17a
4 347 35c 1a3 18e 17c 17b
4 1a3 35c 35b 1a2 18f 17b
4 1a4 35d 35c 1a3 190 17c
4 34a 35f 1a6 191 17e 17d
4 34b 360 1a7 192 17f 17e
4 34c 361 1a8 193 180 17f
4 34d 362 1a9 194 181 180
4 34e 363 1aa 195 182 181
4 34f 364 1ab 196 183 182
4 350 365 1ac 197 184 183
4 351 366 1ad 198 185 184
4 352 367 1ae 199 186 185
4 353 368 1af 19a 187 186
4 354 369 1b0 19b 188 187
4 355 36a 1b1 19c 189 188
4 356 36b 1b2 19d 18a 189
4 357 36c 1b3 19e 18b 18a
4 358 36d 1b4 19f 18c 18b
4 359 36e 1b5 1a0 18d 18c
4 35a 36f 1b6 1a1 18e 18d
4 35b 370 1b7 1a2 18f 18e
4 35c 371 1b8 1a3 190 18f
))
(13 (4 2f9 30c 3 0)(
4 1a6 35f 35e 1a5 17d 0
4 1a7 360 35f 1a6 17e 0
4 1a8 361 360 1a7 17f 0
4 1a9 362 361 1a8 180 0
4 1aa 363 362 1a9 181 0
4 1ab 364 363 1aa 182 0
4 1ac 365 364 1ab 183 0
4 1ad 366 365 1ac 184 0
4 1ae 367 366 1ad 185 0
4 1af 368 367 1ae 186 0
4 1b0 369 368 1af 187 0
4 1b1 36a 369 1b0 188 0
4 1b2 36b 36a 1b1 189 0
4 1b3 36c 36b 1b2 18a 0
4 1b4 36d 36c 1b3 18b 0
4 1b5 36e 36d 1b4 18c 0
4 1b6 36f 36e 1b5 18d 0
4 1b7 370 36f 1b6 18e 0
4 1b8 371 370 1b7 18f 0
4 1b9 372 371 1b8 190 0
))
(13 (5 30d 320 3 0)(
4 16 1cf 1ba 1 1 0
4 2b 1e4 1cf 16 15 0
4 40 1f9 1e4 2b 29 0
4 55 20e 1f9 40 3d 0
4 6a 223 20e 55 51 0
4 7f 238 223 6a 65 0
4 94 24d 238 7f 79 0
4 a9 262 24d 94 8d 0
4 be 277 262 a9 a1 0
4 d3 28c 277 be b5 0
4 e8 2a1 28c d3 c9 0
4 fd 2b6 2a1 e8 dd 0
4 112 2cb 2b6 fd f1 0
4 127 2e0 2cb 112 105 0
4 13c 2f5 2e0 127 119 0
4 151 30a 2f5 13c 12d 0
4 166 31f 30a 151 141 0
4 17b 334 31f 166 155 0
4 190 349 334 17b 169 0
4 1a5 35e 349 190 17d 0
))
(13 (6 321 334 3 0)(
4 1ce 1e3 2a 15 14 0
4 1e3 1f8 3f 2a 28 0
4 1f8 20d 54 3f 3c 0
4 20d 222 69 54 50 0
4 222 237 7e 69 64 0
4 237 24c 93 7e 78 0
4 24c 261 a8 93 8c 0
4 261 276 bd a8 a0 0
4 276 28b d2 bd b4 0
4 28b 2a0 e7 d2 c8 0
4 2a0 2b5 fc e7 dc 0
4 2b5 2ca 111 fc f0 0
4 2ca 2df 126 111 104 0
4 2df 2f4 13b 126 118 0
4 2f4 309 150 13b 12c 0
4 309 31e 165 150 140 0
4 31e 333 17a 165 154 0
4 333 348 18f 17a 168 0
4 348 35d 1a4 18f 17c 0
4 35d 372 1b9 1a4 190 0
))
(13 (7 335 348 3 0)(
4 1ba 1bb 2 1 1 0
4 1bb 1bc 3 2 2 0
4 1bc 1bd 4 3 3 0
4 1bd 1be 5 4 4 0
4 1be 1bf 6 5 5 0
4 1bf 1c0 7 6 6 0
4 1c0 1c1 8 7 7 0
4 1c1 1c2 9 8 8 0
4 1c2 1c3 a 9 9 0
4 1c3 1c4 b a a 0
4 1c4 1c5 c b b 0
4 1c5 1c6 d c c 0
4 1c6 1c7 e d d 0
4 1c7 1c8 f e e 0
4 1c8 1c9 10 f f 0
4 1c9 1ca 11 10 10 0
4 1ca 1cb 12 11 11 0
4 1cb 1cc 13 12 12 0
4 1cc 1cd 14 13 13 0
4 1cd 1ce 15 14 14 0
))
(13 (8 349 668 3 0)(
4 2 17 16 1 1 0
4 17 2c 2b 16 15 0
4 2c 41 40 2b 29 0
4 41 56 55 40 3d 0
4 56 6b 6a 55 51 0
4 6b 80 7f 6a 65 0
4 80 95 94 7f 79 0
4 95 aa a9 94 8d 0
4 aa bf be a9 a1 0
4 bf d4 d3 be b5 0
4 d4 e9 e8 d3 c9 0
4 e9 fe fd e8 dd 0
4 fe 113 112 fd f1 0
4 113 128 127 112 105 0
4 128 13d 13c 127 119 0
4 13d 152 151 13c 12d 0
4 152 167 166 151 141 0
4 167 17c 17b 166 155 0
4 17c 191 190 17b 169 0
4 191 1a6 1a5 190 17d 0
4 3 18 17 2 2 0
4 18 2d 2c 17 16 0
4 2d 42 41 2c 2a 0
4 42 57 56 41 3e 0
4 57 6c 6b 56 52 0
4 6c 81 80 6b 66 0
4 81 96 95 80 7a 0
4 96 ab aa 95 8e 0
4 ab c0 bf aa a2 0
4 c0 d5 d4 bf b6 0
4 d5 ea e9 d4 ca 0
4 ea ff fe e9 de 0
4 ff 114 113 fe f2 0
4 114 129 128 113 106 0
4 129 13e 13d 128 11a 0
4 13e 153 152 13d 12e 0
4 153 168 167 152 142 0
4 168 17d 17c 167 156 0
4 17d 192 191 17c 16a 0
4 192 1a7 1a6 191 17e 0
4 4 19 18 3 3 0
4 19 2e 2d 18 17 0
4 2e 43 42 2d 2b 0
4 43 58 57 42 3f 0
4 58 6d 6c 57 53 0
4 6d 82 81 6c 67 0
4 82 97 96 81 7b 0
4 97 ac ab 96 8f 0
4 ac c1 c0 ab a3 0
4 c1 d6 d5 c0 b7 0
4 d6 eb ea d5 cb 0
4 eb 100 ff ea df 0
4 100 115 114 ff f3 0
4 115 12a 129 114 107 0
4 12a 13f 13e 129 11b 0
4 13f 154 153 13e 12f 0
4 154 169 168 153 143 0
4 169 17e 17d 168 157 0
4 17e 193 192 17d 16b 0
4 193 1a8 1a7 192 17f 0
4 5 1a 19 4 4 0
4 1a 2f 2e 19 18 0
4 2f 44 43 2e 2c 0
4 44 59 58 43 40 0
4 59 6e 6d 58 54 0
4 6e 83 82 6d 68 0
4 83 98 97 82 7c 0
4 98 ad ac 97 90 0
4 ad c2 c1 ac a4 0
4 c2 d7 d6 c1 b8 0
4 d7 ec eb d6 cc 0
4 ec 101 100 eb e0 0
4 101 116 115 100 f4 0
4 116 12b 12a 115 108 0
4 12b 140 13f 12a 11c 0
4 140 155 154 13f 130 0
4 155 16a 169 154 144 0
4 16a 17f 17e 169 158 0
4 17f 194 193 17e 16c 0
4 194 1a9 1a8 193 180 0
4 6 1b 1a 5 5 0
4 1b 30 2f 1a 19 0
4 30 45 44 2f 2d 0
4 45 5a 59 44 41 0
4 5a 6f 6e 59 55 0
4 6f 84 83 6e 69 0
4 84 99 98 83 7d 0
4 99 ae ad 98 91 0
4 ae c3 c2 ad a5 0
4 c3 d8 d7 c2 b9 0
4 d8 ed ec d7 cd 0
4 ed 102 101 ec e1 0
4 102 117 116 101 f5 0
4 117 12c 12b 116 109 0
4 12c 141 140 12b 11d 0
4 141 156 155 140 131 0
4 156 16b 16a 155 145 0
4 16b 180 17f 16a 159 0
4 180 195 194 17f 16d 0
4 195 1aa 1a9 194 181 0
4 7 1c 1b 6 6 0
4 1c 31 30 1b 1a 0
4 31 46 45 30 2e 0
4 46 5b 5a 45 42 0
4 5b 70 6f 5a 56 0
4 70 85 84 6f 6a 0
4 85 9a 99 84 7e 0
4 9a af ae 99 92 0
4 af c4 c3 ae a6 0
4 c4 d9 d8 c3 ba 0
4 d9 ee ed d8 ce 0
4 ee 103 102 ed e2 0
4 103 118 117 102 f6 0
4 118 12d 12c 117 10a 0
4 12d 142 141 12c 11e 0
4 142 157 156 141 132 0
4 157 16c 16b 156 146 0
4 16c 181 180 16b 15a 0
4 181 196 195 180 16e 0
4 196 1ab 1aa 195 182 0
4 8 1d 1c 7 7 0
4 1d 32 31 1c 1b 0
4 32 47 46 31 2f 0
4 47 5c 5b 46 43 0
4 5c 71 70 5b 57 0
4 71 86 85 70 6b 0
4 86 9b 9a 85 7f 0
4 9b b0 af 9a 93 0
4 b0 c5 c4 af a7 0
4 c5 da d9 c4 bb 0
4 da ef ee d9 cf 0
4 ef 104 103 ee e3 0
4 104 119 118 103 f7 0
4 119 12e 12d 118 10b 0
4 12e 143 142 12d 11f 0
4 143 158 157 142 133 0
4 158 16d 16c 157 147 0
4 16d 182 181 16c 15b 0
4 182 197 196 181 16f 0
4 197 1ac 1ab 196 183 0
4 9 1e 1d 8 8 0
4 1e 33 32 1d 1c 0
4 33 48 47 32 30 0
4 48 5d 5c 47 44 0
4 5d 72 71 5c 58 0
4 72 87 86 71 6c 0
4 87 9c 9b 86 80 0
4 9c b1 b0 9b 94 0
4 b1 c6 c5 b0 a8 0
4 c6 db da c5 bc 0
4 db f0 ef da d0 0
4 f0 105 104 ef e4 0
4 105 11a 119 104 f8 0
4 11a 12f 12e 119 10c 0
4 12f 144 143 12e 120 0
4 144 159 158 143 134 0
4 159 16e 16d 158 148 0
4 16e 183 182 16d 15c 0
4 183 198 197 182 170 0
4 198 1ad 1ac 197 184 0
4 a 1f 1e 9 9 0
4 1f 34 33 1e 1d 0
4 34 49 48 33 31 0
4 49 5e 5d 48 45 0
4 5e 73 72 5d 59 0
4 73 88 87 72 6d 0
4 88 9d 9c 87 81 0
4 9d b2 b1 9c 95 0
4 b2 c7 c6 b1 a9 0
4 c7 dc db c6 bd 0
4 dc f1 f0 db d1 0
4 f1 106 105 f0 e5 0
4 106 11b 11a 105 f9 0
4 11b 130 12f 11a 10d 0
4 130 145 144 12f 121 0
4 145 15a 159 144 135 0
4 15a 16f 16e 159 149 0
4 16f 184 183 16e 15d 0
4 184 199 198 183 171 0
4 199 1ae 1ad 198 185 0
4 b 20 1f a a 0
4 20 35 34 1f 1e 0
4 35 4a 49 34 32 0
4 4a 5f 5e 49 46 0
4 5f 74 73 5e 5a 0
4 74 89 88 73 6e 0
4 89 9e 9d 88 82 0
4 9e b3 b2 9d 96 0
4 b3 c8 c7 b2 aa 0
4 c8 dd dc c7 be 0
4 dd f2 f1 dc d2 0
4 f2 107 106 f1 e6 0
4 107 11c 11b 106 fa 0
4 11c 131 130 11b 10e 0
4 131 146 145 130 122 0
4 146 15b 15a 145 136 0
4 15b 170 16f 15a 14a 0
4 170 185 184 16f 15e 0
4 185 19a 199 184 172 0
4 19a 1af 1ae 199 186 0
4 c 21 20 b b 0
4 21 36 35 20 1f 0
4 36 4b 4a 35 33 0
4 4b 60 5f 4a 47 0
4 60 75 74 5f 5b 0
4 75 8a 89 74 6f 0
4 8a 9f 9e 89 83 0
4 9f b4 b3 9e 97 0
4 b4 c9 c8 b3 ab 0
4 c9 de dd c8 bf 0
4 de f3 f2 dd d3 0
4 f3 108 107 f2 e7 0
4 108 11d 11c 107 fb 0
4 11d 132 131 11c 10f 0
4 132 147 146 131 123 0
4 147 15c 15b 146 137 0
4 15c 171 170 15b 14b 0
4 171 186 185 170 15f 0
4 186 19b 19a 185 173 0
4 19b 1b0 1af 19a 187 0
4 d 22 21 c c 0
4 22 37 36 21 20 0
4 37 4c 4b 36 34 0
4 4c 61 60 4b 48 0
4 61 76 75 60 5c 0
4 76 8b 8a 75 70 0
4 8b a0 9f 8a 84 0
4 a0 b5 b4 9f 98 0
4 b5 ca c9 b4 ac 0
4 ca df de c9 c0 0
4 df f4 f3 de d4 0
4 f4 109 108 f3 e8 0
4 109 11e 11d 108 fc 0
4 11e 133 132 11d 110 0
4 133 148 147 132 124 0
4 148 15d 15c 147 138 0
4 15d 172 171 15c 14c 0
4 172 187 186 171 160 0
4 187 19c 19b 186 174 0
4 19c 1b1 1b0 19b 188 0
4 e 23 22 d d 0
4 23 38 37 22 21 0
4 38 4d 4c 37 35 0
4 4d 62 61 4c 49 0
4 62 77 76 61 5d 0
4 77 8c 8b 76 71 0
4 8c a1 a0 8b 85 0
4 a1 b6 b5 a0 99 0
4 b6 cb ca b5 ad 0
4 cb e0 df ca c1 0
4 e0 f5 f4 df d5 0
4 f5 10a 109 f4 e9 0
4 10a 11f 11e 109 fd 0
4 11f 134 133 11e 111 0
4 134 149 148 133 125 0
4 149 15e 15d 148 139 0
4 15e 173 172 15d 14d 0
4 173 188 187 172 161 0
4 188 19d 19c 187 175 0
4 19d 1b2 1b1 19c 189 0
4 f 24 23 e e 0
4 24 39 38 23 22 0
4 39 4e 4d 38 36 0
4 4e 63 62 4d 4a 0
4 63 78 77 62 5e 0
4 78 8d 8c 77 72 0
4 8d a2 a1 8c 86 0
4 a2 b7 b6 a1 9a 0
4 b7 cc cb b6 ae 0
4 cc e1 e0 cb c2 0
4 e1 f6 f5 e0 d6 0
4 f6 10b 10a f5 ea 0
4 10b 120 11f 10a fe 0
4 120 135 134 11f 112 0
4 135 14a 149 134 126 0
4 14a 15f 15e 149 13a 0
4 15f 174 173 15e 14e 0
4 174 189 188 173 162 0
4 189 19e 19d 188 176 0
4 19e 1b3 1b2 19d 18a 0
4 10 25 24 f f 0
4 25 3a 39 24 23 0
4 3a 4f 4e 39 37 0
4 4f 64 63 4e 4b 0
4 64 79 78 63 5f 0
4 79 8e 8d 78 73 0
4 8e a3 a2 8d 87 0
4 a3 b8 b7 a2 9b 0
4 b8 cd cc b7 af 0
4 cd e2 e1 cc c3 0
4 e2 f7 f6 e1 d7 0
4 f7 10c 10b f6 eb 0
4 10c 121 120 10b ff 0
4 121 136 135 120 113 0
4 136 14b 14a 135 127 0
4 14b 160 15f 14a 13b 0
4 160 175 174 15f 14f 0
4 175 18a 189 174 163 0
4 18a 19f 19e 189 177 0
4 19f 1b4 1b3 19e 18b 0
4 11 26 25 10 10 0
4 26 3b 3a 25 24 0
4 3b 50 4f 3a 38 0
4 50 65 64 4f 4c 0
4 65 7a 79 64 60 0
4 7a 8f 8e 79 74 0
4 8f a4 a3 8e 88 0
4 a4 b9 b8 a3 9c 0
4 b9 ce cd b8 b0 0
4 ce e3 e2 cd c4 0
4 e3 f8 f7 e2 d8 0
4 f8 10d 10c f7 ec 0
4 10d 122 121 10c 100 0
4 122 137 136 121 114 0
4 137 14c 14b 136 128 0
4 14c 161 160 14b 13c 0
4 161 176 175 160 150 0
4 176 18b 18a 175 164 0
4 18b 1a0 19f 18a 178 0
4 1a0 1b5 1b4 19f 18c 0
4 12 27 26 11 11 0
4 27 3c 3b 26 25 0
4 3c 51 50 3b 39 0
4 51 66 65 50 4d 0
4 66 7b 7a 65 61 0
4 7b 90 8f 7a 75 0
4 90 a5 a4 8f 89 0
4 a5 ba b9 a4 9d 0
4 ba cf ce b9 b1 0
4 cf e4 e3 ce c5 0
4 e4 f9 f8 e3 d9 0
4 f9 10e 10d f8 ed 0
4 10e 123 122 10d 101 0
4 123 138 137 122 115 0
4 138 14d 14c 137 129 0
4 14d 162 161 14c 13d 0
4 162 177 176 161 151 0
4 177 18c 18b 176 165 0
4 18c 1a1 1a0 18b 179 0
4 1a1 1b6 1b5 1a0 18d 0
4 13 28 27 12 12 0
4 28 3d 3c 27 26 0
4 3d 52 51 3c 3a 0
4 52 67 66 51 4e 0
4 67 7c 7b 66 62 0
4 7c 91 90 7b 76 0
4 91 a6 a5 90 8a 0
4 a6 bb ba a5 9e 0
4 bb d0 cf ba b2 0
4 d0 e5 e4 cf c6 0
4 e5 fa f9 e4 da 0
4 fa 10f 10e f9 ee 0
4 10f 124 123 10e 102 0
4 124 139 138 123 116 0
4 139 14e 14d 138 12a 0
4 14e 163 162 14d 13e 0
4 163 178 177 162 152 0
4 178 18d 18c 177 166 0
4 18d 1a2 1a1 18c 17a 0
4 1a2 1b7 1b6 1a1 18e 0
4 14 29 28 13 13 0
4 29 3e 3d 28 27 0
4 3e 53 52 3d 3b 0
4 53 68 67 52 4f 0
4 68 7d 7c 67 63 0
4 7d 92 91 7c 77 0
4 92 a7 a6 91 8b 0
4 a7 bc bb a6 9f 0
4 bc d1 d0 bb b3 0
4 d1 e6 e5 d0 c7 0
4 e6 fb fa e5 db 0
4 fb 110 10f fa ef 0
4 110 125 124 10f 103 0
4 125 13a 139 124 117 0
4 13a 14f 14e 139 12b 0
4 14f 164 163 14e 13f 0
4 164 179 178 163 153 0
4 179 18e 18d 178 167 0
4 18e 1a3 1a2 18d 17b 0
4 1a3 1b8 1b7 1a2 18f 0
4 15 2a 29 14 14 0
4 2a 3f 3e 29 28 0
4 3f 54 53 3e 3c 0
4 54 69 68 53 50 0
4 69 7e 7d 68 64 0
4 7e 93 92 7d 78 0
4 93 a8 a7 92 8c 0
4 a8 bd bc a7 a0 0
4 bd d2 d1 bc b4 0
4 d2 e7 e6 d1 c8 0
4 e7 fc fb e6 dc 0
4 fc 111 110 fb f0 0
4 111 126 125 110 104 0
4 126 13b 13a 125 118 0
4 13b 150 14f 13a 12c 0
4 150 165 164 14f 140 0
4 165 17a 179 164 154 0
4 17a 18f 18e 179 168 0
4 18f 1a4 1a3 18e 17c 0
4 1a4 1b9 1b8 1a3 190 0
4 1cf 1d0 1bb 1ba 1 0
4 1e4 1e5 1d0 1cf 15 0
4 1f9 1fa 1e5 1e4 29 0
4 20e 20f 1fa 1f9 3d 0
4 223 224 20f 20e 51 0
4 238 239 224 223 65 0
4 24d 24e 239 238 79 0
4 262 263 24e 24d 8d 0
4 277 278 263 262 a1 0
4 28c 28d 278 277 b5 0
4 2a1 2a2 28d 28c c9 0
4 2b6 2b7 2a2 2a1 dd 0
4 2cb 2cc 2b7 2b6 f1 0
4 2e0 2e1 2cc 2cb 105 0
4 2f5 2f6 2e1 2e0 119 0
4 30a 30b 2f6 2f5 12d 0
4 31f 320 30b 30a 141 0
4 334 335 320 31f 155 0
4 349 34a 335 334 169 0
4 35e 35f 34a 349 17d 0
4 1d0 1d1 1bc 1bb 2 0
4 1e5 1e6 1d1 1d0 16 0
4 1fa 1fb 1e6 1e5 2a 0
4 20f 210 1fb 1fa 3e 0
4 224 225 210 20f 52 0
4 239 23a 225 224 66 0
4 24e 24f 23a 239 7a 0
4 263 264 24f 24e 8e 0
4 278 279 264 263 a2 0
4 28d 28e 279 278 b6 0
4 2a2 2a3 28e 28d ca 0
4 2b7 2b8 2a3 2a2 de 0
4 2cc 2cd 2b8 2b7 f2 0
4 2e1 2e2 2cd 2cc 106 0
4 2f6 2f7 2e2 2e1 11a 0
4 30b 30c 2f7 2f6 12e 0
4 320 321 30c 30b 142 0
4 335 336 321 320 156 0
4 34a 34b 336 335 16a 0
4 35f 360 34b 34a 17e 0
4 1d1 1d2 1bd 1bc 3 0
4 1e6 1e7 1d2 1d1 17 0
4 1fb 1fc 1e7 1e6 2b 0
4 210 211 1fc 1fb 3f 0
4 225 226 211 210 53 0
4 23a 23b 226 225 67 0
4 24f 250 23b 23a 7b 0
4 264 265 250 24f 8f 0
4 279 27a 265 264 a3 0
4 28e 28f 27a 279 b7 0
4 2a3 2a4 28f 28e cb 0
4 2b8 2b9 2a4 2a3 df 0
4 2cd 2ce 2b9 2b8 f3 0
4 2e2 2e3 2ce 2cd 107 0
4 2f7 2f8 2e3 2e2 11b 0
4 30c 30d 2f8 2f7 12f 0
4 321 322 30d 30c 143 0
4 336 337 322 321 157 0
4 34b 34c 337 336 16b 0
4 360 361 34c 34b 17f 0
4 1d2 1d3 1be 1bd 4 0
4 1e7 1e8 1d3 1d2 18 0
4 1fc 1fd 1e8 1e7 2c 0
4 211 212 1fd 1fc 40 0
4 226 227 212 211 54 0
4 23b 23c 227 226 68 0
4 250 251 23c 23b 7c 0
4 265 266 251 250 90 0
4 27a 27b 266 265 a4 0
4 28f 290 27b 27a b8 0
4 2a4 2a5 290 28f cc 0
4 2b9 2ba 2a5 2a4 e0 0
4 2ce 2cf 2ba 2b9 f4 0
4 2e3 2e4 2cf 2ce 108 0
4 2f8 2f9 2e4 2e3 11c 0
4 30d 30e 2f9 2f8 130 0
4 322 323 30e 30d 144 0
4 337 338 323 322 158 0
4 34c 34d 338 337 16c 0
4 361 362 34d 34c 180 0
4 1d3 1d4 1bf 1be 5 0
4 1e8 1e9 1d4 1d3 19 0
4 1fd 1fe 1e9 1e8 2d 0
4 212 213 1fe 1fd 41 0
4 227 228 213 212 55 0
4 23c 23d 228 227 69 0
4 251 252 23d 23c 7d 0
4 266 267 252 251 91 0
4 27b 27c 267 266 a5 0
4 290 291 27c 27b b9 0
4 2a5 2a6 291 290 cd 0
4 2ba 2bb 2a6 2a5 e1 0
4 2cf 2d0 2bb 2ba f5 0
4 2e4 2e5 2d0 2cf 109 0
4 2f9 2fa 2e5 2e4 11d 0
4 30e 30f 2fa 2f9 131 0
4 323 324 30f 30e 145 0
4 338 339 324 323 159 0
4 34d 34e 339 338 16d 0
4 362 363 34e 34d 181 0
4 1d4 1d5 1c0 1bf 6 0
4 1e9 1ea 1d5 1d4 1a 0
4 1fe 1ff 1ea 1e9 2e 0
4 213 214 1ff 1fe 42 0
4 228 229 214 213 56 0
4 23d 23e 229 228 6a 0
4 252 253 23e 23d 7e 0
4 267 268 253 252 92 0
4 27c 27d 268 267 a6 0
4 291 292 27d 27c ba 0
4 2a6 2a7 292 291 ce 0
4 2bb 2bc 2a7 2a6 e2 0
4 2d0 2d1 2bc 2bb f6 0
4 2e5 2e6 2d1 2d0 10a 0
4 2fa 2fb 2e6 2e5 11e 0
4 30f 310 2fb 2fa 132 0
4 324 325 310 30f 146 0
4 339 33a 325 324 15a 0
4 34e 34f 33a 339 16e 0
4 363 364 34f 34e 182 0
4 1d5 1d6 1c1 1c0 7 0
4 1ea 1eb 1d6 1d5 1b 0
4 1ff 200 1eb 1ea 2f 0
4 214 215 200 1ff 43 0
4 229 22a 215 214 57 0
4 23e 23f 22a 229 6b 0
4 253 254 23f 23e 7f 0
4 268 269 254 253 93 0
4 27d 27e 269 268 a7 0
4 292 293 27e 27d bb 0
4 2a7 2a8 293 292 cf 0
4 2bc 2bd 2a8 2a7 e3 0
4 2d1 2d2 2bd 2bc f7 0
4 2e6 2e7 2d2 2d1 10b 0
4 2fb 2fc 2e7 2e6 11f 0
4 310 311 2fc 2fb 133 0
4 325 326 311 310 147 0
4 33a 33b 326 325 15b 0
4 34f 350 33b 33a 16f 0
4 364 365 350 34f 183 0
4 1d6 1d7 1c2 1c1 8 0
4 1eb 1ec 1d7 1d6 1c 0
4 200 201 1ec 1eb 30 0
4 215 216 201 200 44 0
4 22a 22b 216 215 58 0
4 23f 240 22b 22a 6c 0
4 254 255 240 23f 80 0
4 269 26a 255 254 94 0
4 27e 27f 26a 269 a8 0
4 293 294 27f 27e bc 0
4 2a8 2a9 294 293 d0 0
4 2bd 2be 2a9 2a8 e4 0
4 2d2 2d3 2be 2bd f8 0
4 2e7 2e8 2d3 2d2 10c 0
4 2fc 2fd 2e8 2e7 120 0
4 311 312 2fd 2fc 134 0
4 326 327 312 311 148 0
4 33b 33c 327 326 15c 0
4 350 351 33c 33b 170 0
4 365 366 351 350 184 0
4 1d7 1d8 1c3 1c2 9 0
4 1ec 1ed 1d8 1d7 1d 0
4 201 202 1ed 1ec 31 0
4 216 217 202 201 45 0
4 22b 22c 217 216 59 0
4 240 241 22c 22b 6d 0
4 255 256 241 240 81 0
4 26a 26b 256 255 95 0
4 27f 280 26b 26a a9 0
4 294 295 280 27f bd 0
4 2a9 2aa 295 294 d1 0
4 2be 2bf 2aa 2a9 e5 0
4 2d3 2d4 2bf 2be f9 0
4 2e8 2e9 2d4 2d3 10d 0
4 2fd 2fe 2e9 2e8 121 0
4 312 313 2fe 2fd 135 0
4 327 328 313 312 149 0
4 33c 33d 328 327 15d 0
4 351 352 33d 33c 171 0
4 366 367 352 351 185 0
4 1d8 1d9 1c4 1c3 a 0
4 1ed 1ee 1d9 1d8 1e 0
4 202 203 1ee 1ed 32 0
4 217 218 203 202 46 0
4 22c 22d 218 217 5a 0
4 241 242 22d 22c 6e 0
4 256 257 242 241 82 0
4 26b 26c 257 256 96 0
4 280 281 26c 26b aa 0
4 295 296 281 280 be 0
4 2aa 2ab 296 295 d2 0
4 2bf 2c0 2ab 2aa e6 0
4 2d4 2d5 2c0 2bf fa 0
4 2e9 2ea 2d5 2d4 10e 0
4 2fe 2ff 2ea 2e9 122 0
4 313 314 2ff 2fe 136 0
4 328 329 314 313 14a 0
4 33d 33e 329 328 15e 0
4 352 353 33e 33d 172 0
4 367 368 353 352 186 0
4 1d9 1da 1c5 1c4 b 0
4 1ee 1ef 1da 1d9 1f 0
4 203 204 1ef 1ee 33 0
4 218 219 204 203 47 0
4 22d 22e 219 218 5b 0
4 242 243 22e 22d 6f 0
4 257 258 243 242 83 0
4 26c 26d 258 257 97 0
4 281 282 26d 26c ab 0
4 296 297 282 281 bf 0
4 2ab 2ac 297 296 d3 0
4 2c0 2c1 2ac 2ab e7 0
4 2d5 2d6 2c1 2c0 fb 0
4 2ea 2eb 2d6 2d5 10f 0
4 2ff 300 2eb 2ea 123 0
4 314 315 300 2ff 137 0
4 329 32a 315 314 14b 0
4 33e 33f 32a 329 15f 0
4 353 354 33f 33e 173 0
4 368 369 354 353 187 0
4 1da 1db 1c6 1c5 c 0
4 1ef 1f0 1db 1da 20 0
4 204 205 1f0 1ef 34 0
4 219 21a 205 204 48 0
4 22e 22f 21a 219 5c 0
4 243 244 22f 22e 70 0
4 258 259 244 243 84 0
4 26d 26e 259 258 98 0
4 282 283 26e 26d ac 0
4 297 298 283 282 c0 0
4 2ac 2ad 298 297 d4 0
4 2c1 2c2 2ad 2ac e8 0
4 2d6 2d7 2c2 2c1 fc 0
4 2eb 2ec 2d7 2d6 110 0
4 300 301 2ec 2eb 124 0
4 315 316 301 300 138 0
4 32a 32b 316 315 14c 0
4 33f 340 32b 32a 160 0
4 354 355 340 33f 174 0
4 369 36a 355 354 188 0
4 1db 1dc 1c7 1c6 d 0
4 1f0 1f1 1dc 1db 21 0
4 205 206 1f1 1f0 35 0
4 21a 21b 206 205 49 0
4 22f 230 21b 21a 5d 0
4 244 245 230 22f 71 0
4 259 25a 245 244 85 0
4 26e 26f 25a 259 99 0
4 283 284 26f 26e ad 0
4 298 299 284 283 c1 0
4 2ad 2ae 299 298 d5 0
4 2c2 2c3 2ae 2ad e9 0
4 2d7 2d8 2c3 2c2 fd 0
4 2ec 2ed 2d8 2d7 111 0
4 301 302 2ed 2ec 125 0
4 316 317 302 301 139 0
4 32b 32c 317 316 14d 0
4 340 341 32c 32b 161 0
4 355 356 341 340 175 0
4 36a 36b 356 355 189 0
4 1dc 1dd 1c8 1c7 e 0
4 1f1 1f2 1dd 1dc 22 0
4 206 207 1f2 1f1 36 0
4 21b 21c 207 206 4a 0
4 230 231 21c 21b 5e 0
4 245 246 231 230 72 0
4 25a 25b 246 245 86 0
4 26f 270 25b 25a 9a 0
4 284 285 270 26f ae 0
4 299 29a 285 284 c2 0
4 2ae 2af 29a 299 d6 0
4 2c3 2c4 2af 2ae ea 0
4 2d8 2d9 2c4 2c3 fe 0
4 2ed 2ee 2d9 2d8 112 0
4 302 303 2ee 2ed 126 0
4 317 318 303 302 13a 0
4 32c 32d 318 317 14e 0
4 341 342 32d 32c 162 0
4 356 357 342 341 176 0
4 36b 36c 357 356 18a 0
4 1dd 1de 1c9 1c8 f 0
4 1f2 1f3 1de 1dd 23 0
4 207 208 1f3 1f2 37 0
4 21c 21d 208 207 4b 0
4 231 232 21d 21c 5f 0
4 246 247 232 231 73 0
4 25b 25c 247 246 87 0
4 270 271 25c 25b 9b 0
4 285 286 271 270 af 0
4 29a 29b 286 285 c3 0
4 2af 2b0 29b 29a d7 0
4 2c4 2c5 2b0 2af eb 0
4 2d9 2da 2c5 2c4 ff 0
4 2ee 2ef 2da 2d9 113 0
4 303 304 2ef 2ee 127 0
4 318 319 304 303 13b 0
4 32d 32e 319 318 14f 0
4 342 343 32e 32d 163 0
4 357 358 343 342 177 0
4 36c 36d 358 357 18b 0
4 1de 1df 1ca 1c9 10 0
4 1f3 1f4 1df 1de 24 0
4 208 209 1f4 1f3 38 0
4 21d 21e 209 208 4c 0
4 232 233 21e 21d 60 0
4 247 248 233 232 74 0
4 25c 25d 248 247 88 0
4 271 272 25d 25c 9c 0
4 286 287 272 271 b0 0
4 29b 29c 287 286 c4 0
4 2b0 2b1 29c 29b d8 0
4 2c5 2c6 2b1 2b0 ec 0
4 2da 2db 2c6 2c5 100 0
4 2ef 2f0 2db 2da 114 0
4 304 305 2f0 2ef 128 0
4 319 31a 305 304 13c 0
4 32e 32f 31a 319 150 0
4 343 344 32f 32e 164 0
4 358 359 344 343 178 0
4 36d 36e 359 358 18c 0
4 1df 1e0 1cb 1ca 11 0
4 1f4 1f5 1e0 1df 25 0
4 209 20a 1f5 1f4 39 0
4 21e 21f 20a 209 4d 0
4 233 234 21f 21e 61 0
4 248 249 234 233 75 0
4 25d 25e 249 248 89 0
4 272 273 25e 25d 9d 0
4 287 288 273 272 b1 0
4 29c 29d 288 287 c5 0
4 2b1 2b2 29d 29c d9 0
4 2c6 2c7 2b2 2b1 ed 0
4 2db 2dc 2c7 2c6 101 0
4 2f0 2f1 2dc 2db 115 0
4 305 306 2f1 2f0 129 0
4 31a 31b 306 305 13d 0
4 32f 330 31b 31a 151 0
4 344 345 330 32f 165 0
4 359 35a 345 344 179 0
4 36e 36f 35a 359 18d 0
4 1e0 1e1 1cc 1cb 12 0
4 1f5 1f6 1e1 1e0 26 0
4 20a 20b 1f6 1f5 3a 0
4 21f 220 20b 20a 4e 0
4 234 235 220 21f 62 0
4 249 24a 235 234 76 0
4 25e 25f 24a 249 8a 0
4 273 274 25f 25e 9e 0
4 288 289 274 273 b2 0
4 29d 29e 289 288 c6 0
4 2b2 2b3 29e 29d da 0
4 2c7 2c8 2b3 2b2 ee 0
4 2dc 2dd 2c8 2c7 102 0
4 2f1 2f2 2dd 2dc 116 0
4 306 307 2f2 2f1 12a 0
4 31b 31c 307 306 13e 0
4 330 331 31c 31b 152 0
4 345 346 331 330 166 0
4 35a 35b 346 345 17a 0
4 36f 370 35b 35a 18e 0
4 1e1 1e2 1cd 1cc 13 0
4 1f6 1f7 1e2 1e1 27 0
4 20b 20c 1f7 1f6 3b 0
4 220 221 20c 20b 4f 0
4 235 236 221 220 63 0
4 24a 24b 236 235 77 0
4 25f 260 24b 24a 8b 0
4 274 275 260 25f 9f 0
4 289 28a 275 274 b3 0
4 29e 29f 28a 289 c7 0
4 2b3 2b4 29f 29e db 0
4 2c8 2c9 2b4 2b3 ef 0
4 2dd 2de 2c9 2c8 103 0
4 2f2 2f3 2de 2dd 117 0
4 307 308 2f3 2f2 12b 0
4 31c 31d 308 307 13f 0
4 331 332 31d 31c 153 0
4 346 347 332 331 167 0
4 35b 35c 347 346 17b 0
4 370 371 35c 35b 18f 0
4 1e2 1e3 1ce 1cd 14 0
4 1f7 1f8 1e3 1e2 28 0
4 20c 20d 1f8 1f7 3c 0
4 221 222 20d 20c 50 0
4 236 237 222 221 64 0
4 24b 24c 237 236 78 0
4 260 261 24c 24b 8c 0
4 275 276 261 260 a0 0
4 28a 28b 276 275 b4 0
4 29f 2a0 28b 28a c8 0
4 2b4 2b5 2a0 29f dc 0
4 2c9 2ca 2b5 2b4 f0 0
4 2de 2df 2ca 2c9 104 0
4 2f3 2f4 2df 2de 118 0
4 308 309 2f4 2f3 12c 0
4 31d 31e 309 308 140 0
4 332 333 31e 31d 154 0
4 347 348 333 332 168 0
4 35c 35d 348 347 17c 0
4 371 372 35d 35c 190 0
))
(45 (2 fluid fluid)())
(45 (3 interior interior-1)())
(45 (4 wall movingWall)())
(45 (5 wall leftWalls)())
(45 (6 wall rightWalls)())
(45 (7 wall bottomWalls)())
(45 (8 wall frontAndBack)())
