$MeshFormat
4.1 0 8
$EndMeshFormat
$PhysicalNames
3
2 1 "movingWall"
2 2 "fixedWalls"
3 3 "fluid"
$EndPhysicalNames
$Entities
12 20 11 2
1 0 0 1 0 
2 0 0 0 0 
3 0 1 1 0 
4 0 1 0 0 
5 0.5 0 0 0 
6 0.5 0 1 0 
7 0.5 1 1 0 
8 0.5 1 0 0 
9 1 0 1 0 
10 1 0 0 0 
11 1 1 1 0 
12 1 1 0 0 
1 -1e-07 -1e-07 -9.999999994736442e-08 1e-07 1e-07 1.0000001 0 2 2 -1 
2 -1e-07 -9.999999994736442e-08 0.9999999000000001 1e-07 1.0000001 1.0000001 0 2 1 -3 
3 -1e-07 0.9999999000000001 -9.999999994736442e-08 1e-07 1.0000001 1.0000001 0 2 4 -3 
4 -1e-07 -9.999999994736442e-08 -1e-07 1e-07 1.0000001 1e-07 0 2 2 -4 
5 0.4999999 -1e-07 -9.999999994736442e-08 0.5000000999999999 1e-07 1.0000001 0 2 5 -6 
6 0.4999999 -9.999999994736442e-08 0.9999999000000001 0.5000000999999999 1.0000001 1.0000001 0 2 6 -7 
7 0.4999999 0.9999999000000001 -9.999999994736442e-08 0.5000000999999999 1.0000001 1.0000001 0 2 8 -7 
8 0.4999999 -9.999999994736442e-08 -1e-07 0.5000000999999999 1.0000001 1e-07 0 2 5 -8 
9 -9.999999997511999e-08 -1e-07 -1e-07 0.5000000999999999 1e-07 1e-07 0 2 2 -5 
10 -9.999999997511999e-08 -1e-07 0.9999999000000001 0.5000000999999999 1e-07 1.0000001 0 2 1 -6 
11 -9.999999997511999e-08 0.9999999000000001 -1e-07 0.5000000999999999 1.0000001 1e-07 0 2 4 -8 
12 -9.999999997511999e-08 0.9999999000000001 0.9999999000000001 0.5000000999999999 1.0000001 1.0000001 0 2 3 -7 
13 0.9999999000000001 -1e-07 -9.999999994736442e-08 1.0000001 1e-07 1.0000001 0 2 10 -9 
14 0.9999999000000001 -9.999999994736442e-08 0.9999999000000001 1.0000001 1.0000001 1.0000001 0 2 9 -11 
15 0.9999999000000001 0.9999999000000001 -9.999999994736442e-08 1.0000001 1.0000001 1.0000001 0 2 12 -11 
16 0.9999999000000001 -9.999999994736442e-08 -1e-07 1.0000001 1.0000001 1e-07 0 2 10 -12 
17 0.4999999 -1e-07 -1e-07 1.0000001 1e-07 1e-07 0 2 5 -10 
18 0.4999999 -1e-07 0.9999999000000001 1.0000001 1e-07 1.0000001 0 2 6 -9 
19 0.4999999 0.9999999000000001 -1e-07 1.0000001 1.0000001 1e-07 0 2 8 -12 
20 0.4999999 0.9999999000000001 0.9999999000000001 1.0000001 1.0000001 1.0000001 0 2 7 -11 
1 -1e-07 -9.999999994736442e-08 -9.999999994736442e-08 1e-07 1.0000001 1.0000001 1 2 4 -1 4 3 -2 
2 0.4999999 -9.999999994736442e-08 -9.999999994736442e-08 0.5000000999999999 1.0000001 1.0000001 0 4 -5 8 7 -6 
3 -9.999999997511999e-08 -1e-07 -9.999999994736442e-08 0.5000000999999999 1e-07 1.0000001 1 2 4 -9 1 10 -5 
4 -9.999999997511999e-08 0.9999999000000001 -9.999999994736442e-08 0.5000000999999999 1.0000001 1.0000001 1 2 4 -11 3 12 -7 
5 -9.999999997511999e-08 -9.999999994736442e-08 -1e-07 0.5000000999999999 1.0000001 1e-07 1 2 4 -4 9 8 -11 
6 -9.999999997511999e-08 -9.999999994736442e-08 0.9999999000000001 0.5000000999999999 1.0000001 1.0000001 1 1 4 -2 10 6 -12 
7 0.9999999000000001 -9.999999994736442e-08 -9.999999994736442e-08 1.0000001 1.0000001 1.0000001 1 2 4 -13 16 15 -14 
8 0.4999999 -1e-07 -9.999999994736442e-08 1.0000001 1e-07 1.0000001 1 2 4 -17 5 18 -13 
9 0.4999999 0.9999999000000001 -9.999999994736442e-08 1.0000001 1.0000001 1.0000001 1 2 4 -19 7 20 -15 
10 0.4999999 -9.999999994736442e-08 -1e-07 1.0000001 1.0000001 1e-07 1 2 4 -8 17 16 -19 
11 0.4999999 -9.999999994736442e-08 0.9999999000000001 1.0000001 1.0000001 1.0000001 1 1 4 -6 18 14 -20 
1 -9.999999997511999e-08 -9.999999994736442e-08 -9.999999994736442e-08 0.5000000999999999 1.0000001 1.0000001 1 3 6 -1 2 -3 4 -5 6 
2 0.4999999 -9.999999994736442e-08 -9.999999994736442e-08 1.0000001 1.0000001 1.0000001 1 3 6 -2 7 -8 9 -10 11 
$EndEntities
$Nodes
45 424 1 424
0 1 0 1
1
0 0 1
0 2 0 1
2
0 0 0
0 3 0 1
3
0 1 1
0 4 0 1
4
0 1 0
0 5 0 1
5
0.5 0 0
0 6 0 1
6
0.5 0 1
0 7 0 1
7
0.5 1 1
0 8 0 1
8
0.5 1 0
0 9 0 1
9
1 0 1
0 10 0 1
10
1 0 0
0 11 0 1
11
1 1 1
0 12 0 1
12
1 1 0
1 1 0 5
13
14
15
16
17
0 0 0.1666666666666662
0 0 0.3333333333333324
0 0 0.4999999999999986
0 0 0.6666666666666646
0 0 0.8333333333333321
1 2 0 5
18
19
20
21
22
0 0.1666666666666662 1
0 0.3333333333333324 1
0 0.4999999999999986 1
0 0.6666666666666646 1
0 0.8333333333333321 1
1 3 0 5
23
24
25
26
27
0 1 0.1666666666666662
0 1 0.3333333333333324
0 1 0.4999999999999986
0 1 0.6666666666666646
0 1 0.8333333333333321
1 4 0 5
28
29
30
31
32
0 0.1666666666666662 0
0 0.3333333333333324 0
0 0.4999999999999986 0
0 0.6666666666666646 0
0 0.8333333333333321 0
1 5 0 5
33
34
35
36
37
0.5 0 0.1666666666666662
0.5 0 0.3333333333333324
0.5 0 0.4999999999999986
0.5 0 0.6666666666666646
0.5 0 0.8333333333333321
1 6 0 5
38
39
40
41
42
0.5 0.1666666666666662 1
0.5 0.3333333333333324 1
0.5 0.4999999999999986 1
0.5 0.6666666666666646 1
0.5 0.8333333333333321 1
1 7 0 5
43
44
45
46
47
0.5 1 0.1666666666666662
0.5 1 0.3333333333333324
0.5 1 0.4999999999999986
0.5 1 0.6666666666666646
0.5 1 0.8333333333333321
1 8 0 5
48
49
50
51
52
0.5 0.1666666666666662 0
0.5 0.3333333333333324 0
0.5 0.4999999999999986 0
0.5 0.6666666666666646 0
0.5 0.8333333333333321 0
1 9 0 3
53
54
55
0.1249999999999997 0 0
0.2499999999999993 0 0
0.3749999999999992 0 0
1 10 0 3
56
57
58
0.1249999999999997 0 1
0.2499999999999993 0 1
0.3749999999999992 0 1
1 11 0 3
59
60
61
0.1249999999999997 1 0
0.2499999999999993 1 0
0.3749999999999992 1 0
1 12 0 3
62
63
64
0.1249999999999997 1 1
0.2499999999999993 1 1
0.3749999999999992 1 1
1 13 0 5
65
66
67
68
69
1 0 0.1666666666666662
1 0 0.3333333333333324
1 0 0.4999999999999986
1 0 0.6666666666666646
1 0 0.8333333333333321
1 14 0 5
70
71
72
73
74
1 0.1666666666666662 1
1 0.3333333333333324 1
1 0.4999999999999986 1
1 0.6666666666666646 1
1 0.8333333333333321 1
1 15 0 5
75
76
77
78
79
1 1 0.1666666666666662
1 1 0.3333333333333324
1 1 0.4999999999999986
1 1 0.6666666666666646
1 1 0.8333333333333321
1 16 0 5
80
81
82
83
84
1 0.1666666666666662 0
1 0.3333333333333324 0
1 0.4999999999999986 0
1 0.6666666666666646 0
1 0.8333333333333321 0
1 17 0 2
85
86
0.6666666666666662 0 0
0.8333333333333324 0 0
1 18 0 2
87
88
0.6666666666666662 0 1
0.8333333333333324 0 1
1 19 0 2
89
90
0.6666666666666662 1 0
0.8333333333333324 1 0
1 20 0 2
91
92
0.6666666666666662 1 1
0.8333333333333324 1 1
2 1 0 25
93
94
95
96
97
98
99
100
101
102
103
104
105
106
107
108
109
110
111
112
113
114
115
116
117
0 0.1666666666666662 0.1666666666666662
0 0.3333333333333324 0.1666666666666662
0 0.4999999999999986 0.1666666666666662
0 0.6666666666666646 0.1666666666666662
0 0.8333333333333321 0.1666666666666662
0 0.1666666666666662 0.3333333333333324
0 0.3333333333333324 0.3333333333333324
0 0.4999999999999986 0.3333333333333324
0 0.6666666666666646 0.3333333333333324
0 0.8333333333333321 0.3333333333333324
0 0.1666666666666662 0.4999999999999986
0 0.3333333333333324 0.4999999999999987
0 0.4999999999999986 0.4999999999999986
0 0.6666666666666646 0.4999999999999986
0 0.8333333333333321 0.4999999999999986
0 0.1666666666666662 0.6666666666666646
0 0.3333333333333324 0.6666666666666649
0 0.4999999999999986 0.6666666666666646
0 0.6666666666666646 0.6666666666666646
0 0.8333333333333321 0.6666666666666646
0 0.1666666666666662 0.8333333333333321
0 0.3333333333333324 0.8333333333333321
0 0.4999999999999986 0.8333333333333321
0 0.6666666666666646 0.8333333333333321
0 0.8333333333333321 0.8333333333333321
2 2 0 25
118
119
120
121
122
123
124
125
126
127
128
129
130
131
132
133
134
135
136
137
138
139
140
141
142
0.5 0.1666666666666662 0.1666666666666662
0.5 0.3333333333333324 0.1666666666666662
0.5 0.4999999999999986 0.1666666666666662
0.5 0.6666666666666646 0.1666666666666662
0.5 0.8333333333333321 0.1666666666666662
0.5 0.1666666666666662 0.3333333333333324
0.5 0.3333333333333324 0.3333333333333324
0.5 0.4999999999999986 0.3333333333333324
0.5 0.6666666666666646 0.3333333333333324
0.5 0.8333333333333321 0.3333333333333324
0.5 0.1666666666666662 0.4999999999999986
0.5 0.3333333333333324 0.4999999999999987
0.5 0.4999999999999986 0.4999999999999986
0.5 0.6666666666666646 0.4999999999999986
0.5 0.8333333333333321 0.4999999999999986
0.5 0.1666666666666662 0.6666666666666646
0.5 0.3333333333333324 0.6666666666666649
0.5 0.4999999999999986 0.6666666666666646
0.5 0.6666666666666646 0.6666666666666646
0.5 0.8333333333333321 0.6666666666666646
0.5 0.1666666666666662 0.8333333333333321
0.5 0.3333333333333324 0.8333333333333321
0.5 0.4999999999999986 0.8333333333333321
0.5 0.6666666666666646 0.8333333333333321
0.5 0.8333333333333321 0.8333333333333321
2 3 0 15
143
144
145
146
147
148
149
150
151
152
153
154
155
156
157
0.1249999999999996 0 0.1666666666666662
0.1249999999999997 0 0.3333333333333324
0.1249999999999997 0 0.4999999999999986
0.1249999999999997 0 0.6666666666666645
0.1249999999999996 0 0.8333333333333321
0.2499999999999993 0 0.1666666666666662
0.2499999999999993 0 0.3333333333333324
0.2499999999999993 0 0.4999999999999986
0.2499999999999993 0 0.6666666666666646
0.2499999999999993 0 0.8333333333333321
0.3749999999999991 0 0.1666666666666662
0.3749999999999992 0 0.3333333333333324
0.3749999999999993 0 0.4999999999999986
0.3749999999999992 0 0.6666666666666646
0.3749999999999991 0 0.8333333333333321
2 4 0 15
158
159
160
161
162
163
164
165
166
167
168
169
170
171
172
0.1249999999999996 1 0.1666666666666662
0.1249999999999997 1 0.3333333333333324
0.1249999999999997 1 0.4999999999999986
0.1249999999999997 1 0.6666666666666645
0.1249999999999996 1 0.8333333333333321
0.2499999999999993 1 0.1666666666666662
0.2499999999999993 1 0.3333333333333324
0.2499999999999993 1 0.4999999999999986
0.2499999999999993 1 0.6666666666666646
0.2499999999999993 1 0.8333333333333321
0.3749999999999991 1 0.1666666666666662
0.3749999999999992 1 0.3333333333333324
0.3749999999999993 1 0.4999999999999986
0.3749999999999992 1 0.6666666666666646
0.3749999999999991 1 0.8333333333333321
2 5 0 15
173
174
175
176
177
178
179
180
181
182
183
184
185
186
187
0.1249999999999997 0.1666666666666662 0
0.2499999999999993 0.1666666666666662 0
0.3749999999999992 0.1666666666666662 0
0.1249999999999996 0.3333333333333324 0
0.2499999999999993 0.3333333333333324 0
0.3749999999999992 0.3333333333333324 0
0.1249999999999996 0.4999999999999986 0
0.2499999999999993 0.4999999999999986 0
0.3749999999999992 0.4999999999999986 0
0.1249999999999996 0.6666666666666645 0
0.2499999999999993 0.6666666666666646 0
0.3749999999999992 0.6666666666666646 0
0.1249999999999997 0.8333333333333319 0
0.2499999999999993 0.8333333333333321 0
0.3749999999999992 0.8333333333333321 0
2 6 0 15
188
189
190
191
192
193
194
195
196
197
198
199
200
201
202
0.1249999999999997 0.1666666666666662 1
0.2499999999999993 0.1666666666666662 1
0.3749999999999992 0.1666666666666662 1
0.1249999999999996 0.3333333333333324 1
0.2499999999999993 0.3333333333333324 1
0.3749999999999992 0.3333333333333324 1
0.1249999999999996 0.4999999999999986 1
0.2499999999999993 0.4999999999999986 1
0.3749999999999992 0.4999999999999986 1
0.1249999999999996 0.6666666666666645 1
0.2499999999999993 0.6666666666666646 1
0.3749999999999992 0.6666666666666646 1
0.1249999999999997 0.8333333333333319 1
0.2499999999999993 0.8333333333333321 1
0.3749999999999992 0.8333333333333321 1
2 7 0 34
203
204
205
206
207
208
209
210
211
212
213
214
215
216
217
218
219
220
221
222
223
224
225
226
227
228
229
230
231
232
233
234
235
236
1 0.5833333333333316 0.8556624327025941
1 0.5815109568340524 0.1508426476087527
1 0.1493826874925711 0.5977876091177627
1 0.8506173125074283 0.597787609117763
1 0.1356302602983094 0.2458798294733581
1 0.8611620212026556 0.2477062749977592
1 0.2507062282134787 0.8588713258240283
1 0.7492937717865187 0.8588713258240285
1 0.6925646466622742 0.697528712446488
1 0.5043163299992668 0.7090255065787379
1 0.5833333333333319 0.5669872981077819
1 0.4222204468242287 0.5638129342155495
1 0.5009256300262592 0.4250635842210114
1 0.666666666666665 0.4226497308103759
1 0.340090540338241 0.421369939200061
1 0.4404659175556339 0.2835712984850788
1 0.3088453690744141 0.6967467520581047
1 0.1687852027634298 0.4203907139583832
1 0.4134224323256369 0.8533843361939107
1 0.8318012084636079 0.4209213154057614
1 0.8613549960618433 0.7514957068082695
1 0.1388128629544283 0.7514026162858429
1 0.7528831044824418 0.1369493419813703
1 0.2418072307765989 0.1313072671406492
1 0.4059952396911893 0.135163461222794
1 0.5825475961794457 0.3153718094250967
1 0.283207576000983 0.2833193598962177
1 0.7127619256381447 0.2824068533715194
1 0.7209936490538894 0.5502404735808372
1 0.2778648492985769 0.5400215897099722
1 0.8779915320718527 0.8779915320718527
1 0.1220084679281455 0.8779915320718541
1 0.8779915320718541 0.1220084679281456
1 0.1211598774258424 0.1211598774258424
2 8 0 17
237
238
239
240
241
242
243
244
245
246
247
248
249
250
251
252
253
0.6443375672974059 0 0.5833333333333317
0.6275829074538746 0 0.2507666813177016
0.7499999999999997 0 0.8436333179306552
0.855662432702594 0 0.4166666666666655
0.6402548531056997 0 0.4166999289062578
0.8556624327025941 0 0.5833333333333316
0.872417092546125 0 0.2507666813177017
0.8722756607957411 0 0.7451257299887117
0.6277243392042585 0 0.7451257299887117
0.7499999999999994 0 0.1438706024233611
0.75 0 0.3333333333333324
0.7500000000000002 0 0.4999999999999987
0.7499999999999999 0 0.6661469172594641
0.8779915320718537 0 0.8779915320718539
0.6220084679281456 0 0.8779915320718542
0.8788401225741569 0 0.1211598774258428
0.6211598774258424 0 0.1211598774258424
2 9 0 17
254
255
256
257
258
259
260
261
262
263
264
265
266
267
268
269
270
0.6443375672974059 1 0.5833333333333317
0.6275829074538746 1 0.2507666813177016
0.7499999999999997 1 0.8436333179306552
0.855662432702594 1 0.4166666666666655
0.6402548531056997 1 0.4166999289062578
0.8556624327025941 1 0.5833333333333316
0.872417092546125 1 0.2507666813177017
0.8722756607957411 1 0.7451257299887117
0.6277243392042585 1 0.7451257299887117
0.7499999999999994 1 0.1438706024233611
0.75 1 0.3333333333333324
0.7500000000000002 1 0.4999999999999987
0.7499999999999999 1 0.6661469172594641
0.8779915320718537 1 0.8779915320718539
0.6220084679281456 1 0.8779915320718542
0.8788401225741569 1 0.1211598774258428
0.6211598774258424 1 0.1211598774258424
2 10 0 17
271
272
273
274
275
276
277
278
279
280
281
282
283
284
285
286
287
0.6443375672974059 0.5833333333333317 0
0.6275829074538746 0.2507666813177016 0
0.7499999999999996 0.8436333179306551 0
0.855662432702594 0.4166666666666655 0
0.6402548531056996 0.4166999289062578 0
0.872417092546125 0.2507666813177017 0
0.8556624327025941 0.5833333333333317 0
0.8722756607957411 0.7451257299887117 0
0.6277243392042585 0.7451257299887117 0
0.7499999999999994 0.1438706024233611 0
0.75 0.4999999999999989 0
0.7499999999999999 0.3333333333333324 0
0.7499999999999999 0.6667585740957902 0
0.8779915320718537 0.8779915320718538 0
0.6220084679281456 0.8779915320718542 0
0.8788401225741567 0.1211598774258428 0
0.6211598774258424 0.1211598774258424 0
2 11 0 17
288
289
290
291
292
293
294
295
296
297
298
299
300
301
302
303
304
0.6443375672974059 0.5833333333333317 1
0.6275829074538746 0.2507666813177016 1
0.7499999999999996 0.8436333179306551 1
0.855662432702594 0.4166666666666655 1
0.6402548531056996 0.4166999289062578 1
0.872417092546125 0.2507666813177017 1
0.8556624327025941 0.5833333333333317 1
0.8722756607957411 0.7451257299887117 1
0.6277243392042585 0.7451257299887117 1
0.7499999999999994 0.1438706024233611 1
0.75 0.4999999999999989 1
0.7499999999999999 0.3333333333333324 1
0.7499999999999999 0.6667585740957902 1
0.8779915320718537 0.8779915320718538 1
0.6220084679281456 0.8779915320718542 1
0.8788401225741567 0.1211598774258428 1
0.6211598774258424 0.1211598774258424 1
3 1 0 75
305
306
307
308
309
310
311
312
313
314
315
316
317
318
319
320
321
322
323
324
325
326
327
328
329
330
331
332
333
334
335
336
337
338
339
340
341
342
343
344
345
346
347
348
349
350
351
352
353
354
355
356
357
358
359
360
361
362
363
364
365
366
367
368
369
370
371
372
373
374
375
376
377
378
379
0.1249999999999996 0.1666666666666662 0.1666666666666663
0.2499999999999992 0.1666666666666661 0.1666666666666661
0.3749999999999991 0.1666666666666663 0.1666666666666663
0.1249999999999996 0.3333333333333324 0.1666666666666663
0.2499999999999993 0.3333333333333323 0.1666666666666662
0.3749999999999992 0.3333333333333323 0.1666666666666663
0.1249999999999996 0.4999999999999987 0.1666666666666663
0.2499999999999992 0.4999999999999984 0.1666666666666662
0.3749999999999992 0.4999999999999984 0.1666666666666663
0.1249999999999996 0.6666666666666645 0.1666666666666662
0.2499999999999992 0.6666666666666643 0.1666666666666662
0.3749999999999992 0.6666666666666643 0.1666666666666663
0.1249999999999996 0.8333333333333321 0.1666666666666662
0.2499999999999992 0.8333333333333321 0.1666666666666662
0.3749999999999992 0.833333333333332 0.1666666666666662
0.1249999999999996 0.1666666666666662 0.3333333333333324
0.2499999999999993 0.1666666666666662 0.3333333333333324
0.3749999999999992 0.1666666666666663 0.3333333333333324
0.1249999999999997 0.3333333333333323 0.3333333333333324
0.2499999999999993 0.3333333333333324 0.3333333333333324
0.3749999999999992 0.3333333333333324 0.3333333333333324
0.1249999999999997 0.4999999999999987 0.3333333333333324
0.2499999999999994 0.4999999999999984 0.3333333333333324
0.3749999999999993 0.4999999999999985 0.3333333333333324
0.1249999999999997 0.6666666666666644 0.3333333333333324
0.2499999999999994 0.6666666666666644 0.3333333333333324
0.3749999999999993 0.6666666666666645 0.3333333333333324
0.1249999999999996 0.8333333333333321 0.3333333333333324
0.2499999999999994 0.8333333333333321 0.3333333333333324
0.3749999999999992 0.8333333333333321 0.3333333333333324
0.1249999999999996 0.1666666666666662 0.4999999999999987
0.2499999999999992 0.1666666666666662 0.4999999999999984
0.3749999999999992 0.1666666666666663 0.4999999999999984
0.1249999999999997 0.3333333333333324 0.4999999999999987
0.2499999999999994 0.3333333333333324 0.4999999999999989
0.3749999999999994 0.3333333333333324 0.4999999999999989
0.1249999999999997 0.4999999999999987 0.4999999999999987
0.2499999999999992 0.4999999999999984 0.4999999999999984
0.3749999999999992 0.4999999999999984 0.4999999999999984
0.1249999999999997 0.6666666666666644 0.4999999999999987
0.2499999999999992 0.6666666666666644 0.4999999999999984
0.3749999999999993 0.6666666666666644 0.4999999999999984
0.1249999999999997 0.8333333333333321 0.4999999999999987
0.2499999999999992 0.8333333333333321 0.4999999999999984
0.3749999999999992 0.8333333333333321 0.4999999999999984
0.1249999999999996 0.1666666666666662 0.6666666666666645
0.2499999999999992 0.1666666666666662 0.6666666666666642
0.3749999999999993 0.1666666666666663 0.6666666666666643
0.1249999999999997 0.3333333333333324 0.6666666666666644
0.2499999999999993 0.3333333333333324 0.6666666666666653
0.3749999999999993 0.3333333333333324 0.6666666666666654
0.1249999999999997 0.4999999999999988 0.6666666666666644
0.2499999999999992 0.4999999999999984 0.6666666666666644
0.3749999999999992 0.4999999999999984 0.6666666666666644
0.1249999999999997 0.6666666666666645 0.6666666666666645
0.2499999999999992 0.6666666666666644 0.6666666666666644
0.3749999999999992 0.6666666666666645 0.6666666666666644
0.1249999999999997 0.8333333333333321 0.6666666666666644
0.2499999999999992 0.833333333333332 0.6666666666666644
0.3749999999999992 0.833333333333332 0.6666666666666643
0.1249999999999996 0.1666666666666662 0.8333333333333321
0.2499999999999992 0.1666666666666662 0.8333333333333321
0.3749999999999991 0.1666666666666662 0.833333333333332
0.1249999999999996 0.3333333333333323 0.8333333333333321
0.2499999999999993 0.3333333333333324 0.8333333333333321
0.3749999999999992 0.3333333333333323 0.8333333333333321
0.1249999999999997 0.4999999999999987 0.8333333333333321
0.2499999999999992 0.4999999999999984 0.8333333333333321
0.3749999999999992 0.4999999999999983 0.8333333333333321
0.1249999999999997 0.6666666666666644 0.8333333333333321
0.2499999999999993 0.6666666666666643 0.8333333333333321
0.3749999999999992 0.6666666666666643 0.8333333333333321
0.1249999999999996 0.833333333333332 0.833333333333332
0.2499999999999992 0.8333333333333321 0.8333333333333321
0.3749999999999991 0.8333333333333321 0.8333333333333321
3 2 0 45
380
381
382
383
384
385
386
387
388
389
390
391
392
393
394
395
396
397
398
399
400
401
402
403
404
405
406
407
408
409
410
411
412
413
414
415
416
417
418
419
420
421
422
423
424
0.7574938613494904 0.2541941189299864 0.4520360730939733
0.7638550207782151 0.749661889253571 0.462672456765456
0.7659648650985336 0.5833792870478945 0.2330987225838232
0.7371691970145386 0.4252608261085758 0.8092891202309282
0.7672510855749914 0.7551959460132226 0.7661516088721609
0.7808777818404145 0.2320533490267799 0.2156074455260544
0.7660401418367119 0.5037041615765043 0.5183370217440709
0.7852854603976718 0.1826623665306594 0.7362052558811902
0.8226977478276898 0.8234824292940549 0.1786858610945068
0.5515268828531058 0.07705653481735743 0.07705653481735741
0.5583334166666665 0.2499999999999993 0.08333333333333311
0.5502871561403618 0.3882347865066638 0.05479587792310726
0.5768203993577776 0.5829106095920632 0.06959913948094301
0.5464038442445575 0.7725276062565132 0.05479587792310726
0.5516439298189408 0.922826418216807 0.0770565348173574
0.5583334166666665 0.08333333333333311 0.2499999999999993
0.5986403420784144 0.2465513159980756 0.2769206628162837
0.6146514603919505 0.4038545660841442 0.2351695191921192
0.5750000833333331 0.5833333333333316 0.2499999999999993
0.5750000833333334 0.7499999999999984 0.2499999999999993
0.5462645987162367 0.9452041220768923 0.22648426801329
0.5666667499999998 0.08333333333333311 0.4166666666666655
0.5750000833333331 0.2499999999999993 0.4166666666666655
0.6195176296037612 0.429068115437324 0.4110243046418106
0.6203441186075715 0.5951167764319925 0.4124587864631625
0.5749044617356136 0.7499991055357513 0.4167883739322175
0.5666667500000001 0.9166666666666661 0.4166666666666655
0.5600571978545349 0.04973216459702932 0.5828453427763602
0.6019060184531253 0.2169037289497809 0.5781894413843796
0.61691697705571 0.4075431713888315 0.5847409110908705
0.5951944968584882 0.5947842645142554 0.5539270185231085
0.5750000833333334 0.7499999999999984 0.5833333333333316
0.560057197854535 0.9502678354029701 0.5828453427763604
0.5464038442445575 0.05479587792310726 0.7725276062565132
0.5948850889273327 0.2404108975200201 0.770827322369798
0.5632213264402348 0.4183503466175885 0.7606197547982227
0.6150009696509173 0.576688836344121 0.7550410196166535
0.5750000833333337 0.7499999999999984 0.7499999999999984
0.558333416666667 0.9166666666666661 0.7499999999999984
0.5516439298189408 0.0770565348173574 0.922826418216807
0.5462645987162367 0.22648426801329 0.9452041220768923
0.5691410778705365 0.3939473264908211 0.9259247440134355
0.560057197854535 0.5828453427763604 0.9502678354029701
0.558333416666667 0.7499999999999984 0.9166666666666661
0.5517609767847759 0.9228264182168072 0.9228264182168072
$EndNodes
$Elements
13 1235 1 1235
2 1 3 36
1 2 13 93 28 
2 28 93 94 29 
3 29 94 95 30 
4 30 95 96 31 
5 31 96 97 32 
6 32 97 23 4 
7 13 14 98 93 
8 93 98 99 94 
9 94 99 100 95 
10 95 100 101 96 
11 96 101 102 97 
12 97 102 24 23 
13 14 15 103 98 
14 98 103 104 99 
15 99 104 105 100 
16 100 105 106 101 
17 101 106 107 102 
18 102 107 25 24 
19 15 16 108 103 
20 103 108 109 104 
21 104 109 110 105 
22 105 110 111 106 
23 106 111 112 107 
24 107 112 26 25 
25 16 17 113 108 
26 108 113 114 109 
27 109 114 115 110 
28 110 115 116 111 
29 111 116 117 112 
30 112 117 27 26 
31 17 1 18 113 
32 113 18 19 114 
33 114 19 20 115 
34 115 20 21 116 
35 116 21 22 117 
36 117 22 3 27 
2 3 3 24
37 2 53 143 13 
38 13 143 144 14 
39 14 144 145 15 
40 15 145 146 16 
41 16 146 147 17 
42 17 147 56 1 
43 53 54 148 143 
44 143 148 149 144 
45 144 149 150 145 
46 145 150 151 146 
47 146 151 152 147 
48 147 152 57 56 
49 54 55 153 148 
50 148 153 154 149 
51 149 154 155 150 
52 150 155 156 151 
53 151 156 157 152 
54 152 157 58 57 
55 55 5 33 153 
56 153 33 34 154 
57 154 34 35 155 
58 155 35 36 156 
59 156 36 37 157 
60 157 37 6 58 
2 4 3 24
61 4 23 158 59 
62 23 24 159 158 
63 24 25 160 159 
64 25 26 161 160 
65 26 27 162 161 
66 27 3 62 162 
67 59 158 163 60 
68 158 159 164 163 
69 159 160 165 164 
70 160 161 166 165 
71 161 162 167 166 
72 162 62 63 167 
73 60 163 168 61 
74 163 164 169 168 
75 164 165 170 169 
76 165 166 171 170 
77 166 167 172 171 
78 167 63 64 172 
79 61 168 43 8 
80 168 169 44 43 
81 169 170 45 44 
82 170 171 46 45 
83 171 172 47 46 
84 172 64 7 47 
2 5 3 24
85 2 28 173 53 
86 53 173 174 54 
87 54 174 175 55 
88 55 175 48 5 
89 28 29 176 173 
90 173 176 177 174 
91 174 177 178 175 
92 175 178 49 48 
93 29 30 179 176 
94 176 179 180 177 
95 177 180 181 178 
96 178 181 50 49 
97 30 31 182 179 
98 179 182 183 180 
99 180 183 184 181 
100 181 184 51 50 
101 31 32 185 182 
102 182 185 186 183 
103 183 186 187 184 
104 184 187 52 51 
105 32 4 59 185 
106 185 59 60 186 
107 186 60 61 187 
108 187 61 8 52 
2 6 3 24
109 1 56 188 18 
110 56 57 189 188 
111 57 58 190 189 
112 58 6 38 190 
113 18 188 191 19 
114 188 189 192 191 
115 189 190 193 192 
116 190 38 39 193 
117 19 191 194 20 
118 191 192 195 194 
119 192 193 196 195 
120 193 39 40 196 
121 20 194 197 21 
122 194 195 198 197 
123 195 196 199 198 
124 196 40 41 199 
125 21 197 200 22 
126 197 198 201 200 
127 198 199 202 201 
128 199 41 42 202 
129 22 200 62 3 
130 200 201 63 62 
131 201 202 64 63 
132 202 42 7 64 
2 7 2 90
133 69 234 9 
134 9 234 70 
135 10 236 65 
136 80 236 10 
137 74 233 11 
138 11 233 79 
139 75 235 12 
140 12 235 84 
141 65 207 66 
142 65 236 207 
143 66 220 67 
144 207 220 66 
145 67 205 68 
146 67 220 205 
147 68 224 69 
148 205 224 68 
149 224 234 69 
150 70 209 71 
151 70 234 209 
152 71 221 72 
153 209 221 71 
154 72 203 73 
155 72 221 203 
156 73 210 74 
157 203 210 73 
158 210 233 74 
159 76 208 75 
160 208 235 75 
161 77 222 76 
162 76 222 208 
163 78 206 77 
164 206 222 77 
165 79 223 78 
166 78 223 206 
167 79 233 223 
168 81 226 80 
169 226 236 80 
170 82 227 81 
171 81 227 226 
172 83 204 82 
173 204 227 82 
174 84 225 83 
175 83 225 204 
176 84 235 225 
177 203 211 210 
178 203 212 211 
179 203 221 212 
180 218 227 204 
181 204 228 218 
182 225 230 204 
183 204 230 228 
184 219 224 205 
185 205 232 219 
186 220 232 205 
187 206 223 211 
188 211 231 206 
189 206 231 222 
190 207 229 220 
191 226 229 207 
192 207 236 226 
193 222 230 208 
194 208 230 225 
195 225 235 208 
196 219 221 209 
197 209 224 219 
198 209 234 224 
199 211 223 210 
200 223 233 210 
201 212 213 211 
202 213 231 211 
203 212 214 213 
204 212 219 214 
205 212 221 219 
206 214 215 213 
207 215 216 213 
208 216 231 213 
209 214 217 215 
210 214 232 217 
211 219 232 214 
212 215 228 216 
213 217 218 215 
214 218 228 215 
215 216 230 222 
216 222 231 216 
217 228 230 216 
218 217 229 218 
219 220 229 217 
220 217 232 220 
221 218 229 227 
222 227 229 226 
2 8 2 50
223 33 5 253 
224 5 85 253 
225 6 37 251 
226 87 6 251 
227 69 9 250 
228 9 88 250 
229 10 65 252 
230 86 10 252 
231 34 33 238 
232 238 33 253 
233 35 34 241 
234 34 238 241 
235 36 35 237 
236 237 35 241 
237 37 36 245 
238 36 237 245 
239 37 245 251 
240 65 66 243 
241 65 243 252 
242 66 67 240 
243 66 240 243 
244 67 68 242 
245 240 67 242 
246 68 69 244 
247 242 68 244 
248 244 69 250 
249 85 86 246 
250 85 246 253 
251 246 86 252 
252 88 87 239 
253 239 87 251 
254 88 239 250 
255 237 241 248 
256 245 237 249 
257 237 248 249 
258 241 238 247 
259 238 246 247 
260 246 238 253 
261 244 239 249 
262 239 244 250 
263 239 245 249 
264 245 239 251 
265 240 242 248 
266 243 240 247 
267 247 240 248 
268 241 247 248 
269 242 244 249 
270 248 242 249 
271 246 243 247 
272 243 246 252 
2 9 2 50
273 7 268 47 
274 91 268 7 
275 43 270 8 
276 8 270 89 
277 79 267 11 
278 11 267 92 
279 12 269 75 
280 90 269 12 
281 44 255 43 
282 255 270 43 
283 45 258 44 
284 44 258 255 
285 46 254 45 
286 254 258 45 
287 47 262 46 
288 46 262 254 
289 47 268 262 
290 75 260 76 
291 75 269 260 
292 76 257 77 
293 76 260 257 
294 77 259 78 
295 257 259 77 
296 78 261 79 
297 259 261 78 
298 261 267 79 
299 89 263 90 
300 89 270 263 
301 263 269 90 
302 92 256 91 
303 256 268 91 
304 92 267 256 
305 254 265 258 
306 262 266 254 
307 254 266 265 
308 258 264 255 
309 255 264 263 
310 263 270 255 
311 261 266 256 
312 256 267 261 
313 256 266 262 
314 262 268 256 
315 257 265 259 
316 260 264 257 
317 264 265 257 
318 258 265 264 
319 259 266 261 
320 265 266 259 
321 263 264 260 
322 260 269 263 
2 10 2 50
323 5 48 287 
324 85 5 287 
325 52 8 285 
326 8 89 285 
327 80 10 286 
328 10 86 286 
329 12 84 284 
330 90 12 284 
331 48 49 272 
332 48 272 287 
333 49 50 275 
334 272 49 275 
335 50 51 271 
336 50 271 275 
337 51 52 279 
338 271 51 279 
339 279 52 285 
340 81 80 276 
341 276 80 286 
342 82 81 274 
343 274 81 276 
344 83 82 277 
345 82 274 277 
346 84 83 278 
347 83 277 278 
348 84 278 284 
349 86 85 280 
350 280 85 287 
351 86 280 286 
352 89 90 273 
353 89 273 285 
354 273 90 284 
355 275 271 281 
356 271 279 283 
357 281 271 283 
358 272 275 282 
359 280 272 282 
360 272 280 287 
361 273 278 283 
362 278 273 284 
363 279 273 283 
364 273 279 285 
365 274 276 282 
366 277 274 281 
367 281 274 282 
368 275 281 282 
369 276 280 282 
370 280 276 286 
371 278 277 283 
372 277 281 283 
2 11 2 50
373 6 304 38 
374 87 304 6 
375 42 302 7 
376 7 302 91 
377 70 303 9 
378 9 303 88 
379 11 301 74 
380 92 301 11 
381 38 289 39 
382 38 304 289 
383 39 292 40 
384 289 292 39 
385 40 288 41 
386 40 292 288 
387 41 296 42 
388 288 296 41 
389 296 302 42 
390 71 293 70 
391 293 303 70 
392 72 291 71 
393 291 293 71 
394 73 294 72 
395 72 294 291 
396 74 295 73 
397 73 295 294 
398 74 301 295 
399 88 297 87 
400 297 304 87 
401 88 303 297 
402 91 290 92 
403 91 302 290 
404 290 301 92 
405 292 298 288 
406 288 300 296 
407 298 300 288 
408 289 299 292 
409 297 299 289 
410 289 304 297 
411 290 300 295 
412 295 301 290 
413 296 300 290 
414 290 302 296 
415 291 299 293 
416 294 298 291 
417 298 299 291 
418 292 299 298 
419 293 299 297 
420 297 303 293 
421 295 300 294 
422 294 300 298 
3 1 5 144
423 93 13 2 28 305 143 53 173 
424 305 143 53 173 306 148 54 174 
425 306 148 54 174 307 153 55 175 
426 307 153 55 175 118 33 5 48 
427 94 93 28 29 308 305 173 176 
428 308 305 173 176 309 306 174 177 
429 309 306 174 177 310 307 175 178 
430 310 307 175 178 119 118 48 49 
431 95 94 29 30 311 308 176 179 
432 311 308 176 179 312 309 177 180 
433 312 309 177 180 313 310 178 181 
434 313 310 178 181 120 119 49 50 
435 96 95 30 31 314 311 179 182 
436 314 311 179 182 315 312 180 183 
437 315 312 180 183 316 313 181 184 
438 316 313 181 184 121 120 50 51 
439 97 96 31 32 317 314 182 185 
440 317 314 182 185 318 315 183 186 
441 318 315 183 186 319 316 184 187 
442 319 316 184 187 122 121 51 52 
443 23 97 32 4 158 317 185 59 
444 158 317 185 59 163 318 186 60 
445 163 318 186 60 168 319 187 61 
446 168 319 187 61 43 122 52 8 
447 98 14 13 93 320 144 143 305 
448 320 144 143 305 321 149 148 306 
449 321 149 148 306 322 154 153 307 
450 322 154 153 307 123 34 33 118 
451 99 98 93 94 323 320 305 308 
452 323 320 305 308 324 321 306 309 
453 324 321 306 309 325 322 307 310 
454 325 322 307 310 124 123 118 119 
455 100 99 94 95 326 323 308 311 
456 326 323 308 311 327 324 309 312 
457 327 324 309 312 328 325 310 313 
458 328 325 310 313 125 124 119 120 
459 101 100 95 96 329 326 311 314 
460 329 326 311 314 330 327 312 315 
461 330 327 312 315 331 328 313 316 
462 331 328 313 316 126 125 120 121 
463 102 101 96 97 332 329 314 317 
464 332 329 314 317 333 330 315 318 
465 333 330 315 318 334 331 316 319 
466 334 331 316 319 127 126 121 122 
467 24 102 97 23 159 332 317 158 
468 159 332 317 158 164 333 318 163 
469 164 333 318 163 169 334 319 168 
470 169 334 319 168 44 127 122 43 
471 103 15 14 98 335 145 144 320 
472 335 145 144 320 336 150 149 321 
473 336 150 149 321 337 155 154 322 
474 337 155 154 322 128 35 34 123 
475 104 103 98 99 338 335 320 323 
476 338 335 320 323 339 336 321 324 
477 339 336 321 324 340 337 322 325 
478 340 337 322 325 129 128 123 124 
479 105 104 99 100 341 338 323 326 
480 341 338 323 326 342 339 324 327 
481 342 339 324 327 343 340 325 328 
482 343 340 325 328 130 129 124 125 
483 106 105 100 101 344 341 326 329 
484 344 341 326 329 345 342 327 330 
485 345 342 327 330 346 343 328 331 
486 346 343 328 331 131 130 125 126 
487 107 106 101 102 347 344 329 332 
488 347 344 329 332 348 345 330 333 
489 348 345 330 333 349 346 331 334 
490 349 346 331 334 132 131 126 127 
491 25 107 102 24 160 347 332 159 
492 160 347 332 159 165 348 333 164 
493 165 348 333 164 170 349 334 169 
494 170 349 334 169 45 132 127 44 
495 108 16 15 103 350 146 145 335 
496 350 146 145 335 351 151 150 336 
497 351 151 150 336 352 156 155 337 
498 352 156 155 337 133 36 35 128 
499 109 108 103 104 353 350 335 338 
500 353 350 335 338 354 351 336 339 
501 354 351 336 339 355 352 337 340 
502 355 352 337 340 134 133 128 129 
503 110 109 104 105 356 353 338 341 
504 356 353 338 341 357 354 339 342 
505 357 354 339 342 358 355 340 343 
506 358 355 340 343 135 134 129 130 
507 111 110 105 106 359 356 341 344 
508 359 356 341 344 360 357 342 345 
509 360 357 342 345 361 358 343 346 
510 361 358 343 346 136 135 130 131 
511 112 111 106 107 362 359 344 347 
512 362 359 344 347 363 360 345 348 
513 363 360 345 348 364 361 346 349 
514 364 361 346 349 137 136 131 132 
515 26 112 107 25 161 362 347 160 
516 161 362 347 160 166 363 348 165 
517 166 363 348 165 171 364 349 170 
518 171 364 349 170 46 137 132 45 
519 113 17 16 108 365 147 146 350 
520 365 147 146 350 366 152 151 351 
521 366 152 151 351 367 157 156 352 
522 367 157 156 352 138 37 36 133 
523 114 113 108 109 368 365 350 353 
524 368 365 350 353 369 366 351 354 
525 369 366 351 354 370 367 352 355 
526 370 367 352 355 139 138 133 134 
527 115 114 109 110 371 368 353 356 
528 371 368 353 356 372 369 354 357 
529 372 369 354 357 373 370 355 358 
530 373 370 355 358 140 139 134 135 
531 116 115 110 111 374 371 356 359 
532 374 371 356 359 375 372 357 360 
533 375 372 357 360 376 373 358 361 
534 376 373 358 361 141 140 135 136 
535 117 116 111 112 377 374 359 362 
536 377 374 359 362 378 375 360 363 
537 378 375 360 363 379 376 361 364 
538 379 376 361 364 142 141 136 137 
539 27 117 112 26 162 377 362 161 
540 162 377 362 161 167 378 363 166 
541 167 378 363 166 172 379 364 171 
542 172 379 364 171 47 142 137 46 
543 18 1 17 113 188 56 147 365 
544 188 56 147 365 189 57 152 366 
545 189 57 152 366 190 58 157 367 
546 190 58 157 367 38 6 37 138 
547 19 18 113 114 191 188 365 368 
548 191 188 365 368 192 189 366 369 
549 192 189 366 369 193 190 367 370 
550 193 190 367 370 39 38 138 139 
551 20 19 114 115 194 191 368 371 
552 194 191 368 371 195 192 369 372 
553 195 192 369 372 196 193 370 373 
554 196 193 370 373 40 39 139 140 
555 21 20 115 116 197 194 371 374 
556 197 194 371 374 198 195 372 375 
557 198 195 372 375 199 196 373 376 
558 199 196 373 376 41 40 140 141 
559 22 21 116 117 200 197 374 377 
560 200 197 374 377 201 198 375 378 
561 201 198 375 378 202 199 376 379 
562 202 199 376 379 42 41 141 142 
563 3 22 117 27 62 200 377 162 
564 62 200 377 162 63 201 378 167 
565 63 201 378 167 64 202 379 172 
566 64 202 379 172 7 42 142 47 
3 2 4 633
567 299 297 289 387 
568 298 300 294 384 
569 231 213 211 381 
570 260 208 257 388 
571 281 275 282 382 
572 303 293 209 387 
573 297 299 293 387 
574 303 209 234 387 
575 211 213 212 386 
576 250 303 234 387 
577 282 274 281 382 
578 303 297 293 387 
579 222 257 208 388 
580 240 207 243 385 
581 218 217 215 386 
582 250 297 303 387 
583 250 239 297 387 
584 260 257 264 388 
585 285 279 273 388 
586 220 207 240 385 
587 127 255 264 388 
588 229 217 218 380 
589 249 237 245 387 
590 275 282 382 385 
591 216 228 215 386 
592 247 240 243 385 
593 222 208 230 388 
594 263 255 270 388 
595 227 382 274 385 
596 292 288 298 383 
597 239 138 297 387 
598 274 382 282 385 
599 224 244 250 387 
600 214 232 219 387 
601 224 250 234 387 
602 296 300 288 384 
603 265 266 254 381 
604 239 250 244 387 
605 281 271 275 382 
606 212 203 211 384 
607 261 259 206 384 
608 265 259 266 381 
609 271 283 279 382 
610 234 209 224 387 
611 274 276 227 385 
612 261 266 259 384 
613 263 270 285 388 
614 291 221 293 383 
615 294 203 291 383 
616 241 237 248 380 
617 293 221 209 383 
618 227 218 382 385 
619 242 67 240 220 
620 298 294 383 384 
621 230 228 216 382 
622 259 257 77 222 
623 279 382 283 388 
624 294 291 298 383 
625 227 276 226 385 
626 258 265 254 381 
627 218 380 217 386 
628 253 246 287 385 
629 263 285 273 388 
630 214 217 232 380 
631 240 242 220 380 
632 249 248 237 387 
633 211 212 384 386 
634 261 206 223 384 
635 294 295 203 384 
636 82 204 277 274 
637 253 238 246 385 
638 203 291 72 294 
639 299 289 383 387 
640 260 257 208 76 
641 291 293 299 383 
642 294 203 383 384 
643 203 295 210 384 
644 66 243 240 207 
645 279 283 273 388 
646 203 221 291 383 
647 227 229 218 385 
648 240 248 242 380 
649 278 277 204 382 
650 204 277 274 382 
651 287 246 280 385 
652 274 282 276 385 
653 278 204 225 382 
654 205 220 242 380 
655 257 222 259 381 
656 67 242 205 220 
657 77 206 259 222 
658 214 380 232 387 
659 245 239 249 387 
660 231 216 213 381 
661 302 268 256 384 
662 222 381 257 388 
663 254 381 266 384 
664 218 229 380 385 
665 218 380 382 385 
666 302 256 290 384 
667 287 280 272 385 
668 293 291 71 221 
669 300 295 294 384 
670 204 277 278 83 
671 220 229 207 385 
672 281 274 277 382 
673 262 256 268 384 
674 123 247 238 385 
675 294 73 203 295 
676 72 221 291 203 
677 278 283 277 382 
678 204 274 227 382 
679 257 222 208 76 
680 204 278 225 83 
681 209 293 71 221 
682 257 381 264 388 
683 220 66 240 207 
684 204 82 227 274 
685 259 222 206 381 
686 216 382 228 386 
687 73 210 203 295 
688 212 383 203 384 
689 257 259 265 381 
690 290 296 302 384 
691 278 382 225 388 
692 233 301 267 384 
693 286 252 236 385 
694 215 213 216 386 
695 259 381 206 384 
696 266 381 259 384 
697 259 206 78 261 
698 244 242 205 68 
699 214 215 217 386 
700 218 382 380 386 
701 226 276 286 385 
702 290 267 301 384 
703 286 236 226 385 
704 242 248 249 387 
705 121 382 279 388 
706 293 383 209 387 
707 127 264 381 388 
708 227 226 229 385 
709 256 267 290 384 
710 299 383 293 387 
711 222 230 381 388 
712 280 252 286 385 
713 220 240 380 385 
714 264 255 263 388 
715 81 227 274 276 
716 254 266 137 384 
717 206 223 78 261 
718 276 81 227 226 
719 209 221 219 383 
720 68 205 244 224 
721 232 220 205 380 
722 238 247 246 385 
723 212 213 214 386 
724 256 261 267 384 
725 225 204 230 382 
726 278 283 382 388 
727 230 216 222 381 
728 248 380 237 387 
729 246 252 280 385 
730 383 384 212 386 
731 210 211 203 384 
732 247 380 240 385 
733 219 212 214 383 
734 123 238 395 385 
735 206 211 223 384 
736 264 265 258 381 
737 249 239 244 387 
738 247 241 248 380 
739 227 218 204 382 
740 295 290 301 384 
741 203 212 221 383 
742 256 262 266 384 
743 225 382 230 388 
744 243 252 246 385 
745 244 205 242 387 
746 229 220 217 380 
747 230 216 381 382 
748 247 248 240 380 
749 233 223 210 384 
750 257 265 264 381 
751 226 236 207 385 
752 246 247 243 385 
753 214 219 383 387 
754 205 380 242 387 
755 206 222 231 381 
756 301 290 92 267 
757 302 268 91 256 
758 261 256 266 384 
759 214 217 380 386 
760 422 288 40 292 
761 275 50 392 271 
762 45 258 254 412 
763 290 256 92 267 
764 91 290 302 256 
765 244 224 205 387 
766 213 381 216 386 
767 278 273 283 388 
768 272 280 282 385 
769 296 290 300 384 
770 299 292 298 383 
771 242 380 248 387 
772 280 286 276 385 
773 238 401 34 241 
774 289 421 39 292 
775 49 272 275 391 
776 258 406 44 255 
777 217 220 232 380 
778 204 218 228 382 
779 210 295 74 233 
780 299 298 291 383 
781 213 215 214 386 
782 225 235 84 278 
783 224 209 219 387 
784 84 235 284 278 
785 267 79 233 261 
786 301 74 295 233 
787 220 380 229 385 
788 230 382 381 388 
789 246 287 85 253 
790 86 280 252 286 
791 380 214 386 387 
792 300 290 295 384 
793 230 204 228 382 
794 223 233 79 261 
795 281 283 271 382 
796 212 214 383 386 
797 123 380 247 385 
798 216 381 382 386 
799 252 243 65 236 
800 216 231 222 381 
801 232 380 205 387 
802 41 296 288 422 
803 271 51 392 279 
804 237 407 36 245 
805 383 386 214 387 
806 276 282 280 385 
807 235 260 75 269 
808 264 263 260 388 
809 207 229 226 385 
810 80 226 276 286 
811 209 383 219 387 
812 219 221 212 383 
813 269 284 263 90 
814 270 89 263 285 
815 297 88 250 303 
816 277 283 281 382 
817 75 208 260 235 
818 284 273 263 90 
819 273 263 89 285 
820 207 65 243 236 
821 88 239 297 250 
822 251 87 239 297 
823 249 244 242 387 
824 210 223 211 384 
825 286 80 226 236 
826 235 260 269 388 
827 287 246 85 280 
828 280 246 86 252 
829 256 91 290 92 
830 235 208 260 388 
831 263 284 269 388 
832 275 382 397 385 
833 263 273 284 388 
834 232 205 219 387 
835 222 257 77 76 
836 66 240 67 220 
837 208 225 230 388 
838 291 71 221 72 
839 140 292 421 383 
840 83 204 277 82 
841 78 206 259 77 
842 67 205 242 68 
843 72 73 203 294 
844 284 235 269 388 
845 123 395 118 385 
846 89 263 273 90 
847 87 239 297 88 
848 286 252 10 236 
849 233 301 11 267 
850 9 234 250 303 
851 284 235 12 269 
852 73 210 295 74 
853 397 382 380 385 
854 71 70 293 209 
855 416 288 383 384 
856 82 81 227 274 
857 289 414 383 387 
858 85 246 86 280 
859 205 224 219 387 
860 223 79 78 261 
861 244 68 224 69 
862 278 84 225 83 
863 226 276 81 80 
864 284 273 278 388 
865 302 7 268 424 
866 287 389 5 253 
867 39 139 289 420 
868 127 44 255 400 
869 34 123 238 395 
870 394 8 270 285 
871 40 140 292 421 
872 50 275 120 391 
873 403 380 382 386 
874 289 414 139 383 
875 51 121 279 393 
876 133 36 245 413 
877 79 233 11 267 
878 301 11 74 233 
879 284 12 235 84 
880 250 234 9 69 
881 275 50 120 392 
882 140 40 292 422 
883 253 5 287 85 
884 65 10 252 236 
885 286 10 80 236 
886 252 10 86 286 
887 235 75 12 269 
888 9 234 303 70 
889 263 269 260 388 
890 235 225 208 388 
891 76 208 260 75 
892 418 262 47 268 
893 296 42 302 423 
894 52 393 279 285 
895 413 251 37 245 
896 304 420 38 289 
897 400 270 43 255 
898 272 48 287 390 
899 395 33 253 238 
900 397 275 120 382 
901 302 268 7 91 
902 301 92 11 267 
903 123 34 238 401 
904 139 39 289 421 
905 44 127 255 406 
906 269 12 284 90 
907 250 88 9 303 
908 8 89 270 285 
909 243 66 65 207 
910 137 418 142 384 
911 381 382 399 388 
912 416 384 383 386 
913 127 381 399 388 
914 408 237 380 387 
915 51 121 392 279 
916 36 133 245 407 
917 141 142 423 384 
918 123 128 401 380 
919 389 33 5 253 
920 5 48 389 287 
921 419 6 37 251 
922 52 8 394 285 
923 42 7 302 424 
924 268 7 47 424 
925 270 43 8 394 
926 6 38 304 419 
927 399 382 121 388 
928 48 118 389 287 
929 142 42 302 424 
930 394 52 285 122 
931 138 37 251 419 
932 140 421 139 383 
933 120 392 121 382 
934 279 51 393 52 
935 413 37 36 245 
936 296 41 42 423 
937 47 46 262 418 
938 50 51 392 271 
939 46 45 254 412 
940 40 41 288 422 
941 407 36 35 237 
942 272 49 48 390 
943 34 33 395 238 
944 39 38 420 289 
945 400 43 44 255 
946 401 35 34 241 
947 275 50 49 391 
948 406 44 45 258 
949 40 39 421 292 
950 48 118 287 390 
951 42 142 302 423 
952 285 52 393 122 
953 37 138 251 413 
954 404 382 381 386 
955 403 382 125 386 
956 396 380 123 385 
957 118 396 123 385 
958 408 380 134 387 
959 142 417 137 384 
960 123 402 128 380 
961 142 141 417 384 
962 404 125 382 386 
963 139 415 140 383 
964 121 398 120 382 
965 409 380 129 386 
966 134 414 133 387 
967 133 408 134 387 
968 134 383 414 387 
969 403 129 380 386 
970 134 408 129 380 
971 134 129 409 380 
972 120 125 397 382 
973 125 120 398 382 
974 139 414 134 383 
975 134 415 139 383 
976 128 129 408 380 
977 129 128 402 380 
978 403 125 130 386 
979 404 130 125 386 
980 403 130 129 386 
981 409 129 130 386 
982 135 409 130 386 
983 135 130 410 386 
984 297 251 138 239 
985 209 303 70 293 
986 209 70 303 234 
987 386 211 381 384 
988 386 381 211 213 
989 384 298 288 383 
990 384 288 298 300 
991 211 381 206 231 
992 206 381 211 384 
993 233 295 384 210 
994 233 384 295 301 
995 385 272 275 282 
996 386 228 218 382 
997 386 218 228 215 
998 224 250 69 234 
999 69 250 224 244 
1000 261 233 384 223 
1001 261 384 233 267 
1002 385 395 253 238 
1003 121 399 393 122 
1004 399 388 393 122 
1005 388 393 285 279 
1006 388 285 393 122 
1007 387 297 414 138 
1008 387 414 297 289 
1009 304 297 420 289 
1010 420 139 414 138 
1011 420 414 139 289 
1012 297 420 414 138 
1013 297 414 420 289 
1014 127 400 399 122 
1015 400 388 399 122 
1016 388 270 400 255 
1017 383 292 289 299 
1018 236 243 385 252 
1019 236 385 243 207 
1020 390 385 287 272 
1021 287 385 390 118 
1022 120 391 397 119 
1023 397 391 120 275 
1024 397 385 272 275 
1025 397 272 391 275 
1026 278 235 388 225 
1027 278 388 235 284 
1028 422 141 416 140 
1029 383 422 416 140 
1030 383 416 422 288 
1031 292 422 383 140 
1032 292 383 422 288 
1033 411 137 412 132 
1034 128 407 408 133 
1035 408 407 387 133 
1036 408 387 407 237 
1037 387 407 245 133 
1038 387 245 407 237 
1039 268 384 418 262 
1040 406 381 264 258 
1041 264 381 406 127 
1042 264 255 406 258 
1043 406 255 264 127 
1044 423 384 302 296 
1045 302 384 423 142 
1046 381 406 411 258 
1047 411 406 412 258 
1048 411 412 406 132 
1049 412 406 45 258 
1050 412 45 406 132 
1051 401 380 247 123 
1052 247 380 401 241 
1053 247 238 401 123 
1054 401 238 247 241 
1055 389 287 385 253 
1056 389 385 287 118 
1057 395 389 385 253 
1058 395 385 389 118 
1059 33 389 395 253 
1060 33 395 389 118 
1061 419 138 297 251 
1062 419 297 87 251 
1063 87 297 419 304 
1064 419 87 6 251 
1065 6 87 419 304 
1066 285 394 388 270 
1067 285 388 394 122 
1068 388 394 400 270 
1069 388 400 394 122 
1070 400 394 43 270 
1071 400 43 394 122 
1072 424 302 384 268 
1073 424 384 302 142 
1074 418 424 384 268 
1075 418 384 424 142 
1076 47 424 418 268 
1077 47 418 424 142 
1078 421 383 289 139 
1079 289 383 421 292 
1080 382 392 275 120 
1081 382 275 392 271 
1082 382 392 279 271 
1083 382 279 392 121 
1084 121 388 393 399 
1085 393 388 121 279 
1086 388 127 400 399 
1087 388 400 127 255 
1088 390 49 391 272 
1089 390 391 49 119 
1090 397 390 391 272 
1091 397 391 390 119 
1092 385 390 397 272 
1093 422 416 296 288 
1094 384 296 416 288 
1095 254 137 46 412 
1096 387 134 409 380 
1097 409 134 387 383 
1098 409 386 387 380 
1099 387 386 409 383 
1100 387 133 138 414 
1101 411 384 254 137 
1102 254 384 411 381 
1103 254 412 411 137 
1104 125 397 403 124 
1105 125 403 397 382 
1106 380 397 403 382 
1107 381 384 410 386 
1108 384 416 410 386 
1109 416 410 135 136 
1110 416 135 410 386 
1111 384 410 411 381 
1112 131 410 411 136 
1113 131 411 410 381 
1114 119 396 397 124 
1115 380 396 397 385 
1116 410 381 404 131 
1117 404 381 410 386 
1118 404 130 410 131 
1119 410 130 404 386 
1120 131 405 404 126 
1121 131 404 405 381 
1122 405 127 399 126 
1123 405 399 127 381 
1124 382 399 405 381 
1125 404 382 405 381 
1126 123 402 396 124 
1127 123 396 402 380 
1128 396 402 397 124 
1129 396 397 402 380 
1130 397 402 403 124 
1131 397 403 402 380 
1132 403 402 129 124 
1133 403 129 402 380 
1134 141 417 416 136 
1135 141 416 417 384 
1136 417 137 411 136 
1137 417 411 137 384 
1138 410 417 411 136 
1139 410 411 417 384 
1140 416 417 410 136 
1141 416 410 417 384 
1142 121 398 399 126 
1143 121 399 398 382 
1144 398 125 404 126 
1145 398 404 125 382 
1146 405 398 404 126 
1147 405 404 398 382 
1148 399 398 405 126 
1149 399 405 398 382 
1150 416 386 409 135 
1151 409 386 416 383 
1152 415 140 416 135 
1153 416 140 415 383 
1154 134 415 409 135 
1155 409 415 134 383 
1156 415 416 409 135 
1157 409 416 415 383 
1158 133 413 387 138 
1159 387 413 133 245 
1160 413 239 387 138 
1161 387 239 413 245 
1162 413 251 239 138 
1163 239 251 413 245 
1164 384 418 266 137 
1165 384 266 418 262 
1166 266 418 254 137 
1167 266 254 418 262 
1168 254 418 46 137 
1169 254 46 418 262 
1170 423 384 416 141 
1171 416 384 423 296 
1172 423 416 422 141 
1173 422 416 423 296 
1174 423 422 41 141 
1175 41 422 423 296 
1176 380 237 401 241 
1177 35 401 237 241 
1178 401 408 380 128 
1179 401 380 408 237 
1180 35 407 401 128 
1181 35 401 407 237 
1182 407 408 401 128 
1183 407 401 408 237 
1184 405 411 131 381 
1185 405 131 411 132 
1186 127 406 405 381 
1187 127 405 406 132 
1188 406 411 405 381 
1189 406 405 411 132 
1190 419 38 420 138 
1191 420 38 419 304 
1192 420 297 419 138 
1193 419 297 420 304 
1194 118 390 396 385 
1195 118 396 390 119 
1196 397 396 390 385 
1197 397 390 396 119 
1198 411 254 258 412 
1199 258 254 411 381 
3 2 7 36
1200 118 33 5 48 389 
1201 119 118 48 49 390 
1202 120 119 49 50 391 
1203 121 120 50 51 392 
1204 122 121 51 52 393 
1205 43 122 52 8 394 
1206 123 34 33 118 395 
1207 124 123 118 119 396 
1208 125 124 119 120 397 
1209 126 125 120 121 398 
1210 127 126 121 122 399 
1211 44 127 122 43 400 
1212 128 35 34 123 401 
1213 129 128 123 124 402 
1214 130 129 124 125 403 
1215 131 130 125 126 404 
1216 132 131 126 127 405 
1217 45 132 127 44 406 
1218 133 36 35 128 407 
1219 134 133 128 129 408 
1220 135 134 129 130 409 
1221 136 135 130 131 410 
1222 137 136 131 132 411 
1223 46 137 132 45 412 
1224 138 37 36 133 413 
1225 139 138 133 134 414 
1226 140 139 134 135 415 
1227 141 140 135 136 416 
1228 142 141 136 137 417 
1229 47 142 137 46 418 
1230 38 6 37 138 419 
1231 39 38 138 139 420 
1232 40 39 139 140 421 
1233 41 40 140 141 422 
1234 42 41 141 142 423 
1235 7 42 142 47 424 
$EndElements
