$MeshFormat
2.2 0 8
$EndMeshFormat
$PhysicalNames
3
1 1 "movingWall"
1 2 "fixedWalls"
2 3 "fluid"
$EndPhysicalNames
$Nodes
155
1 0 0 0
2 0.5 0 0
3 0.5 1 0
4 0 1 0
5 1 0 0
6 1 1 0
7 0.1 0 0
8 0.2 0 0
9 0.3 0 0
10 0.4 0 0
11 0.5 0.1 0
12 0.5 0.2 0
13 0.5 0.3 0
14 0.5 0.4 0
15 0.5 0.5 0
16 0.5 0.6 0
17 0.5 0.7 0
18 0.5 0.8 0
19 0.5 0.9 0
20 0.4 1 0
21 0.3 1 0
22 0.2 1 0
23 0.09999999999999998 1 0
24 0 0.9 0
25 0 0.8 0
26 0 0.7 0
27 0 0.6 0
28 0 0.5 0
29 0 0.4 0
30 0 0.3 0
31 0 0.2 0
32 0 0.09999999999999998 0
33 0.5833333333333334 0 0
34 0.6666666666666667 0 0
35 0.75 0 0
36 0.8333333333333334 0 0
37 0.9166666666666667 0 0
38 1 0.1 0
39 1 0.2 0
40 1 0.3 0
41 1 0.4 0
42 1 0.5 0
43 1 0.6 0
44 1 0.7 0
45 1 0.8 0
46 1 0.9 0
47 0.9166666666666666 1 0
48 0.8333333333333333 1 0
49 0.75 1 0
50 0.6666666666666666 1 0
51 0.5833333333333333 1 0
52 0.4182250380398611 0.2551569590302636 0
53 0.4158003079246598 0.4513306389925595 0
54 0.4133974596215562 0.6499999999999999 0
55 0.08224840025510172 0.7456627524067205 0
56 0.08419969207534014 0.5486693610074405 0
57 0.08660254037844387 0.35 0
58 0.2556674571293667 0.0818533060241286 0
59 0.245166047252571 0.9186224219100394 0
60 0.08467720450558316 0.1504237369280876 0
61 0.4153227954944169 0.8495762630719124 0
62 0.4137183489336996 0.749929377178652 0
63 0.3268484007951362 0.6999882295297754 0
64 0.3275720776156648 0.6013286772475221 0
65 0.2401923788646685 0.65 0
66 0.2461227674419554 0.5501581758628002 0
67 0.2407310433131522 0.7576059890692328 0
68 0.0953290072940286 0.8424378470671685 0
69 0.0862816510663004 0.250070622821348 0
70 0.1731515992048638 0.3000117704702246 0
71 0.1724279223843353 0.3986713227524779 0
72 0.2598076211353315 0.35 0
73 0.2592841894214821 0.2423993836890459 0
74 0.2545832311981978 0.4498606545970569 0
75 0.08220716859559241 0.6490553522356934 0
76 0.08530429448528606 0.4482261416340935 0
77 0.1645665644957383 0.1969713920531518 0
78 0.3354425271929644 0.8030339411549643 0
79 0.3499432116976143 0.08469107173838686 0
80 0.4165933725968027 0.3507723330979551 0
81 0.4146957055147139 0.5517738583659064 0
82 0.4054406744638431 0.1578122160707967 0
83 0.1581738912994443 0.0939435757350448 0
84 0.3419520963388731 0.9061289510696269 0
85 0.1530389498800314 0.9191911997574211 0
86 0.3070930028645257 0.1579909059198887 0
87 0.1936818823468328 0.8427848473919243 0
88 0.3322318048925003 0.5028110960188932 0
89 0.1679362900218219 0.49719338742393 0
90 0.1640092927701557 0.599179379421644 0
91 0.1610460241584728 0.6959133312622691 0
92 0.335936479687656 0.4007957871177442 0
93 0.3388280421912412 0.3041937344248208 0
94 0.4267949192431123 0.07320508075688775 0
95 0.07320508075688761 0.07320508075688764 0
96 0.4267949192431124 0.9267949192431124 0
97 0.07320508075688761 0.9267949192431124 0
98 0.1568878611521663 0.7739765144403237 0
99 0.3457741893961906 0.2235106398269631 0
100 0.2289570210421114 0.154631712684252 0
101 0.2709383851890472 0.8448751121073605 0
102 0.6011243157409011 0.242071970403858 0
103 0.5858984571140849 0.7387291612876759 0
104 0.5796822881834162 0.40934963454226 0
105 0.7599558448076106 0.9291662903322393 0
106 0.7929451188542316 0.07068376596714127 0
107 0.9124333185010445 0.3668903020687743 0
108 0.8828140679893178 0.6659223700384483 0
109 0.6592889455265292 0.07598608367179654 0
110 0.6307366254704143 0.927340827902903 0
111 0.9180357311168301 0.8275544713088766 0
112 0.918227469928376 0.172996273530273 0
113 0.9104562322265262 0.7407118687950557 0
114 0.8228921102049374 0.7046232761188127 0
115 0.8269385708540714 0.6029457960906112 0
116 0.7515372343848697 0.6745965784601247 0
117 0.7499206997290968 0.7731482020254097 0
118 0.7771877426511365 0.5360890972005694 0
119 0.830105055629474 0.5040456337813985 0
120 0.7528070328294576 0.4551321735129493 0
121 0.7026023963168426 0.5788978746059699 0
122 0.8293391317473242 0.4423773514710852 0
123 0.7394382995882139 0.3635182411391287 0
124 0.8253840129657614 0.3534637667151109 0
125 0.7172784255747613 0.2544822578955358 0
126 0.8224610091810588 0.2542079702813358 0
127 0.7337010471808768 0.1520282118939948 0
128 0.9131728773231634 0.2717092868305362 0
129 0.9096925630634963 0.462076328022101 0
130 0.8292642680825139 0.7642837828431175 0
131 0.5771974107909799 0.3421785312783261 0
132 0.8855732677113873 0.5401261322058342 0
133 0.7558474222949029 0.8538156452195295 0
134 0.6650359904345986 0.7763730521508145 0
135 0.582545325382819 0.1684100703254939 0
136 0.8664254453606963 0.07515898389004261 0
137 0.8379982342327263 0.9233479713116715 0
138 0.7027933621638132 0.9311104720294728 0
139 0.737280105038285 0.07316089430603029 0
140 0.5787626658080739 0.8305682380479908 0
141 0.5891325347796319 0.504257953125817 0
142 0.6751008583185157 0.6960041443573789 0
143 0.6117139195348377 0.6263681276581731 0
144 0.6565607773895549 0.2126617907072038 0
145 0.6750788351590414 0.4843632953423538 0
146 0.6326984045330797 0.3121415177170053 0
147 0.6575836059307438 0.3916810295741463 0
148 0.8262373744483278 0.1409784479304789 0
149 0.6580670114875309 0.1545466131502652 0
150 0.8357828053581136 0.842918965805087 0
151 0.6667764390331088 0.8671249569989123 0
152 0.5806745109605669 0.08610768815896996 0
153 0.5761590805197068 0.9159004972071229 0
154 0.9185306340119148 0.913022413979846 0
155 0.9222285044781823 0.08562065422412918 0
$EndNodes
$Elements
239
1 1 2 2 1 1 7
2 1 2 2 1 7 8
3 1 2 2 1 8 9
4 1 2 2 1 9 10
5 1 2 2 1 10 2
6 1 2 1 3 3 20
7 1 2 1 3 20 21
8 1 2 1 3 21 22
9 1 2 1 3 22 23
10 1 2 1 3 23 4
11 1 2 2 4 4 24
12 1 2 2 4 24 25
13 1 2 2 4 25 26
14 1 2 2 4 26 27
15 1 2 2 4 27 28
16 1 2 2 4 28 29
17 1 2 2 4 29 30
18 1 2 2 4 30 31
19 1 2 2 4 31 32
20 1 2 2 4 32 1
21 1 2 2 5 2 33
22 1 2 2 5 33 34
23 1 2 2 5 34 35
24 1 2 2 5 35 36
25 1 2 2 5 36 37
26 1 2 2 5 37 5
27 1 2 2 6 5 38
28 1 2 2 6 38 39
29 1 2 2 6 39 40
30 1 2 2 6 40 41
31 1 2 2 6 41 42
32 1 2 2 6 42 43
33 1 2 2 6 43 44
34 1 2 2 6 44 45
35 1 2 2 6 45 46
36 1 2 2 6 46 6
37 1 2 1 7 6 47
38 1 2 1 7 47 48
39 1 2 1 7 48 49
40 1 2 1 7 49 50
41 1 2 1 7 50 51
42 1 2 1 7 51 3
43 2 2 3 1 61 84 78
44 2 2 3 1 60 83 77
45 2 2 3 1 82 86 79
46 2 2 3 1 68 87 85
47 2 2 3 1 83 100 77
48 2 2 3 1 84 101 78
49 2 2 3 1 82 99 86
50 2 2 3 1 68 98 87
51 2 2 3 1 88 92 53
52 2 2 3 1 89 90 56
53 2 2 3 1 70 77 73
54 2 2 3 1 69 77 70
55 2 2 3 1 17 54 16
56 2 2 3 1 56 75 27
57 2 2 3 1 63 78 67
58 2 2 3 1 10 79 9
59 2 2 3 1 25 68 24
60 2 2 3 1 28 56 27
61 2 2 3 1 31 69 30
62 2 2 3 1 72 74 71
63 2 2 3 1 14 80 13
64 2 2 3 1 15 81 53
65 2 2 3 1 18 62 17
66 2 2 3 1 17 62 54
67 2 2 3 1 61 62 18
68 2 2 3 1 55 68 25
69 2 2 3 1 30 69 57
70 2 2 3 1 62 63 54
71 2 2 3 1 71 76 57
72 2 2 3 1 61 78 62
73 2 2 3 1 62 78 63
74 2 2 3 1 63 67 65
75 2 2 3 1 65 66 64
76 2 2 3 1 26 55 25
77 2 2 3 1 60 69 31
78 2 2 3 1 9 58 8
79 2 2 3 1 13 52 12
80 2 2 3 1 15 53 14
81 2 2 3 1 29 76 28
82 2 2 3 1 28 76 56
83 2 2 3 1 30 57 29
84 2 2 3 1 32 60 31
85 2 2 3 1 69 70 57
86 2 2 3 1 9 79 58
87 2 2 3 1 53 80 14
88 2 2 3 1 22 59 21
89 2 2 3 1 26 75 55
90 2 2 3 1 57 76 29
91 2 2 3 1 60 77 69
92 2 2 3 1 13 80 52
93 2 2 3 1 64 81 54
94 2 2 3 1 70 73 72
95 2 2 3 1 16 81 15
96 2 2 3 1 54 81 16
97 2 2 3 1 19 61 18
98 2 2 3 1 63 64 54
99 2 2 3 1 70 71 57
100 2 2 3 1 63 65 64
101 2 2 3 1 27 75 26
102 2 2 3 1 70 72 71
103 2 2 3 1 12 82 11
104 2 2 3 1 23 85 22
105 2 2 3 1 8 83 7
106 2 2 3 1 21 84 20
107 2 2 3 1 66 89 74
108 2 2 3 1 74 88 66
109 2 2 3 1 66 90 89
110 2 2 3 1 74 92 88
111 2 2 3 1 81 88 53
112 2 2 3 1 74 89 71
113 2 2 3 1 76 89 56
114 2 2 3 1 66 88 64
115 2 2 3 1 22 85 59
116 2 2 3 1 52 82 12
117 2 2 3 1 58 83 8
118 2 2 3 1 59 84 21
119 2 2 3 1 79 86 58
120 2 2 3 1 2 94 10
121 2 2 3 1 11 94 2
122 2 2 3 1 3 96 19
123 2 2 3 1 7 95 1
124 2 2 3 1 4 97 23
125 2 2 3 1 1 95 32
126 2 2 3 1 20 96 3
127 2 2 3 1 24 97 4
128 2 2 3 1 71 89 76
129 2 2 3 1 64 88 81
130 2 2 3 1 55 98 68
131 2 2 3 1 53 92 80
132 2 2 3 1 56 90 75
133 2 2 3 1 90 91 75
134 2 2 3 1 67 91 65
135 2 2 3 1 80 93 52
136 2 2 3 1 65 91 90
137 2 2 3 1 72 93 92
138 2 2 3 1 72 92 74
139 2 2 3 1 65 90 66
140 2 2 3 1 75 91 55
141 2 2 3 1 92 93 80
142 2 2 3 1 73 93 72
143 2 2 3 1 85 87 59
144 2 2 3 1 78 101 67
145 2 2 3 1 77 100 73
146 2 2 3 1 52 99 82
147 2 2 3 1 58 100 83
148 2 2 3 1 59 101 84
149 2 2 3 1 67 101 87
150 2 2 3 1 73 100 86
151 2 2 3 1 84 96 20
152 2 2 3 1 83 95 7
153 2 2 3 1 23 97 85
154 2 2 3 1 82 94 11
155 2 2 3 1 68 97 24
156 2 2 3 1 10 94 79
157 2 2 3 1 19 96 61
158 2 2 3 1 32 95 60
159 2 2 3 1 61 96 84
160 2 2 3 1 79 94 82
161 2 2 3 1 60 95 83
162 2 2 3 1 85 97 68
163 2 2 3 1 86 99 73
164 2 2 3 1 87 98 67
165 2 2 3 1 67 98 91
166 2 2 3 1 73 99 93
167 2 2 3 1 86 100 58
168 2 2 3 1 87 101 59
169 2 2 3 1 91 98 55
170 2 2 3 1 93 99 52
171 3 2 3 2 126 128 107 124
172 3 2 3 2 148 127 139 106
173 3 2 3 2 124 107 129 122
174 3 2 3 2 128 126 148 112
175 3 2 3 2 107 41 42 129
176 3 2 3 2 125 127 148 126
177 3 2 3 2 43 132 129 42
178 3 2 3 2 126 124 123 125
179 3 2 3 2 108 113 130 114
180 3 2 3 2 130 117 116 114
181 3 2 3 2 122 129 132 119
182 3 2 3 2 111 113 44 45
183 3 2 3 2 112 39 40 128
184 3 2 3 2 124 122 120 123
185 3 2 3 2 17 103 140 18
186 3 2 3 2 128 40 41 107
187 3 2 3 2 113 108 43 44
188 3 2 3 2 104 14 13 131
189 3 2 3 2 43 108 115 132
190 3 2 3 2 122 119 118 120
191 3 2 3 2 116 115 108 114
192 3 2 3 2 132 115 118 119
193 3 2 3 2 121 118 115 116
194 3 2 3 2 13 12 135 102
195 3 2 3 2 143 16 15 141
196 3 2 3 2 116 142 143 121
197 3 2 3 2 14 104 141 15
198 3 2 3 2 134 142 116 117
199 3 2 3 2 125 123 147 146
200 3 2 3 2 145 147 123 120
201 3 2 3 2 103 134 151 140
202 3 2 3 2 50 138 105 49
203 3 2 3 2 36 106 139 35
204 3 2 3 2 49 105 137 48
205 3 2 3 2 35 139 109 34
206 3 2 3 2 12 11 152 135
207 3 2 3 2 143 141 145 121
208 3 2 3 2 16 143 103 17
209 3 2 3 2 134 103 143 142
210 3 2 3 2 125 146 102 144
211 3 2 3 2 147 145 141 104
212 3 2 3 2 152 109 149 135
213 3 2 3 2 121 145 120 118
214 3 2 3 2 13 102 146 131
215 3 2 3 2 39 112 155 38
216 3 2 3 2 45 46 154 111
217 3 2 3 2 104 131 146 147
218 3 2 3 2 105 138 151 133
219 3 2 3 2 19 153 51 3
220 3 2 3 2 11 2 33 152
221 3 2 3 2 38 155 37 5
222 3 2 3 2 46 6 47 154
223 3 2 3 2 151 110 153 140
224 3 2 3 2 117 133 151 134
225 3 2 3 2 117 130 150 133
226 3 2 3 2 113 111 150 130
227 3 2 3 2 155 112 148 136
228 3 2 3 2 18 140 153 19
229 3 2 3 2 102 135 149 144
230 3 2 3 2 154 137 150 111
231 3 2 3 2 36 136 148 106
232 3 2 3 2 127 149 109 139
233 3 2 3 2 50 51 153 110
234 3 2 3 2 34 109 152 33
235 3 2 3 2 48 137 154 47
236 3 2 3 2 36 37 155 136
237 3 2 3 2 133 150 137 105
238 3 2 3 2 50 110 151 138
239 3 2 3 2 125 144 149 127
$EndElements
