$MeshFormat
4.1 0 8
$EndMeshFormat
$PhysicalNames
3
2 1 "movingWall"
2 2 "fixedWalls"
3 3 "fluid"
$EndPhysicalNames
$Entities
8 12 6 1
1 0 0 1 0 
2 0 0 0 0 
3 0 1 1 0 
4 0 1 0 0 
5 1 0 1 0 
6 1 0 0 0 
7 1 1 1 0 
8 1 1 0 0 
1 -1e-07 -1e-07 -9.999999994736442e-08 1e-07 1e-07 1.0000001 0 2 2 -1 
2 -1e-07 -9.999999994736442e-08 0.9999999000000001 1e-07 1.0000001 1.0000001 0 2 1 -3 
3 -1e-07 0.9999999000000001 -9.999999994736442e-08 1e-07 1.0000001 1.0000001 0 2 4 -3 
4 -1e-07 -9.999999994736442e-08 -1e-07 1e-07 1.0000001 1e-07 0 2 2 -4 
5 0.9999999000000001 -1e-07 -9.999999994736442e-08 1.0000001 1e-07 1.0000001 0 2 6 -5 
6 0.9999999000000001 -9.999999994736442e-08 0.9999999000000001 1.0000001 1.0000001 1.0000001 0 2 5 -7 
7 0.9999999000000001 0.9999999000000001 -9.999999994736442e-08 1.0000001 1.0000001 1.0000001 0 2 8 -7 
8 0.9999999000000001 -9.999999994736442e-08 -1e-07 1.0000001 1.0000001 1e-07 0 2 6 -8 
9 -9.999999994736442e-08 -1e-07 -1e-07 1.0000001 1e-07 1e-07 0 2 2 -6 
10 -9.999999994736442e-08 -1e-07 0.9999999000000001 1.0000001 1e-07 1.0000001 0 2 1 -5 
11 -9.999999994736442e-08 0.9999999000000001 -1e-07 1.0000001 1.0000001 1e-07 0 2 4 -8 
12 -9.999999994736442e-08 0.9999999000000001 0.9999999000000001 1.0000001 1.0000001 1.0000001 0 2 3 -7 
1 -1e-07 -9.999999994736442e-08 -9.999999994736442e-08 1e-07 1.0000001 1.0000001 1 2 4 -1 4 3 -2 
2 0.9999999000000001 -9.999999994736442e-08 -9.999999994736442e-08 1.0000001 1.0000001 1.0000001 1 2 4 -5 8 7 -6 
3 -9.999999994736442e-08 -1e-07 -9.999999994736442e-08 1.0000001 1e-07 1.0000001 1 2 4 -9 1 10 -5 
4 -9.999999994736442e-08 0.9999999000000001 -9.999999994736442e-08 1.0000001 1.0000001 1.0000001 1 2 4 -11 3 12 -7 
5 -9.999999994736442e-08 -9.999999994736442e-08 -1e-07 1.0000001 1.0000001 1e-07 1 2 4 -4 9 8 -11 
6 -9.999999994736442e-08 -9.999999994736442e-08 0.9999999000000001 1.0000001 1.0000001 1.0000001 1 1 4 -2 10 6 -12 
1 -9.999999994736442e-08 -9.999999994736442e-08 -9.999999994736442e-08 1.0000001 1.0000001 1.0000001 1 3 6 -1 2 -3 4 -5 6 
$EndEntities
$Nodes
27 231 1 231
0 1 0 1
1
0 0 1
0 2 0 1
2
0 0 0
0 3 0 1
3
0 1 1
0 4 0 1
4
0 1 0
0 5 0 1
5
1 0 1
0 6 0 1
6
1 0 0
0 7 0 1
7
1 1 1
0 8 0 1
8
1 1 0
1 1 0 3
9
10
11
0 0 0.5
0 0 0.25
0 0 0.75
1 2 0 3
12
13
14
0 0.5 1
0 0.25 1
0 0.75 1
1 3 0 3
15
16
17
0 1 0.5
0 1 0.25
0 1 0.75
1 4 0 3
18
19
20
0 0.5 0
0 0.25 0
0 0.75 0
1 5 0 3
21
22
23
1 0 0.5
1 0 0.25
1 0 0.75
1 6 0 3
24
25
26
1 0.5 1
1 0.25 1
1 0.75 1
1 7 0 3
27
28
29
1 1 0.5
1 1 0.25
1 1 0.75
1 8 0 3
30
31
32
1 0.5 0
1 0.25 0
1 0.75 0
1 9 0 3
33
34
35
0.5 0 0
0.25 0 0
0.75 0 0
1 10 0 3
36
37
38
0.5 0 1
0.25 0 1
0.75 0 1
1 11 0 3
39
40
41
0.5 1 0
0.25 1 0
0.75 1 0
1 12 0 3
42
43
44
0.5 1 1
0.25 1 1
0.75 1 1
2 1 0 21
45
46
47
48
49
50
51
52
53
54
55
56
57
58
59
60
61
62
63
64
65
0 0.75 0.75
0 0.625 0.3749999999999999
0 0.28125 0.2812500000000001
0 0.3457031249999999 0.6542968750000001
0 0.1728515624999999 0.8271484375
0 0.1728515624999999 0.5771484375
0 0.4228515624999999 0.8271484375
0 0.140625 0.3906250000000001
0 0.140625 0.1406250000000001
0 0.390625 0.1406250000000001
0 0.875 0.875
0 0.625 0.875
0 0.875 0.625
0 0.8125 0.1875
0 0.8125 0.4375
0 0.5625 0.1875
0 0.3134765624999999 0.4677734375000001
0 0.5478515625 0.7021484375
0 0.6875 0.5625
0 0.453125 0.328125
0 0.4853515624999999 0.5146484375
2 2 0 21
66
67
68
69
70
71
72
73
74
75
76
77
78
79
80
81
82
83
84
85
86
1 0.75 0.75
1 0.625 0.3749999999999999
1 0.28125 0.2812500000000001
1 0.3457031249999999 0.6542968750000001
1 0.1728515624999999 0.5771484375
1 0.1728515624999999 0.8271484375
1 0.4228515624999999 0.8271484375
1 0.140625 0.1406250000000001
1 0.140625 0.3906250000000001
1 0.390625 0.1406250000000001
1 0.625 0.875
1 0.875 0.875
1 0.875 0.625
1 0.8125 0.4375
1 0.8125 0.1875
1 0.5625 0.1875
1 0.3134765624999999 0.4677734375000001
1 0.5478515625 0.7021484375
1 0.6875 0.5625
1 0.453125 0.328125
1 0.4853515624999999 0.5146484375
2 3 0 21
87
88
89
90
91
92
93
94
95
96
97
98
99
100
101
102
103
104
105
106
107
0.75 0 0.75
0.3749999999999999 0 0.625
0.2812500000000001 0 0.28125
0.6542968750000001 0 0.3457031249999999
0.1875 0 0.5625
0.1875 0 0.8125
0.4375 0 0.8125
0.1406250000000001 0 0.140625
0.1406250000000001 0 0.390625
0.3906250000000001 0 0.140625
0.875 0 0.875
0.875 0 0.625
0.625 0 0.875
0.8271484375 0 0.4228515624999999
0.8271484375 0 0.1728515624999999
0.5771484375 0 0.1728515624999999
0.328125 0 0.453125
0.7021484375 0 0.5478515625
0.4677734375000001 0 0.3134765624999999
0.5625 0 0.6875
0.5146484375 0 0.4853515624999999
2 4 0 21
108
109
110
111
112
113
114
115
116
117
118
119
120
121
122
123
124
125
126
127
128
0.75 1 0.75
0.3749999999999999 1 0.625
0.2812500000000001 1 0.28125
0.6542968750000001 1 0.3457031249999999
0.1875 1 0.8125
0.1875 1 0.5625
0.4375 1 0.8125
0.1406250000000001 1 0.390625
0.1406250000000001 1 0.140625
0.3906250000000001 1 0.140625
0.875 1 0.625
0.875 1 0.875
0.625 1 0.875
0.8271484375 1 0.1728515624999999
0.8271484375 1 0.4228515624999999
0.5771484375 1 0.1728515624999999
0.328125 1 0.453125
0.7021484375 1 0.5478515625
0.4677734375000001 1 0.3134765624999999
0.5625 1 0.6875
0.5146484375 1 0.4853515624999999
2 5 0 21
129
130
131
132
133
134
135
136
137
138
139
140
141
142
143
144
145
146
147
148
149
0.75 0.25 0
0.625 0.625 0
0.2812499999999999 0.71875 0
0.3457031250000001 0.3457031250000001 0
0.1728515625 0.4228515625 0
0.1728515625 0.1728515625 0
0.4228515625 0.1728515625 0
0.140625 0.859375 0
0.140625 0.609375 0
0.390625 0.859375 0
0.875 0.125 0
0.875 0.375 0
0.625 0.125 0
0.8125 0.5625 0
0.8125 0.8125 0
0.5625 0.8125 0
0.3134765625 0.5322265625 0
0.6875 0.4375 0
0.5478515625 0.2978515625 0
0.453125 0.671875 0
0.4853515625 0.4853515625 0
2 6 0 21
150
151
152
153
154
155
156
157
158
159
160
161
162
163
164
165
166
167
168
169
170
0.75 0.25 1
0.625 0.625 1
0.2812499999999999 0.71875 1
0.3457031250000001 0.3457031250000001 1
0.1728515625 0.1728515625 1
0.1728515625 0.4228515625 1
0.4228515625 0.1728515625 1
0.140625 0.609375 1
0.140625 0.859375 1
0.390625 0.859375 1
0.875 0.375 1
0.875 0.125 1
0.625 0.125 1
0.8125 0.8125 1
0.8125 0.5625 1
0.5625 0.8125 1
0.3134765625 0.5322265625 1
0.6875 0.4375 1
0.5478515625 0.2978515625 1
0.453125 0.671875 1
0.4853515625 0.4853515625 1
3 1 0 61
171
172
173
174
175
176
177
178
179
180
181
182
183
184
185
186
187
188
189
190
191
192
193
194
195
196
197
198
199
200
201
202
203
204
205
206
207
208
209
210
211
212
213
214
215
216
217
218
219
220
221
222
223
224
225
226
227
228
229
230
231
0.4755859374999999 0.4951171874999998 0.5244140625
0.7021484375 0.125 0.1728515624999999
0.8271484375 0.140625 0.3134765625
0.875 0.265625 0.1406250000000001
0.61279296875 0.3725585937499999 0.26220703125
0.73779296875 0.3881835937499999 0.4028320312500001
0.56494140625 0.2475585937499999 0.4350585937499999
0.8125 0.453125 0.1406250000000001
0.55029296875 0.5600585937499999 0.26220703125
0.4531250000000001 0.8125 0.140625
0.28125 0.859375 0.140625
0.3784179687499999 0.6069335937499999 0.26220703125
0.37841796875 0.7475585937499999 0.40283203125
0.875 0.8125 0.5625
0.875 0.875 0.75
0.61279296875 0.7475585937499999 0.63720703125
0.73779296875 0.6225585937499999 0.63720703125
0.73779296875 0.5600585937499999 0.44970703125
0.3134765625000001 0.1728515625 0.140625
0.1728515625 0.3134765625 0.1406250000000001
0.1406250000000001 0.140625 0.2812500000000001
0.37841796875 0.2475585937499999 0.40283203125
0.2377929687499999 0.3881835937499999 0.4028320312500001
0.41064453125 0.4204101562499999 0.26220703125
0.140625 0.734375 0.875
0.140625 0.5322265625 0.8271484375
0.2377929687499999 0.6225585937499999 0.63720703125
0.2377929687499999 0.4204101562499999 0.58935546875
0.3784179687499999 0.6069335937499999 0.76220703125
0.875 0.2978515624999999 0.8271484375
0.875 0.1728515624999999 0.7021484375
0.75 0.125 0.875
0.61279296875 0.3725585937499999 0.76220703125
0.61279296875 0.2475585937499999 0.63720703125
0.73779296875 0.4204101562499999 0.58935546875
0.5625 0.125 0.8125
0.4252929687499999 0.2475585937499999 0.57470703125
0.1875 0.140625 0.4531250000000001
0.1406250000000001 0.8125 0.328125
0.140625 0.671875 0.1875
0.2377929687499999 0.5600585937499999 0.44970703125
0.8271484375 0.8125 0.3603515624999999
0.56494140625 0.7475585937499999 0.4350585937499999
0.5000000000000001 0.1728515625 0.1728515624999999
0.8271484375 0.1728515624999999 0.5
0.6875 0.8125 0.875
0.8125 0.6875 0.875
0.55029296875 0.5600585937499999 0.76220703125
0.6396484375 0.8125 0.1728515624999999
0.8125 0.625 0.1875
0.1728515625 0.345703125 0.8271484375
0.41064453125 0.4204101562499999 0.76220703125
0.3603515625 0.1728515625 0.8125
0.1875 0.875 0.6875
0.3281249999999999 0.859375 0.8125
0.4252929687499999 0.7475585937499999 0.57470703125
0.8125 0.4853515624999999 0.8271484375
0.1728515625 0.4853515625 0.1875
0.1875 0.1728515624999999 0.6396484375
0.5 0.8125 0.8125
0.1875 0.8125 0.5
$EndNodes
$Elements
7 184 1 184
2 1 9 14
1 9 1 48 11 49 50 
2 1 12 48 13 51 49 
3 2 9 47 10 52 53 
4 18 2 47 19 53 54 
5 12 3 45 14 55 56 
6 3 15 45 17 57 55 
7 15 4 46 16 58 59 
8 4 18 46 20 60 58 
9 47 9 48 52 50 61 
10 12 45 48 56 62 51 
11 45 15 46 57 59 63 
12 46 18 47 60 54 64 
13 45 46 48 63 65 62 
14 46 47 48 64 61 65 
2 2 9 14
15 21 69 5 70 71 23 
16 5 69 24 71 72 25 
17 6 68 21 73 74 22 
18 30 68 6 75 73 31 
19 24 66 7 76 77 26 
20 7 66 27 77 78 29 
21 27 67 8 79 80 28 
22 8 67 30 80 81 32 
23 68 69 21 82 70 74 
24 24 69 66 72 83 76 
25 66 67 27 84 79 78 
26 67 68 30 85 75 81 
27 66 69 67 83 86 84 
28 67 69 68 86 82 85 
2 3 9 14
29 1 9 88 11 91 92 
30 36 1 88 37 92 93 
31 9 2 89 10 94 95 
32 2 33 89 34 96 94 
33 21 5 87 23 97 98 
34 5 36 87 38 99 97 
35 6 21 90 22 100 101 
36 33 6 90 35 101 102 
37 88 9 89 91 95 103 
38 21 87 90 98 104 100 
39 89 33 90 96 102 105 
40 87 36 88 99 93 106 
41 87 88 90 106 107 104 
42 88 89 90 103 105 107 
2 4 9 14
43 3 109 15 112 113 17 
44 42 109 3 114 112 43 
45 15 110 4 115 116 16 
46 4 110 39 116 117 40 
47 27 108 7 118 119 29 
48 7 108 42 119 120 44 
49 8 111 27 121 122 28 
50 39 111 8 123 121 41 
51 109 110 15 124 115 113 
52 27 111 108 122 125 118 
53 110 111 39 126 123 117 
54 108 109 42 127 114 120 
55 108 111 109 125 128 127 
56 109 111 110 128 126 124 
2 5 9 14
57 2 18 132 19 133 134 
58 33 2 132 34 134 135 
59 18 4 131 20 136 137 
60 4 39 131 40 138 136 
61 30 6 129 31 139 140 
62 6 33 129 35 141 139 
63 8 30 130 32 142 143 
64 39 8 130 41 143 144 
65 18 131 132 137 145 133 
66 30 129 130 140 146 142 
67 129 33 132 141 135 147 
68 39 130 131 144 148 138 
69 130 129 132 146 147 149 
70 131 130 132 148 149 145 
2 6 9 14
71 1 153 12 154 155 13 
72 36 153 1 156 154 37 
73 12 152 3 157 158 14 
74 3 152 42 158 159 43 
75 24 150 5 160 161 25 
76 5 150 36 161 162 38 
77 7 151 24 163 164 26 
78 42 151 7 165 163 44 
79 12 153 152 155 166 157 
80 24 151 150 164 167 160 
81 150 153 36 168 156 162 
82 42 152 151 159 169 165 
83 151 153 150 170 168 167 
84 152 153 151 166 170 169 
3 1 11 100
85 129 90 68 171 172 173 174 175 176 177 
86 129 68 130 171 174 178 146 175 179 176 
87 131 130 110 171 148 180 181 182 183 179 
88 108 67 66 171 184 84 185 186 187 188 
89 89 132 47 171 189 190 191 192 193 194 
90 45 152 48 171 195 196 62 197 198 199 
91 150 69 87 171 200 201 202 203 204 205 
92 88 150 87 171 206 202 106 207 204 203 
93 89 47 88 171 191 208 103 192 207 193 
94 131 110 46 171 181 209 210 182 211 183 
95 108 111 67 171 125 212 184 186 188 213 
96 129 132 90 171 147 214 172 175 177 194 
97 69 68 90 171 82 173 215 205 177 176 
98 151 108 66 171 216 185 217 218 187 186 
99 111 110 130 171 126 180 219 213 179 183 
100 89 90 132 171 105 214 189 192 194 177 
101 69 90 87 171 215 104 201 205 204 177 
102 67 130 68 171 220 178 85 188 176 179 
103 152 153 48 171 166 221 196 199 198 222 
104 88 153 150 171 223 168 206 207 203 222 
105 45 109 152 171 224 225 195 197 199 226 
106 66 69 151 171 83 227 217 187 218 205 
107 46 132 131 171 228 145 210 211 182 194 
108 47 48 88 171 61 229 208 193 207 198 
109 129 130 132 171 146 149 147 175 194 179 
110 46 47 132 171 64 190 228 211 194 193 
111 108 66 67 27 185 84 184 118 79 78 
112 150 36 88 87 162 93 206 202 106 99 
113 45 152 12 48 195 157 56 62 51 196 
114 150 151 69 171 167 227 200 203 205 218 
115 66 67 69 171 84 86 83 187 205 188 
116 110 131 39 130 181 138 117 180 144 148 
117 9 89 47 88 95 191 52 91 208 103 
118 69 67 68 171 86 85 82 205 176 188 
119 108 109 111 171 127 128 125 186 213 226 
120 108 151 109 171 216 230 127 186 226 218 
121 132 130 131 171 149 148 145 194 182 179 
122 109 46 110 171 231 209 124 226 183 211 
123 87 90 88 171 104 107 106 204 207 177 
124 130 30 68 129 142 75 178 146 174 140 
125 111 130 67 171 219 220 212 213 188 179 
126 48 152 12 153 196 157 51 221 155 166 
127 109 151 152 171 230 169 225 226 199 218 
128 109 45 46 171 224 63 231 226 211 197 
129 153 36 88 150 156 93 223 168 206 162 
130 111 108 67 27 125 184 212 122 79 118 
131 109 110 111 171 124 126 128 226 213 183 
132 153 151 150 171 170 167 168 222 203 218 
133 88 90 89 171 107 105 103 207 192 177 
134 48 9 47 88 50 52 61 229 208 91 
135 39 111 110 130 123 126 117 144 180 219 
136 90 68 69 21 173 82 215 100 70 74 
137 89 33 132 90 96 135 189 105 214 102 
138 45 48 46 171 62 65 63 197 211 198 
139 69 87 90 21 201 104 215 70 100 98 
140 129 132 33 90 147 135 141 172 102 214 
141 88 48 153 171 229 221 223 207 222 198 
142 67 130 30 68 220 142 81 85 75 178 
143 47 46 48 171 64 65 61 193 198 211 
144 131 18 132 46 137 133 145 210 228 60 
145 151 24 69 66 164 72 227 217 83 76 
146 18 47 132 46 54 190 133 60 228 64 
147 67 111 8 130 212 121 80 220 143 219 
148 153 152 151 171 166 169 170 222 218 199 
149 24 69 150 151 72 200 160 164 167 227 
150 110 4 131 46 116 136 181 209 210 58 
151 88 48 1 153 229 49 92 223 154 221 
152 109 42 152 151 114 159 225 230 169 165 
153 109 110 46 15 124 209 231 113 59 115 
154 46 45 109 15 63 224 231 59 113 57 
155 109 42 151 108 114 165 230 127 216 120 
156 132 2 89 47 134 94 189 190 191 53 
157 45 109 3 152 224 112 55 195 158 225 
158 130 8 67 30 143 80 220 142 81 32 
159 90 129 68 6 172 174 173 101 73 139 
160 36 88 1 153 93 92 37 156 154 223 
161 48 1 9 88 49 11 50 229 91 92 
162 67 111 27 8 212 122 79 80 28 121 
163 39 8 111 130 41 121 123 144 219 143 
164 108 7 151 66 119 163 216 185 217 77 
165 18 131 4 46 137 136 20 60 58 210 
166 46 110 4 15 209 116 58 59 16 115 
167 42 3 109 152 43 112 114 159 225 158 
168 2 89 33 132 94 96 34 134 135 189 
169 47 132 2 18 190 134 53 54 19 133 
170 21 90 68 6 100 173 74 22 73 101 
171 12 1 48 153 13 49 51 155 221 154 
172 45 109 15 3 224 113 57 55 17 112 
173 24 151 7 66 164 163 26 76 77 217 
174 7 151 42 108 163 165 44 119 120 216 
175 2 9 89 47 10 95 94 53 191 52 
176 150 87 69 5 202 201 200 161 71 97 
177 5 69 150 24 71 200 161 25 160 72 
178 33 129 90 6 141 172 102 35 101 139 
179 87 69 5 21 201 71 97 98 23 70 
180 131 4 110 39 136 116 181 138 117 40 
181 30 68 129 6 75 174 140 31 139 73 
182 152 3 45 12 158 55 195 157 56 14 
183 87 150 36 5 202 162 99 97 38 161 
184 66 108 7 27 185 119 77 78 29 118 
$EndElements
